<svg xmlns="http://www.w3.org/2000/svg" width="19.092" height="25" viewBox="0 0 19.092 25">
  <g id="cambio" transform="translate(-11.035 -6.666)">
    <path id="Trazado_1081" data-name="Trazado 1081" d="M20.877,25.838h0a.734.734,0,0,0-.727-.047.673.673,0,0,0-.384.593v2.242c-2.795,0-5.125-.377-7.408-4.142a.727.727,0,0,0-.613-.337.616.616,0,0,0-.7.673,10.829,10.829,0,0,0,1.347,5.717c1.421,2.263,3.892,3.576,7.374,3.872v2.3a.673.673,0,0,0,.377.593.747.747,0,0,0,.323.074.707.707,0,0,0,.4-.128l7.6-5.118a.673.673,0,0,0,0-1.091Zm.3,9.569V33.791a.673.673,0,0,0-.673-.673c-4.6-.215-7.172-2.155-7.845-5.913,2.492,2.754,5.192,2.754,7.8,2.754a.727.727,0,0,0,.5-.2.673.673,0,0,0,.209-.471V27.676l5.684,3.865Z" transform="translate(0 -5.707)" fill="#37bbed"/>
    <path id="Trazado_1082" data-name="Trazado 1082" d="M29.453,13.511c-1.4-2.276-3.879-3.583-7.354-3.879v-2.3a.673.673,0,0,0-.377-.593.721.721,0,0,0-.727.047l-7.61,5.152a.673.673,0,0,0,0,1.091l7.6,5.172a.734.734,0,0,0,.727.047.673.673,0,0,0,.384-.593V15.416c2.795,0,5.125.377,7.408,4.142a.727.727,0,0,0,.613.337.673.673,0,0,0,.673-.673,10.829,10.829,0,0,0-1.34-5.711Zm-8.081.566a.727.727,0,0,0-.5.2.673.673,0,0,0-.209.471v1.616l-5.684-3.865,5.711-3.852v1.616a.673.673,0,0,0,.673.673c4.6.209,7.158,2.141,7.832,5.9-2.485-2.754-5.185-2.754-7.8-2.754Z" transform="translate(-0.677)" fill="#37bbed"/>
  </g>
</svg>
