<svg xmlns="http://www.w3.org/2000/svg" width="94.993" height="92.131" viewBox="0 0 94.993 92.131">
  <g id="Grupo_1010" data-name="Grupo 1010" transform="translate(-1070.081 -105.318)">
    <path id="Trazado_1055" data-name="Trazado 1055" d="M46.821,30.507A20.232,20.232,0,0,0,47,27.963a20.234,20.234,0,0,0-.182-2.544L52.3,21.134a1.31,1.31,0,0,0,.312-1.662L47.418,10.49a1.3,1.3,0,0,0-1.142-.649,1.213,1.213,0,0,0-.441.078l-6.465,2.6A18.968,18.968,0,0,0,34.982,9.97L34,3.09A1.266,1.266,0,0,0,32.723,2H22.338a1.266,1.266,0,0,0-1.272,1.09l-.987,6.88a19.947,19.947,0,0,0-4.388,2.544l-6.465-2.6a1.47,1.47,0,0,0-.467-.078,1.286,1.286,0,0,0-1.116.649L2.451,19.473a1.28,1.28,0,0,0,.312,1.662L8.24,25.418a20.59,20.59,0,0,0-.182,2.544,20.59,20.59,0,0,0,.182,2.544L2.762,34.791a1.31,1.31,0,0,0-.312,1.662l5.193,8.983a1.3,1.3,0,0,0,1.142.649,1.213,1.213,0,0,0,.441-.078l6.465-2.6a18.968,18.968,0,0,0,4.388,2.544l.987,6.88a1.266,1.266,0,0,0,1.272,1.09H32.723A1.266,1.266,0,0,0,34,52.835l.987-6.88a19.947,19.947,0,0,0,4.388-2.544l6.465,2.6a1.47,1.47,0,0,0,.467.078,1.286,1.286,0,0,0,1.116-.649l5.193-8.983a1.31,1.31,0,0,0-.312-1.662Zm-5.141-4.44a13.872,13.872,0,0,1,.13,1.9c0,.545-.052,1.116-.13,1.9l-.363,2.934,2.311,1.817,2.8,2.181-1.817,3.141-3.3-1.324-2.7-1.09L36.28,39.282a15.206,15.206,0,0,1-3.245,1.9l-2.752,1.116-.415,2.934-.519,3.5H25.713l-.493-3.5L24.8,42.294l-2.752-1.116a14.731,14.731,0,0,1-3.193-1.843L16.5,37.517l-2.752,1.116-3.3,1.324L8.63,36.816l2.8-2.181,2.311-1.817-.363-2.934c-.078-.8-.13-1.4-.13-1.921s.052-1.116.13-1.9l.363-2.934-2.311-1.817-2.8-2.181,1.817-3.141,3.3,1.324,2.7,1.09,2.337-1.765a15.206,15.206,0,0,1,3.245-1.9l2.752-1.116.415-2.934.519-3.5h3.609l.493,3.5.415,2.934,2.752,1.116a14.731,14.731,0,0,1,3.193,1.843l2.363,1.817,2.752-1.116,3.3-1.324,1.817,3.141-2.778,2.207-2.311,1.817.363,2.934Zm-14.15-8.49A10.385,10.385,0,1,0,37.915,27.963,10.382,10.382,0,0,0,27.53,17.578Zm0,15.578a5.193,5.193,0,1,1,5.192-5.193A5.208,5.208,0,0,1,27.53,33.155Z" transform="translate(1077.281 103.318)" fill="#37bbed"/>
    <path id="Trazado_1056" data-name="Trazado 1056" d="M46.821,30.507A20.232,20.232,0,0,0,47,27.963a20.234,20.234,0,0,0-.182-2.544L52.3,21.134a1.31,1.31,0,0,0,.312-1.662L47.418,10.49a1.3,1.3,0,0,0-1.142-.649,1.213,1.213,0,0,0-.441.078l-6.465,2.6A18.968,18.968,0,0,0,34.982,9.97L34,3.09A1.266,1.266,0,0,0,32.723,2H22.338a1.266,1.266,0,0,0-1.272,1.09l-.987,6.88a19.947,19.947,0,0,0-4.388,2.544l-6.465-2.6a1.47,1.47,0,0,0-.467-.078,1.286,1.286,0,0,0-1.116.649L2.451,19.473a1.28,1.28,0,0,0,.312,1.662L8.24,25.418a20.59,20.59,0,0,0-.182,2.544,20.59,20.59,0,0,0,.182,2.544L2.762,34.791a1.31,1.31,0,0,0-.312,1.662l5.193,8.983a1.3,1.3,0,0,0,1.142.649,1.213,1.213,0,0,0,.441-.078l6.465-2.6a18.968,18.968,0,0,0,4.388,2.544l.987,6.88a1.266,1.266,0,0,0,1.272,1.09H32.723A1.266,1.266,0,0,0,34,52.835l.987-6.88a19.947,19.947,0,0,0,4.388-2.544l6.465,2.6a1.47,1.47,0,0,0,.467.078,1.286,1.286,0,0,0,1.116-.649l5.193-8.983a1.31,1.31,0,0,0-.312-1.662Zm-5.141-4.44a13.872,13.872,0,0,1,.13,1.9c0,.545-.052,1.116-.13,1.9l-.363,2.934,2.311,1.817,2.8,2.181-1.817,3.141-3.3-1.324-2.7-1.09L36.28,39.282a15.206,15.206,0,0,1-3.245,1.9l-2.752,1.116-.415,2.934-.519,3.5H25.713l-.493-3.5L24.8,42.294l-2.752-1.116a14.731,14.731,0,0,1-3.193-1.843L16.5,37.517l-2.752,1.116-3.3,1.324L8.63,36.816l2.8-2.181,2.311-1.817-.363-2.934c-.078-.8-.13-1.4-.13-1.921s.052-1.116.13-1.9l.363-2.934-2.311-1.817-2.8-2.181,1.817-3.141,3.3,1.324,2.7,1.09,2.337-1.765a15.206,15.206,0,0,1,3.245-1.9l2.752-1.116.415-2.934.519-3.5h3.609l.493,3.5.415,2.934,2.752,1.116a14.731,14.731,0,0,1,3.193,1.843l2.363,1.817,2.752-1.116,3.3-1.324,1.817,3.141-2.778,2.207-2.311,1.817.363,2.934Zm-14.15-8.49A10.385,10.385,0,1,0,37.915,27.963,10.382,10.382,0,0,0,27.53,17.578Zm0,15.578a5.193,5.193,0,1,1,5.192-5.193A5.208,5.208,0,0,1,27.53,33.155Z" transform="translate(1112.295 142.222)" fill="#37bbed"/>
    <path id="Trazado_1057" data-name="Trazado 1057" d="M34.587,22.679a14.677,14.677,0,0,0,.132-1.846,14.677,14.677,0,0,0-.132-1.846L38.56,15.88a.95.95,0,0,0,.226-1.205L35.02,8.158a.941.941,0,0,0-.829-.471.88.88,0,0,0-.32.056L29.182,9.627A13.759,13.759,0,0,0,26,7.782l-.716-4.991A.918.918,0,0,0,24.36,2H16.827a.918.918,0,0,0-.923.791l-.716,4.991a14.469,14.469,0,0,0-3.183,1.846L7.317,7.744a1.066,1.066,0,0,0-.339-.056.933.933,0,0,0-.81.471L2.4,14.675a.928.928,0,0,0,.226,1.205L6.6,18.987a14.935,14.935,0,0,0-.132,1.846A14.935,14.935,0,0,0,6.6,22.679L2.627,25.786A.95.95,0,0,0,2.4,26.991l3.767,6.516A.941.941,0,0,0,7,33.978a.88.88,0,0,0,.32-.057l4.689-1.883a13.759,13.759,0,0,0,3.183,1.846l.716,4.991a.918.918,0,0,0,.923.791H24.36a.918.918,0,0,0,.923-.791L26,33.884a14.469,14.469,0,0,0,3.183-1.846l4.689,1.883a1.066,1.066,0,0,0,.339.057.933.933,0,0,0,.81-.471l3.767-6.516a.95.95,0,0,0-.226-1.205Zm-3.729-3.22a10.061,10.061,0,0,1,.094,1.375c0,.4-.038.81-.094,1.375l-.264,2.128,1.676,1.318L34.3,27.236l-1.318,2.279-2.392-.96-1.959-.791-1.695,1.281a11.03,11.03,0,0,1-2.354,1.375l-2,.81-.3,2.128L21.912,35.9H19.276l-.358-2.542-.3-2.128-2-.81A10.686,10.686,0,0,1,14.3,29.082L12.59,27.763l-2,.81-2.392.96L6.883,27.255l2.034-1.582,1.676-1.318-.264-2.128c-.056-.584-.094-1.017-.094-1.394s.038-.81.094-1.375l.264-2.128L8.917,16.012,6.883,14.43,8.2,12.151l2.392.96,1.959.791,1.695-1.281A11.03,11.03,0,0,1,16.6,11.247l2-.81.3-2.128.377-2.542h2.618l.358,2.542.3,2.128,2,.81a10.686,10.686,0,0,1,2.316,1.337L28.579,13.9l2-.81,2.392-.96,1.318,2.279-2.015,1.6L30.594,17.33l.264,2.128ZM20.594,13.3a7.533,7.533,0,1,0,7.533,7.533A7.531,7.531,0,0,0,20.594,13.3Zm0,11.3a3.767,3.767,0,1,1,3.767-3.767A3.778,3.778,0,0,1,20.594,24.6Z" transform="translate(1067.81 157.783)" fill="#37bbed"/>
  </g>
</svg>
