<svg xmlns="http://www.w3.org/2000/svg" width="32.994" height="32" viewBox="0 0 32.994 32">
  <g id="Grupo_1173" data-name="Grupo 1173" transform="translate(-1070.081 -105.318)">
    <path id="Trazado_1055" data-name="Trazado 1055" d="M17.539,11.77A6.934,6.934,0,0,0,17.6,10.9a6.935,6.935,0,0,0-.062-.872l1.878-1.468a.449.449,0,0,0,.107-.569L17.744,4.91a.444.444,0,0,0-.392-.222.416.416,0,0,0-.151.027l-2.216.89a6.5,6.5,0,0,0-1.5-.872l-.338-2.358A.434.434,0,0,0,12.708,2H9.148a.434.434,0,0,0-.436.374L8.374,4.732a6.836,6.836,0,0,0-1.5.872l-2.216-.89a.5.5,0,0,0-.16-.027.441.441,0,0,0-.383.222L2.332,7.988a.439.439,0,0,0,.107.569l1.878,1.468a7.057,7.057,0,0,0-.062.872,7.057,7.057,0,0,0,.062.872L2.439,13.238a.449.449,0,0,0-.107.569l1.78,3.079a.444.444,0,0,0,.392.222.416.416,0,0,0,.151-.027l2.216-.89a6.5,6.5,0,0,0,1.5.872l.338,2.358a.434.434,0,0,0,.436.374h3.559a.434.434,0,0,0,.436-.374l.338-2.358a6.836,6.836,0,0,0,1.5-.872l2.216.89a.5.5,0,0,0,.16.027.441.441,0,0,0,.383-.222l1.78-3.079a.449.449,0,0,0-.107-.569Zm-1.762-1.522a4.754,4.754,0,0,1,.044.65c0,.187-.018.383-.044.65l-.125,1.005.792.623.961.747L16.783,15l-1.13-.454-.925-.374-.8.605a5.211,5.211,0,0,1-1.112.65l-.943.383-.142,1.005-.178,1.2H10.305l-.169-1.2L9.994,15.81l-.943-.383A5.049,5.049,0,0,1,7.956,14.8l-.81-.623-.943.383-1.13.454L4.45,13.932l.961-.747.792-.623-.125-1.005c-.027-.276-.044-.48-.044-.658s.018-.383.044-.65L6.2,9.243,5.411,8.62,4.45,7.873,5.073,6.8,6.2,7.25l.925.374.8-.605a5.211,5.211,0,0,1,1.112-.65l.943-.383.142-1.005.178-1.2h1.237l.169,1.2.142,1.005.943.383A5.049,5.049,0,0,1,13.891,7l.81.623.943-.383,1.13-.454L17.4,7.864l-.952.756-.792.623.125,1.005Zm-4.849-2.91A3.559,3.559,0,1,0,14.487,10.9,3.558,3.558,0,0,0,10.928,7.339Zm0,5.339a1.78,1.78,0,1,1,1.78-1.78A1.785,1.785,0,0,1,10.928,12.678Z" transform="translate(1071.056 103.318)" fill="#333"/>
    <path id="Trazado_1056" data-name="Trazado 1056" d="M17.539,11.77A6.934,6.934,0,0,0,17.6,10.9a6.935,6.935,0,0,0-.062-.872l1.878-1.468a.449.449,0,0,0,.107-.569L17.744,4.91a.444.444,0,0,0-.392-.222.416.416,0,0,0-.151.027l-2.216.89a6.5,6.5,0,0,0-1.5-.872l-.338-2.358A.434.434,0,0,0,12.708,2H9.148a.434.434,0,0,0-.436.374L8.374,4.732a6.836,6.836,0,0,0-1.5.872l-2.216-.89a.5.5,0,0,0-.16-.027.441.441,0,0,0-.383.222L2.332,7.988a.439.439,0,0,0,.107.569l1.878,1.468a7.057,7.057,0,0,0-.062.872,7.057,7.057,0,0,0,.062.872L2.439,13.238a.449.449,0,0,0-.107.569l1.78,3.079a.444.444,0,0,0,.392.222.416.416,0,0,0,.151-.027l2.216-.89a6.5,6.5,0,0,0,1.5.872l.338,2.358a.434.434,0,0,0,.436.374h3.559a.434.434,0,0,0,.436-.374l.338-2.358a6.836,6.836,0,0,0,1.5-.872l2.216.89a.5.5,0,0,0,.16.027.441.441,0,0,0,.383-.222l1.78-3.079a.449.449,0,0,0-.107-.569Zm-1.762-1.522a4.754,4.754,0,0,1,.044.65c0,.187-.018.383-.044.65l-.125,1.005.792.623.961.747L16.783,15l-1.13-.454-.925-.374-.8.605a5.211,5.211,0,0,1-1.112.65l-.943.383-.142,1.005-.178,1.2H10.305l-.169-1.2L9.994,15.81l-.943-.383A5.049,5.049,0,0,1,7.956,14.8l-.81-.623-.943.383-1.13.454L4.45,13.932l.961-.747.792-.623-.125-1.005c-.027-.276-.044-.48-.044-.658s.018-.383.044-.65L6.2,9.243,5.411,8.62,4.45,7.873,5.073,6.8,6.2,7.25l.925.374.8-.605a5.211,5.211,0,0,1,1.112-.65l.943-.383.142-1.005.178-1.2h1.237l.169,1.2.142,1.005.943.383A5.049,5.049,0,0,1,13.891,7l.81.623.943-.383,1.13-.454L17.4,7.864l-.952.756-.792.623.125,1.005Zm-4.849-2.91A3.559,3.559,0,1,0,14.487,10.9,3.558,3.558,0,0,0,10.928,7.339Zm0,5.339a1.78,1.78,0,1,1,1.78-1.78A1.785,1.785,0,0,1,10.928,12.678Z" transform="translate(1083.494 117.076)" fill="#333"/>
    <path id="Trazado_1057" data-name="Trazado 1057" d="M13.346,9.087a4.45,4.45,0,0,0,0-1.265l1.362-1.065a.326.326,0,0,0,.077-.413L13.495,4.111a.322.322,0,0,0-.284-.161.3.3,0,0,0-.11.019l-1.607.645A4.716,4.716,0,0,0,10.4,3.982l-.245-1.71A.315.315,0,0,0,9.841,2H7.26a.315.315,0,0,0-.316.271L6.7,3.982a4.959,4.959,0,0,0-1.091.633L4,3.969a.365.365,0,0,0-.116-.019.32.32,0,0,0-.278.161L2.315,6.344a.318.318,0,0,0,.077.413L3.755,7.822a5.119,5.119,0,0,0-.045.633,5.119,5.119,0,0,0,.045.633L2.393,10.152a.326.326,0,0,0-.077.413L3.606,12.8a.322.322,0,0,0,.284.161A.3.3,0,0,0,4,12.941L5.607,12.3a4.716,4.716,0,0,0,1.091.633l.245,1.71a.315.315,0,0,0,.316.271H9.841a.315.315,0,0,0,.316-.271l.245-1.71a4.959,4.959,0,0,0,1.091-.633l1.607.645a.365.365,0,0,0,.116.019.32.32,0,0,0,.278-.161l1.291-2.233a.326.326,0,0,0-.077-.413Zm-1.278-1.1a3.448,3.448,0,0,1,.032.471c0,.136-.013.278-.032.471l-.09.729.574.452.7.542-.452.781-.82-.329-.671-.271-.581.439a3.78,3.78,0,0,1-.807.471l-.684.278-.1.729L9,13.618H8.1l-.123-.871-.1-.729-.684-.278a3.662,3.662,0,0,1-.794-.458l-.587-.452-.684.278-.82.329-.452-.781.7-.542.574-.452-.09-.729C5.013,8.732,5,8.584,5,8.455s.013-.278.032-.471l.09-.729L4.549,6.8l-.7-.542L4.3,5.479l.82.329.671.271.581-.439a3.78,3.78,0,0,1,.807-.471l.684-.278.1-.729L8.1,3.291H9l.123.871.1.729.684.278a3.662,3.662,0,0,1,.794.458l.587.452.684-.278.82-.329.452.781-.691.549-.574.452.09.729ZM8.551,5.873a2.582,2.582,0,1,0,2.582,2.582A2.581,2.581,0,0,0,8.551,5.873Zm0,3.873A1.291,1.291,0,1,1,9.841,8.455,1.295,1.295,0,0,1,8.551,9.746Z" transform="translate(1067.81 122.409)" fill="#333"/>
  </g>
</svg>
