<svg id="Componente_88_1" data-name="Componente 88 – 1" xmlns="http://www.w3.org/2000/svg" width="21.6" height="24" viewBox="0 0 21.6 24">
  <path id="Trazado_1132" data-name="Trazado 1132" d="M22.2,3.4H21V1H18.6V3.4H9V1H6.6V3.4H5.4A2.407,2.407,0,0,0,3,5.8V22.6A2.407,2.407,0,0,0,5.4,25H22.2a2.407,2.407,0,0,0,2.4-2.4V5.8A2.407,2.407,0,0,0,22.2,3.4Zm0,19.2H5.4v-12H22.2ZM5.4,8.2V5.8H22.2V8.2Zm6.672,12.552,7.116-7.116-1.272-1.272-5.844,5.844L9.54,15.676,8.268,16.948Z" transform="translate(-3 -1)" fill="#37bbed"/>
</svg>
