<svg xmlns="http://www.w3.org/2000/svg" width="49.465" height="50" viewBox="0 0 49.465 50">
  <g id="financiamiento" transform="translate(-3.52 -3.29)">
    <path id="Trazado_1182" data-name="Trazado 1182" d="M9.683,18.11a.843.843,0,1,0,0,1.686h6.7c.433-.581.9-1.139,1.39-1.686Z" transform="translate(0.741 2.063)" fill="#37bbed"/>
    <path id="Trazado_1183" data-name="Trazado 1183" d="M9.683,15a.843.843,0,0,0,0,1.686H19.708A19.89,19.89,0,0,1,21.987,15Z" transform="translate(0.741 1.63)" fill="#37bbed"/>
    <path id="Trazado_1184" data-name="Trazado 1184" d="M24.835,11.85H9.683a.843.843,0,1,0,0,1.686H24.835a.843.843,0,0,0,0-1.686Z" transform="translate(0.741 1.192)" fill="#37bbed"/>
    <path id="Trazado_1185" data-name="Trazado 1185" d="M24.835,8.72H9.683a.843.843,0,0,0,0,1.686H24.835a.843.843,0,0,0,0-1.686Z" transform="translate(0.741 0.756)" fill="#37bbed"/>
    <path id="Trazado_1186" data-name="Trazado 1186" d="M7.336,36.156a2.13,2.13,0,0,1-2.13-2.13V7.095a2.13,2.13,0,0,1,2.13-2.119H28.583A2.119,2.119,0,0,1,30.7,7.095v6.459c.558-.08,1.139-.159,1.686-.205V7.095a3.816,3.816,0,0,0-3.8-3.8H7.336a3.816,3.816,0,0,0-3.816,3.8V34.026a3.816,3.816,0,0,0,3.816,3.816h5.844c-.091-.558-.171-1.139-.216-1.686Z" fill="#37bbed"/>
    <path id="Trazado_1187" data-name="Trazado 1187" d="M30.721,31.791a1.139,1.139,0,0,1,.889.4,1.811,1.811,0,0,1,.33,1.139h1.937A3.258,3.258,0,0,0,33.2,31.3a2.78,2.78,0,0,0-1.846-.98V28.84H30.288v1.424a3.042,3.042,0,0,0-1.914.843,2.461,2.461,0,0,0-.729,1.846,2.586,2.586,0,0,0,.216,1.139,2.5,2.5,0,0,0,.581.832,3.873,3.873,0,0,0,.911.615,11.391,11.391,0,0,0,1.253.547,2.757,2.757,0,0,1,1.037.6,1.242,1.242,0,0,1,.3.866,1.139,1.139,0,0,1-.342.843,1.333,1.333,0,0,1-.923.308,1.356,1.356,0,0,1-1.139-.422,1.743,1.743,0,0,1-.3-1.23H27.281a3.11,3.11,0,0,0,.752,2.221,3.2,3.2,0,0,0,2.119.98v1.3h1.059V40.209a3.076,3.076,0,0,0,1.948-.832,2.5,2.5,0,0,0,.718-1.846,2.8,2.8,0,0,0-.194-1.071,2.7,2.7,0,0,0-.535-.809,3.634,3.634,0,0,0-.866-.638,10.686,10.686,0,0,0-1.321-.6,3.418,3.418,0,0,1-1.139-.638,1.159,1.159,0,0,1,.9-1.982Z" transform="translate(3.307 3.557)" fill="#37bbed"/>
    <path id="Trazado_1188" data-name="Trazado 1188" d="M32.5,13.64a19.1,19.1,0,1,0,19.1,19.093A19.1,19.1,0,0,0,32.5,13.64Zm-5.491,5.878c1.344-.866,3.326-.547,4.785,1.709,2.005,3.11,2.871-1.618,5.445-1.139,3.224.547-.98,6.437-.98,6.437H29.053S23.5,21.808,27.014,19.518ZM37,46.4H28a5.525,5.525,0,0,1-5.423-7.04c1.595-5.092,6.118-11.13,6.186-11.164h7.473c.08,0,4.557,6.072,6.2,11.164A5.537,5.537,0,0,1,37,46.4Z" transform="translate(1.375 1.441)" fill="#37bbed"/>
  </g>
</svg>
