<svg xmlns="http://www.w3.org/2000/svg" width="22.34" height="19.2" viewBox="0 0 22.34 19.2">
  <g id="peligro" transform="translate(0.123 -35.757)">
    <g id="Grupo_891" data-name="Grupo 891" transform="translate(0 35.857)">
      <g id="Grupo_890" data-name="Grupo 890">
        <path id="Trazado_1083" data-name="Trazado 1083" d="M21.81,51.847l-9.063-15.03a1.985,1.985,0,0,0-3.4,0L.284,51.847a1.985,1.985,0,0,0,1.7,3.01H20.11a1.985,1.985,0,0,0,1.7-3.01Zm-1.224,1.294a.547.547,0,0,1-.476.278H1.984a.546.546,0,0,1-.468-.829l9.063-15.03a.546.546,0,0,1,.936,0l9.063,15.03A.547.547,0,0,1,20.586,53.141Z" transform="translate(0 -35.857)" fill="#37bbed" stroke="#37bbed" stroke-width="0.2"/>
      </g>
    </g>
    <g id="Grupo_893" data-name="Grupo 893" transform="translate(10.079 41.775)">
      <g id="Grupo_892" data-name="Grupo 892">
        <path id="Trazado_1084" data-name="Trazado 1084" d="M234.552,173.005c-.547,0-.974.294-.974.814,0,1.588.187,3.87.187,5.458,0,.414.36.587.787.587.32,0,.774-.173.774-.587,0-1.588.187-3.87.187-5.458A.858.858,0,0,0,234.552,173.005Z" transform="translate(-233.578 -173.005)" fill="#37bbed" stroke="#37bbed" stroke-width="0.2"/>
      </g>
    </g>
    <g id="Grupo_895" data-name="Grupo 895" transform="translate(10.039 49.556)">
      <g id="Grupo_894" data-name="Grupo 894">
        <path id="Trazado_1085" data-name="Trazado 1085" d="M233.679,353.306a1.028,1.028,0,1,0,0,2.055,1.028,1.028,0,0,0,0-2.055Z" transform="translate(-232.651 -353.306)" fill="#37bbed" stroke="#37bbed" stroke-width="0.2"/>
      </g>
    </g>
  </g>
</svg>
