<svg xmlns="http://www.w3.org/2000/svg" width="33.916" height="32" viewBox="0 0 33.916 32">
  <g id="Grupo_1175" data-name="Grupo 1175" transform="translate(-84.184 -328.497)">
    <g id="Grupo_117" data-name="Grupo 117" transform="translate(84.184 328.497)">
      <g id="Grupo_116" data-name="Grupo 116">
        <path id="Trazado_176" data-name="Trazado 176" d="M104.122,324.281a3.286,3.286,0,0,0-4.259,0s-6.072,5.048-6.266,5.341H110.36C110.228,329.329,104.122,324.281,104.122,324.281Z" transform="translate(-78.536 -323.497)" fill="#333"/>
        <path id="Trazado_177" data-name="Trazado 177" d="M92.194,336.987a.442.442,0,0,0,.44-.445v-3.41a.443.443,0,0,0-.44-.445H90.112a.874.874,0,0,0-.6.25l-2.578,2.626a.9.9,0,0,0-.246.6v.4a.443.443,0,0,0,.442.445Z" transform="translate(-82.682 -317.983)" fill="#333"/>
        <path id="Trazado_178" data-name="Trazado 178" d="M90.434,338.112a4.308,4.308,0,1,0,4.27,4.309h0A4.3,4.3,0,0,0,90.434,338.112Zm0,7.379a3.071,3.071,0,1,1,3.045-3.071,3.056,3.056,0,0,1-3.045,3.071Z" transform="translate(-82.996 -314.728)" fill="#333"/>
        <path id="Trazado_179" data-name="Trazado 179" d="M101.734,338.112A4.308,4.308,0,1,0,106,342.421h0A4.3,4.3,0,0,0,101.734,338.112Zm0,7.379a3.071,3.071,0,1,1,3.043-3.071,3.058,3.058,0,0,1-3.043,3.071Z" transform="translate(-76.216 -314.728)" fill="#333"/>
        <path id="Trazado_180" data-name="Trazado 180" d="M114.3,341.389H95.772a.594.594,0,0,1-.592-.6h0v-9.471H90.125a.594.594,0,0,1-.592-.6h0v-2.047a.594.594,0,0,1,.592-.6h24.042a.591.591,0,0,1,.59.587l.133,12.106a.594.594,0,0,1-.582.605h-.01ZM96.4,340.2h17.3l-.078-10.912H90.68v.89h5.082a.594.594,0,0,1,.592.6h0Z" transform="translate(-80.975 -320.746)" fill="#333"/>
        <path id="Trazado_181" data-name="Trazado 181" d="M95.054,338.2a.6.6,0,0,1-.592-.6.6.6,0,0,1,.054-.25l3.291-7.469a.59.59,0,0,1,.784-.3.6.6,0,0,1,.3.792h0L95.6,337.841A.593.593,0,0,1,95.054,338.2Z" transform="translate(-78.017 -319.878)" fill="#333"/>
        <path id="Trazado_182" data-name="Trazado 182" d="M101.545,338.195a.593.593,0,0,1-.592-.6.6.6,0,0,1,.053-.25l3.291-7.461a.593.593,0,0,1,.786-.3.6.6,0,0,1,.3.792h0l-3.29,7.458A.594.594,0,0,1,101.545,338.195Z" transform="translate(-74.122 -319.875)" fill="#333"/>
        <path id="Trazado_183" data-name="Trazado 183" d="M97.217,338.2a.6.6,0,0,1-.594-.6.6.6,0,0,1,.054-.25l3.293-7.469a.59.59,0,0,1,.784-.3.6.6,0,0,1,.3.792h0l-3.291,7.467A.593.593,0,0,1,97.217,338.2Z" transform="translate(-76.72 -319.878)" fill="#333"/>
        <path id="Trazado_184" data-name="Trazado 184" d="M99.384,338.237a.6.6,0,0,1-.594-.6.6.6,0,0,1,.054-.25l3.291-7.469a.591.591,0,1,1,1.15.275.569.569,0,0,1-.074.179l-3.29,7.467A.594.594,0,0,1,99.384,338.237Z" transform="translate(-75.42 -319.917)" fill="#333"/>
        <path id="Trazado_185" data-name="Trazado 185" d="M117.49,346.425h-2.283a.6.6,0,0,1,0-1.192H116.9v-3.178H96.714a.594.594,0,0,1-.592-.6v-9.5H91.058l-4.464,4.514V343.5a.6.6,0,0,1-.442.579c-.15,0-.758.285-.758.614,0,.48.67.552,1.067.552a.6.6,0,0,1,0,1.192c-1.394-.01-2.277-.677-2.277-1.709a1.851,1.851,0,0,1,1.2-1.611V336.26a.6.6,0,0,1,.178-.418l4.8-4.894a.582.582,0,0,1,.422-.179h5.93a.594.594,0,0,1,.59.6h0v9.461H117.49a.594.594,0,0,1,.592.6v4.451A.594.594,0,0,1,117.49,346.425Z" transform="translate(-84.184 -319.134)" fill="#333"/>
        <path id="Trazado_186" data-name="Trazado 186" d="M99.4,341H92.765a.6.6,0,0,1,0-1.192H99.4a.6.6,0,0,1,0,1.192Z" transform="translate(-79.389 -313.71)" fill="#333"/>
      </g>
    </g>
  </g>
</svg>
