<svg xmlns="http://www.w3.org/2000/svg" width="52.993" height="50" viewBox="0 0 52.993 50">
  <g id="Grupo_934" data-name="Grupo 934" transform="translate(-84.184 -328.497)">
    <g id="Grupo_117" data-name="Grupo 117" transform="translate(84.184 328.497)">
      <g id="Grupo_116" data-name="Grupo 116">
        <path id="Trazado_176" data-name="Trazado 176" d="M110.042,324.721a5.135,5.135,0,0,0-6.655,0s-9.488,7.888-9.79,8.345H119.79C119.582,332.609,110.042,324.721,110.042,324.721Z" transform="translate(-70.064 -323.497)" fill="#37bbed"/>
        <path id="Trazado_177" data-name="Trazado 177" d="M95.291,339.406a.69.69,0,0,0,.688-.7v-5.327a.692.692,0,0,0-.688-.7H92.038a1.365,1.365,0,0,0-.938.39l-4.028,4.1a1.4,1.4,0,0,0-.385.945v.627a.692.692,0,0,0,.69.695Z" transform="translate(-80.428 -309.711)" fill="#37bbed"/>
        <path id="Trazado_178" data-name="Trazado 178" d="M92.837,338.112a6.731,6.731,0,1,0,6.673,6.732h0A6.718,6.718,0,0,0,92.837,338.112Zm0,11.53a4.8,4.8,0,1,1,4.758-4.8,4.776,4.776,0,0,1-4.758,4.8Z" transform="translate(-81.214 -301.574)" fill="#37bbed"/>
        <path id="Trazado_179" data-name="Trazado 179" d="M104.136,338.112a6.732,6.732,0,1,0,6.67,6.732h0A6.714,6.714,0,0,0,104.136,338.112Zm0,11.53a4.8,4.8,0,1,1,4.755-4.8,4.778,4.778,0,0,1-4.755,4.8Z" transform="translate(-64.265 -301.574)" fill="#37bbed"/>
        <path id="Trazado_180" data-name="Trazado 180" d="M128.229,348.875H99.281a.928.928,0,0,1-.925-.932h0v-14.8h-7.9a.928.928,0,0,1-.925-.933h0v-3.2a.928.928,0,0,1,.925-.932h37.566a.924.924,0,0,1,.922.917l.208,18.915a.928.928,0,0,1-.91.945h-.015Zm-27.97-1.865h27.033l-.122-17.05H91.326v1.39h7.94a.928.928,0,0,1,.925.933h0Z" transform="translate(-76.16 -316.62)" fill="#37bbed"/>
        <path id="Trazado_181" data-name="Trazado 181" d="M95.387,343.074a.93.93,0,0,1-.925-.93.944.944,0,0,1,.085-.39l5.143-11.67a.922.922,0,0,1,1.225-.473.938.938,0,0,1,.47,1.237h0l-5.143,11.668A.926.926,0,0,1,95.387,343.074Z" transform="translate(-68.767 -314.449)" fill="#37bbed"/>
        <path id="Trazado_182" data-name="Trazado 182" d="M101.878,343.065a.927.927,0,0,1-.925-.93.942.942,0,0,1,.083-.39l5.143-11.657a.926.926,0,0,1,1.228-.47.939.939,0,0,1,.467,1.238h0l-5.14,11.652A.928.928,0,0,1,101.878,343.065Z" transform="translate(-59.03 -314.44)" fill="#37bbed"/>
        <path id="Trazado_183" data-name="Trazado 183" d="M97.55,343.074a.931.931,0,0,1-.927-.93.944.944,0,0,1,.085-.39l5.145-11.67a.922.922,0,0,1,1.225-.473.942.942,0,0,1,.47,1.237h0l-5.143,11.668A.926.926,0,0,1,97.55,343.074Z" transform="translate(-65.525 -314.449)" fill="#37bbed"/>
        <path id="Trazado_184" data-name="Trazado 184" d="M99.717,343.172a.931.931,0,0,1-.928-.93.942.942,0,0,1,.085-.39l5.143-11.67a.924.924,0,1,1,1.8.43.889.889,0,0,1-.115.28l-5.14,11.667A.928.928,0,0,1,99.717,343.172Z" transform="translate(-62.274 -314.547)" fill="#37bbed"/>
        <path id="Trazado_185" data-name="Trazado 185" d="M136.225,355.232h-3.568a.931.931,0,0,1,0-1.862H135.3V348.4h-31.54a.928.928,0,0,1-.925-.932v-14.84H94.924l-6.975,7.053v10.973a.93.93,0,0,1-.69.9c-.235,0-1.185.445-1.185.96,0,.75,1.048.863,1.667.863a.931.931,0,0,1,0,1.862c-2.177-.015-3.557-1.057-3.557-2.67a2.892,2.892,0,0,1,1.875-2.517v-10.71a.931.931,0,0,1,.278-.653l7.5-7.647a.91.91,0,0,1,.66-.28h9.265a.929.929,0,0,1,.923.932h0v14.783h31.541a.928.928,0,0,1,.925.933v6.955A.927.927,0,0,1,136.225,355.232Z" transform="translate(-84.184 -312.589)" fill="#37bbed"/>
        <path id="Trazado_186" data-name="Trazado 186" d="M103.465,341.671H93.1a.931.931,0,0,1,0-1.862h10.368a.931.931,0,0,1,0,1.862Z" transform="translate(-72.197 -299.029)" fill="#37bbed"/>
      </g>
    </g>
  </g>
</svg>
