<svg xmlns="http://www.w3.org/2000/svg" width="47.612" height="50" viewBox="0 0 47.612 50">
  <g id="pesos" transform="translate(-7.3 -7.3)">
    <path id="Trazado_1178" data-name="Trazado 1178" d="M31.494,29.912V19.519a21.063,21.063,0,0,1,5.618,2.388,3.74,3.74,0,0,0,1.685.421,2.954,2.954,0,0,0,1.4-5.618,18.9,18.9,0,0,0-8.427-2.949V9.688a2.388,2.388,0,1,0-4.775,0V13.62c-6.742.562-11.376,4.635-11.376,10.393,0,6.18,3.652,9.129,11.657,11.236V45.924a19.725,19.725,0,0,1-8.006-3.652,2.823,2.823,0,0,0-1.826-.562A2.88,2.88,0,0,0,14.5,44.66a3.4,3.4,0,0,0,1.4,2.669A22.884,22.884,0,0,0,27,51.542v3.371A2.461,2.461,0,0,0,29.388,57.3a2.367,2.367,0,0,0,2.388-2.388v-3.23c6.882-.7,11.657-4.635,11.657-10.674C43.292,35.249,39.781,31.879,31.494,29.912ZM27.14,28.789c-4.213-1.4-5.2-2.809-5.2-5.056,0-2.388,1.685-4.213,5.2-4.635ZM31.494,46.2V36.233c4.213,1.264,5.337,2.809,5.337,5.2C36.831,44.1,35.006,45.783,31.494,46.2Z" transform="translate(2.912)" fill="#37bbed"/>
    <path id="Trazado_1179" data-name="Trazado 1179" d="M11.373,19.645h-.7v-.7a.81.81,0,0,0-.843-.843.906.906,0,0,0-.843.843v.7H8.143a.843.843,0,0,0,0,1.685h.7v.7a.81.81,0,0,0,.843.843.906.906,0,0,0,.843-.843v-.7h.7a.81.81,0,0,0,.843-.843A.7.7,0,0,0,11.373,19.645Z" transform="translate(0 4.369)" fill="#37bbed"/>
    <path id="Trazado_1180" data-name="Trazado 1180" d="M41.733,9.745h-.7v-.7a.843.843,0,1,0-1.685,0v.7h-.7a.81.81,0,0,0-.843.843.906.906,0,0,0,.843.843h.7v.7a.843.843,0,1,0,1.685,0v-.7h.7a.843.843,0,0,0,0-1.685Z" transform="translate(12.337 0.364)" fill="#37bbed"/>
    <path id="Trazado_1181" data-name="Trazado 1181" d="M11.783,7.8a.983.983,0,1,0,.983.983C12.907,8.221,12.345,7.8,11.783,7.8Z" transform="translate(1.416 0.202)" fill="#37bbed"/>
    <circle id="Elipse_23" data-name="Elipse 23" cx="0.983" cy="0.983" r="0.983" transform="translate(50.558 37.778)" fill="#37bbed"/>
  </g>
</svg>
