<svg xmlns="http://www.w3.org/2000/svg" width="52.445" height="50" viewBox="0 0 52.445 50">
  <g id="Grupo_863" data-name="Grupo 863" transform="translate(-83.137 -412.646)">
    <g id="Grupo_127" data-name="Grupo 127" transform="translate(83.137 412.646)">
      <g id="Grupo_126" data-name="Grupo 126">
        <path id="Trazado_202" data-name="Trazado 202" d="M104.717,413.608l-1.406-.558a5.491,5.491,0,0,0,0-.9l1.406-.583a.167.167,0,0,0,.106-.21l-.011-.029-1.013-2.307a.188.188,0,0,0-.237-.106l-1.356.57a4.73,4.73,0,0,0-.644-.631l.583-1.4a.188.188,0,0,0-.106-.237l-2.321-.954a.192.192,0,0,0-.237.109l-.583,1.392a5.493,5.493,0,0,0-.9,0l-.583-1.392a.177.177,0,0,0-.233-.1l-.007,0-2.319.951a.192.192,0,0,0-.109.237l.583,1.392a5.471,5.471,0,0,0-.631.644l-1.415-.572a.166.166,0,0,0-.226.065l-.014.03-.952,2.307a.18.18,0,0,0,.09.237l0,0,1.406.57a5.506,5.506,0,0,0,0,.906l-1.406.583a.165.165,0,0,0-.106.208l.011.029,1,2.308a.134.134,0,0,0,.1.095.145.145,0,0,0,.142,0l1.4-.57a4.832,4.832,0,0,0,.642.631l-.583,1.4a.191.191,0,0,0,.108.237l2.38.954a.192.192,0,0,0,.237-.109l.583-1.392a5.467,5.467,0,0,0,.9,0l.583,1.392a.163.163,0,0,0,.109.095.145.145,0,0,0,.142,0l2.308-.951a.192.192,0,0,0,.108-.237l-.583-1.406a4.5,4.5,0,0,0,.631-.631l1.415.572a.166.166,0,0,0,.226-.065l.014-.029.963-2.308a.19.19,0,0,0-.136-.233A.168.168,0,0,0,104.717,413.608Zm-7.332,1.548a2.761,2.761,0,0,1-1.51-3.571,2.794,2.794,0,0,1,3.641-1.51,2.746,2.746,0,0,1,1.51,3.569A2.8,2.8,0,0,1,97.385,415.157Z" transform="translate(-71.881 -402.632)" fill="#37bbed"/>
        <path id="Trazado_203" data-name="Trazado 203" d="M95.978,409.113l-.524-.488a1.539,1.539,0,0,0,.156-.391H96.3a.1.1,0,0,0,.084-.1v-1.189a.087.087,0,0,0-.084-.072h-.714a3.541,3.541,0,0,0-.167-.38l.488-.524v-.117l-.857-.8a.083.083,0,0,0-.118,0v0l-.513.488a1.874,1.874,0,0,0-.393-.145v-.712a.089.089,0,0,0-.106-.036H92.727a.1.1,0,0,0-.095.084l.095.809a1.561,1.561,0,0,0-.38.165l-.524-.486a.082.082,0,0,0-.118,0v0l-.809.843a.093.093,0,0,0,0,.131l.522.477a1.683,1.683,0,0,0-.154.4h-.714a.083.083,0,0,0-.084.084v1.189h.773a2.124,2.124,0,0,0,.167.382l-.488.511a.1.1,0,0,0,0,.12l.857.809a.1.1,0,0,0,.12,0l.5-.525a1.441,1.441,0,0,0,.393.156v.7a.1.1,0,0,0,0,.072h1.189s.095,0,.084-.084v-.714a2.133,2.133,0,0,0,.382-.167l.522.488a.092.092,0,0,0,.12,0l.809-.845a.081.081,0,0,0,.108-.043A.083.083,0,0,0,95.978,409.113Zm-3.463-.547a1.285,1.285,0,0,1-.016-1.817l.016-.016a1.31,1.31,0,0,1,1.844,0,1.283,1.283,0,0,1,.014,1.817l-.014.016A1.322,1.322,0,0,1,92.515,408.566Z" transform="translate(-73.9 -404.646)" fill="#37bbed"/>
        <path id="Trazado_204" data-name="Trazado 204" d="M105.074,420.419h-.061a.9.9,0,0,0-.868.095,6.346,6.346,0,0,1-3.4,1.071,6.629,6.629,0,0,1-3.451-1.107.9.9,0,0,0-.879,0c-5.047,2.5-7.142,9.213-6.7,10.533a.961.961,0,0,0,.31.4,20.429,20.429,0,0,0,10.711,3.44,19.223,19.223,0,0,0,10.711-3.463,1.087,1.087,0,0,0,.285-.418C112.214,429.63,110.119,422.919,105.074,420.419Zm-.382,1.643a7.556,7.556,0,0,1,1.334.927l-2.012,2.525L102,423.061A8.247,8.247,0,0,0,104.692,422.062Zm-2.308,3.259-1.607,1.964v0l-1.607-1.964,1.643-2Zm-5.594-3.259a8.637,8.637,0,0,0,2.7,1l-2.012,2.452-2.023-2.525A9.7,9.7,0,0,1,96.79,422.062Zm-5.522,8.187a13.551,13.551,0,0,1,3.368-6.415l2.38,2.988a.672.672,0,0,0,.441.215.581.581,0,0,0,.441-.2l.452-.558,1.189,1.463-2.975,4.869A17.284,17.284,0,0,1,91.268,430.249Zm9.52,2.916a15.531,15.531,0,0,1-2.963-.346l2.963-4.855,2.988,4.891a16.117,16.117,0,0,1-3.036.31Zm4.166-.572-3-4.9,1.191-1.462.452.558a.578.578,0,0,0,.441.2h0a.555.555,0,0,0,.439-.215l2.369-2.941a13.75,13.75,0,0,1,3.368,6.476,16.405,16.405,0,0,1-5.307,2.283Z" transform="translate(-74.928 -384.855)" fill="#37bbed"/>
        <path id="Trazado_205" data-name="Trazado 205" d="M98.811,429.638c4.238,0,7.64-5.106,7.64-9.341a7.64,7.64,0,0,0-15.268,0C91.183,424.533,94.587,429.638,98.811,429.638Zm6.01-9.341v.368c-1.691-.619-2.38-3.747-2.606-5.318A5.947,5.947,0,0,1,104.821,420.3Zm-12.009,0a5.9,5.9,0,0,1,8.022-5.617,8.5,8.5,0,0,1-4.141,5.508,5.567,5.567,0,0,1-3.9.644A2.658,2.658,0,0,0,92.813,420.3Zm.988,1.819a7.634,7.634,0,0,0,3.476-.868,9.357,9.357,0,0,0,4.071-4.38c.439,1.928,1.392,4.428,3.32,4.952-.655,3.033-3.108,6.189-5.832,6.189s-5.036-2.988-5.773-5.951A5.409,5.409,0,0,0,93.8,422.116Z" transform="translate(-72.998 -394.17)" fill="#37bbed"/>
        <path id="Trazado_206" data-name="Trazado 206" d="M100.144,421.815l.084.3a1.974,1.974,0,0,1,.095.5h0a3.353,3.353,0,0,1-.393.689l-.106.156a.663.663,0,0,0,.1.784,4.407,4.407,0,0,0,2.226,1.191h.154a.666.666,0,0,0,.167-1.309,3.9,3.9,0,0,1-1.191-.513,3.709,3.709,0,0,0,.357-.667v-.332a3.541,3.541,0,0,0-.131-.857l-.095-.31a1.759,1.759,0,0,0-.095-.368v-.109a5.209,5.209,0,0,1-.477-2.177,5.142,5.142,0,1,1,9.771,2.249l-.2.689a2.923,2.923,0,0,0-.142.882,1.271,1.271,0,0,0,0,.321v.1a4.447,4.447,0,0,0,.344.678,3.024,3.024,0,0,1-.879.418.666.666,0,0,0,.391,1.273,3.974,3.974,0,0,0,1.844-1.107.672.672,0,0,0,.084-.784l-.095-.167c-.084-.131-.321-.524-.393-.678h0a1.7,1.7,0,0,1,.084-.5c.061-.226.131-.452.167-.594a6.476,6.476,0,1,0-12.352-2.726,6.793,6.793,0,0,0,.558,2.665A.733.733,0,0,1,100.144,421.815Z" transform="translate(-62.573 -394.915)" fill="#37bbed"/>
        <path id="Trazado_207" data-name="Trazado 207" d="M110.5,418.59a.764.764,0,0,0-.726.084,5.233,5.233,0,0,1-2.785.882,5.521,5.521,0,0,1-2.832-.906.665.665,0,0,0-.678-.059h0a10.878,10.878,0,0,0-4.832,5.558,14.746,14.746,0,0,1,.963,1.191,11.736,11.736,0,0,1,2.4-3.965l2.38,2.522a.414.414,0,0,0,.332.156h0a.479.479,0,0,0,.31-.3l1.917-2.76,1.951,2.76a.468.468,0,0,0,.346.2h0a.441.441,0,0,0,.346-.156l2.38-2.522a11.246,11.246,0,0,1,2.807,5.343,14.355,14.355,0,0,1-7.771,2.38,15.816,15.816,0,0,1-6.08-1.451,14.779,14.779,0,0,1,.726,1.725,16.823,16.823,0,0,0,5.355,1.06,15.711,15.711,0,0,0,8.736-2.762.688.688,0,0,0,.237-.344C116.387,426.135,114.674,420.66,110.5,418.59Zm-5.868,4.2-1.975-2.106a9,9,0,0,1,1.049-.726,6.849,6.849,0,0,0,2.272.832Zm4.76,0-1.379-1.989a6.764,6.764,0,0,0,2.272-.843,6.423,6.423,0,0,1,1.049.726Z" transform="translate(-63.595 -387.156)" fill="#37bbed"/>
        <path id="Trazado_208" data-name="Trazado 208" d="M106.795,414.28a.433.433,0,0,0-.452-.226.443.443,0,0,0-.371.346c-.583,2.606-2.308,2.762-3.7,2.88-.809.073-1.738.142-1.738,1.049,0,2.249,1.822,4.961,4.071,4.961s4.057-2.712,4.057-4.961A17.68,17.68,0,0,0,106.795,414.28ZM104.6,422.4c-1.679,0-3.178-2.271-3.189-4.068a3.017,3.017,0,0,1,.94-.156,4.306,4.306,0,0,0,4.163-2.547,14.939,14.939,0,0,1,1.191,2.7C107.769,420.125,106.282,422.4,104.6,422.4Z" transform="translate(-61.213 -392.796)" fill="#37bbed"/>
        <path id="Trazado_209" data-name="Trazado 209" d="M99.383,424.665a13.4,13.4,0,0,1,.976-1.083,10.619,10.619,0,0,0-4.582-4.986h0a.729.729,0,0,0-.714.084,5.236,5.236,0,0,1-2.785.879,5.44,5.44,0,0,1-2.821-.9.778.778,0,0,0-.739,0c-4.188,1.987-5.9,7.461-5.533,8.58a.751.751,0,0,0,.251.335,16.788,16.788,0,0,0,8.795,2.819,15.322,15.322,0,0,0,4.437-.712,14.673,14.673,0,0,1,.631-1.621,14.811,14.811,0,0,1-4.211.954l2.38-4.76a.478.478,0,0,0-.192-.608l-.94-.547,1.975-2.583A10.723,10.723,0,0,1,99.383,424.665Zm-14.925,2a10.952,10.952,0,0,1,3.738-6.175l1.975,2.57-.94.547a.466.466,0,0,0-.192.608l2.321,4.76A15.6,15.6,0,0,1,84.459,426.663Zm7.319,1.049-1.713-3.524,1.035-.594a.475.475,0,0,0,.215-.31.436.436,0,0,0-.059-.38l-2.3-2.941h0a7,7,0,0,0,2.76.87C91.766,422.952,91.777,426.01,91.777,427.712Zm1.442-4.76a.524.524,0,0,0-.084.38.448.448,0,0,0,.226.31l1.024.594-1.679,3.571v-6.926a6.542,6.542,0,0,0,2.785-.906h0Z" transform="translate(-83.137 -387.137)" fill="#37bbed"/>
        <path id="Trazado_210" data-name="Trazado 210" d="M85.706,422.18c.488.976,2.213,3.879,5.3,3.879s4.76-2.916,5.3-3.879a2.551,2.551,0,0,0,1.345-1.786,3.211,3.211,0,0,0-.24-2.891,2.882,2.882,0,0,0-.427-.418,6.164,6.164,0,0,0-11.9,0,1.886,1.886,0,0,0-.466.452,3.146,3.146,0,0,0-.249,2.882A2.464,2.464,0,0,0,85.706,422.18Zm0-3.809a.5.5,0,0,1,.38-.226h0a.119.119,0,0,0,.142-.093v-.014a4.76,4.76,0,0,1,9.378,0,.155.155,0,0,0,.167.118.526.526,0,0,1,.393.215c.154.215.285.667,0,1.63-.131.452-.393.988-.82.87a.13.13,0,0,0-.167.081v0c-.714,1.819-2.321,3.664-4.272,3.664s-3.571-1.856-4.274-3.689a.141.141,0,0,0-.129-.084h0c-.429.156-.7-.4-.834-.857-.226-.963-.095-1.417.059-1.618Z" transform="translate(-81.896 -394.709)" fill="#37bbed"/>
      </g>
    </g>
  </g>
</svg>
