<svg xmlns="http://www.w3.org/2000/svg" width="33.565" height="32" viewBox="0 0 33.565 32">
  <g id="Grupo_1174" data-name="Grupo 1174" transform="translate(-83.137 -412.646)">
    <g id="Grupo_127" data-name="Grupo 127" transform="translate(83.137 412.646)">
      <g id="Grupo_126" data-name="Grupo 126">
        <path id="Trazado_202" data-name="Trazado 202" d="M100.164,410.957l-.9-.357a3.515,3.515,0,0,0,0-.579l.9-.373a.107.107,0,0,0,.068-.135l-.007-.019-.648-1.477a.121.121,0,0,0-.152-.068l-.868.365a3.022,3.022,0,0,0-.412-.4l.373-.9a.12.12,0,0,0-.068-.152l-1.486-.611a.123.123,0,0,0-.152.069l-.373.891a3.522,3.522,0,0,0-.579,0l-.373-.891a.113.113,0,0,0-.149-.062h0l-1.484.609a.123.123,0,0,0-.069.152l.373.891a3.5,3.5,0,0,0-.4.412l-.906-.366A.106.106,0,0,0,92.7,408l-.009.019-.609,1.477a.115.115,0,0,0,.058.152h0l.9.365a3.523,3.523,0,0,0,0,.58l-.9.373a.106.106,0,0,0-.068.133l.007.019.639,1.477a.085.085,0,0,0,.062.061.093.093,0,0,0,.091,0l.9-.365a3.092,3.092,0,0,0,.411.4l-.373.9a.122.122,0,0,0,.069.152l1.523.611a.123.123,0,0,0,.152-.069l.373-.891a3.5,3.5,0,0,0,.579,0l.373.891a.1.1,0,0,0,.069.061.093.093,0,0,0,.091,0l1.477-.609a.123.123,0,0,0,.069-.152l-.373-.9a2.88,2.88,0,0,0,.4-.4l.906.366a.106.106,0,0,0,.145-.042l.009-.019.616-1.477a.122.122,0,0,0-.087-.149A.108.108,0,0,0,100.164,410.957Zm-4.693.991a1.767,1.767,0,0,1-.966-2.286,1.788,1.788,0,0,1,2.33-.966,1.757,1.757,0,0,1,.966,2.284A1.79,1.79,0,0,1,95.471,411.948Z" transform="translate(-79.149 -403.932)" fill="#333"/>
        <path id="Trazado_203" data-name="Trazado 203" d="M93.994,407.5l-.336-.312a.986.986,0,0,0,.1-.25H94.2a.063.063,0,0,0,.053-.062v-.761a.055.055,0,0,0-.053-.046h-.457a2.263,2.263,0,0,0-.107-.243l.312-.336v-.075l-.548-.51a.053.053,0,0,0-.075,0v0l-.328.312a1.2,1.2,0,0,0-.252-.093v-.456a.057.057,0,0,0-.068-.023h-.762a.061.061,0,0,0-.061.054l.061.518a1,1,0,0,0-.243.106l-.336-.311a.053.053,0,0,0-.075,0h0l-.518.54a.059.059,0,0,0,0,.084l.334.305a1.077,1.077,0,0,0-.1.259h-.457a.053.053,0,0,0-.054.054v.761h.495a1.36,1.36,0,0,0,.107.244l-.312.327a.063.063,0,0,0,0,.077l.548.518a.063.063,0,0,0,.077,0l.32-.336a.92.92,0,0,0,.252.1v.448a.064.064,0,0,0,0,.046h.761s.061,0,.054-.053v-.457a1.356,1.356,0,0,0,.244-.107l.334.313a.059.059,0,0,0,.077,0l.518-.541a.052.052,0,0,0,.069-.028A.053.053,0,0,0,93.994,407.5Zm-2.216-.35a.823.823,0,0,1-.01-1.163l.01-.01a.838.838,0,0,1,1.18,0,.821.821,0,0,1,.009,1.163l-.009.01A.846.846,0,0,1,91.778,407.155Z" transform="translate(-79.864 -404.646)" fill="#333"/>
        <path id="Trazado_204" data-name="Trazado 204" d="M99.522,420.394h-.039a.578.578,0,0,0-.555.061,4.061,4.061,0,0,1-2.179.686,4.242,4.242,0,0,1-2.209-.709.574.574,0,0,0-.563,0c-3.23,1.6-4.571,5.9-4.289,6.741a.615.615,0,0,0,.2.259,13.075,13.075,0,0,0,6.855,2.2,12.3,12.3,0,0,0,6.855-2.216.7.7,0,0,0,.182-.268C104.092,426.289,102.751,421.994,99.522,420.394Zm-.244,1.052a4.835,4.835,0,0,1,.853.593l-1.287,1.616-1.287-1.569A5.278,5.278,0,0,0,99.278,421.445ZM97.8,423.531l-1.029,1.257v0l-1.029-1.257,1.052-1.279Zm-3.58-2.086a5.528,5.528,0,0,0,1.729.639l-1.287,1.569-1.295-1.616A6.2,6.2,0,0,1,94.22,421.445Zm-3.534,5.24a8.672,8.672,0,0,1,2.155-4.105l1.523,1.912a.43.43,0,0,0,.282.137.372.372,0,0,0,.282-.13l.289-.357.761.936-1.9,3.116A11.063,11.063,0,0,1,90.686,426.685Zm6.093,1.866a9.942,9.942,0,0,1-1.9-.221l1.9-3.107,1.912,3.13a10.319,10.319,0,0,1-1.943.2Zm2.666-.366-1.92-3.138.762-.936.289.357a.37.37,0,0,0,.282.13h0a.356.356,0,0,0,.281-.137l1.516-1.882a8.8,8.8,0,0,1,2.155,4.144,10.5,10.5,0,0,1-3.4,1.461Z" transform="translate(-80.228 -397.633)" fill="#333"/>
        <path id="Trazado_205" data-name="Trazado 205" d="M96.065,423.634c2.712,0,4.889-3.268,4.889-5.979a4.89,4.89,0,0,0-9.772,0C91.183,420.366,93.362,423.634,96.065,423.634Zm3.846-5.979v.236c-1.082-.4-1.523-2.4-1.668-3.4A3.806,3.806,0,0,1,99.912,417.655Zm-7.686,0a3.778,3.778,0,0,1,5.134-3.595,5.441,5.441,0,0,1-2.65,3.525,3.563,3.563,0,0,1-2.5.412A1.7,1.7,0,0,0,92.226,417.655Zm.632,1.164a4.886,4.886,0,0,0,2.225-.556,5.989,5.989,0,0,0,2.605-2.8c.281,1.234.891,2.834,2.125,3.169-.42,1.941-1.989,3.961-3.732,3.961s-3.223-1.912-3.695-3.809A3.458,3.458,0,0,0,92.858,418.82Z" transform="translate(-79.545 -400.934)" fill="#333"/>
        <path id="Trazado_206" data-name="Trazado 206" d="M99.9,418.414l.053.191a1.264,1.264,0,0,1,.061.32h0a2.145,2.145,0,0,1-.252.441l-.068.1a.424.424,0,0,0,.061.5,2.82,2.82,0,0,0,1.425.762h.1a.426.426,0,0,0,.107-.838,2.5,2.5,0,0,1-.762-.328,2.376,2.376,0,0,0,.229-.427v-.213a2.268,2.268,0,0,0-.084-.548l-.061-.2a1.126,1.126,0,0,0-.061-.236v-.07a3.334,3.334,0,0,1-.305-1.393,3.291,3.291,0,1,1,6.254,1.439l-.129.441a1.871,1.871,0,0,0-.091.564.813.813,0,0,0,0,.205v.061a2.846,2.846,0,0,0,.22.434,1.935,1.935,0,0,1-.563.268.426.426,0,0,0,.25.814,2.544,2.544,0,0,0,1.18-.709.43.43,0,0,0,.054-.5l-.061-.107c-.054-.084-.205-.336-.252-.434h0a1.089,1.089,0,0,1,.054-.32c.039-.145.084-.289.107-.38a4.145,4.145,0,1,0-7.906-1.745,4.348,4.348,0,0,0,.357,1.706A.469.469,0,0,1,99.9,418.414Z" transform="translate(-75.851 -401.198)" fill="#333"/>
        <path id="Trazado_207" data-name="Trazado 207" d="M106.23,418.566a.489.489,0,0,0-.464.054,3.35,3.35,0,0,1-1.782.564,3.534,3.534,0,0,1-1.813-.58.426.426,0,0,0-.434-.038h0a6.962,6.962,0,0,0-3.093,3.557,9.436,9.436,0,0,1,.616.762,7.512,7.512,0,0,1,1.539-2.537l1.523,1.614a.265.265,0,0,0,.213.1h0a.307.307,0,0,0,.2-.191l1.227-1.766,1.248,1.766a.3.3,0,0,0,.221.13h0a.282.282,0,0,0,.221-.1l1.523-1.614a7.2,7.2,0,0,1,1.8,3.42A9.187,9.187,0,0,1,104,425.231a10.124,10.124,0,0,1-3.891-.929,9.462,9.462,0,0,1,.464,1.1,10.767,10.767,0,0,0,3.427.678,10.055,10.055,0,0,0,5.591-1.768.44.44,0,0,0,.152-.22C110,423.395,108.9,419.891,106.23,418.566Zm-3.755,2.689-1.264-1.348a5.767,5.767,0,0,1,.671-.464,4.384,4.384,0,0,0,1.454.532Zm3.046,0-.882-1.273a4.33,4.33,0,0,0,1.454-.54,4.112,4.112,0,0,1,.671.464Z" transform="translate(-76.213 -398.448)" fill="#333"/>
        <path id="Trazado_208" data-name="Trazado 208" d="M104.541,414.2a.277.277,0,0,0-.289-.145.283.283,0,0,0-.237.221,2.173,2.173,0,0,1-2.368,1.843c-.518.046-1.112.091-1.112.671,0,1.439,1.166,3.175,2.605,3.175s2.6-1.736,2.6-3.175A11.313,11.313,0,0,0,104.541,414.2Zm-1.4,5.195c-1.075,0-2.034-1.454-2.041-2.6a1.931,1.931,0,0,1,.6-.1,2.756,2.756,0,0,0,2.665-1.63,9.561,9.561,0,0,1,.762,1.73C105.165,417.938,104.213,419.391,103.139,419.391Z" transform="translate(-75.369 -400.447)" fill="#333"/>
        <path id="Trazado_209" data-name="Trazado 209" d="M93.535,422.459a8.584,8.584,0,0,1,.625-.693,6.8,6.8,0,0,0-2.932-3.191h0a.466.466,0,0,0-.457.054,3.35,3.35,0,0,1-1.782.563,3.482,3.482,0,0,1-1.805-.579.5.5,0,0,0-.473,0c-2.681,1.271-3.777,4.775-3.541,5.491a.481.481,0,0,0,.161.214,10.744,10.744,0,0,0,5.629,1.8,9.81,9.81,0,0,0,2.84-.456,9.391,9.391,0,0,1,.4-1.037,9.481,9.481,0,0,1-2.695.61l1.523-3.046a.306.306,0,0,0-.123-.389l-.6-.35,1.264-1.653A6.863,6.863,0,0,1,93.535,422.459Zm-9.552,1.279a7.009,7.009,0,0,1,2.393-3.952l1.264,1.645-.6.35a.3.3,0,0,0-.123.389l1.486,3.047A9.984,9.984,0,0,1,83.983,423.738Zm4.684.671-1.1-2.255.663-.38a.3.3,0,0,0,.137-.2.279.279,0,0,0-.038-.243l-1.47-1.882h0a4.48,4.48,0,0,0,1.766.557C88.66,421.363,88.667,423.32,88.667,424.41Zm.923-3.047a.335.335,0,0,0-.054.243.287.287,0,0,0,.145.2l.655.38-1.075,2.286v-4.432a4.187,4.187,0,0,0,1.782-.58h0Z" transform="translate(-83.137 -398.442)" fill="#333"/>
        <path id="Trazado_210" data-name="Trazado 210" d="M85.136,418.707c.312.625,1.416,2.482,3.389,2.482s3.046-1.866,3.389-2.482a1.633,1.633,0,0,0,.861-1.143,2.055,2.055,0,0,0-.153-1.85,1.846,1.846,0,0,0-.273-.268,3.945,3.945,0,0,0-7.616,0,1.206,1.206,0,0,0-.3.289,2.013,2.013,0,0,0-.159,1.844A1.577,1.577,0,0,0,85.136,418.707Zm0-2.437a.317.317,0,0,1,.243-.145h0a.076.076,0,0,0,.091-.059v-.009a3.046,3.046,0,0,1,6,0,.1.1,0,0,0,.107.075.336.336,0,0,1,.252.137c.1.138.182.427,0,1.043-.084.289-.252.632-.525.557a.083.083,0,0,0-.107.052h0c-.457,1.164-1.486,2.345-2.734,2.345s-2.286-1.188-2.735-2.361a.09.09,0,0,0-.082-.054h0c-.275.1-.45-.259-.534-.548-.145-.616-.061-.907.038-1.036Z" transform="translate(-82.698 -401.125)" fill="#333"/>
      </g>
    </g>
  </g>
</svg>
