<svg xmlns="http://www.w3.org/2000/svg" width="16" height="10.909" viewBox="0 0 16 10.909">
  <g id="visibility_black_24dp_1_" data-name="visibility_black_24dp (1)" transform="translate(3 0.455)">
    <path id="Trazado_1159" data-name="Trazado 1159" d="M0,0H10V10H0Z" fill="none"/>
    <path id="Trazado_1160" data-name="Trazado 1160" d="M9,5.455a7.106,7.106,0,0,1,6.415,4,7.143,7.143,0,0,1-12.829,0A7.106,7.106,0,0,1,9,5.455M9,4A8.6,8.6,0,0,0,1,9.455a8.594,8.594,0,0,0,16,0A8.6,8.6,0,0,0,9,4ZM9,7.636A1.818,1.818,0,1,1,7.182,9.455,1.819,1.819,0,0,1,9,7.636M9,6.182a3.273,3.273,0,1,0,3.273,3.273A3.278,3.278,0,0,0,9,6.182Z" transform="translate(-4 -4.455)" fill="#37bbed"/>
  </g>
</svg>
