<svg xmlns="http://www.w3.org/2000/svg" width="37.813" height="60" viewBox="0 0 37.813 60">
  <g id="Grupo_921" data-name="Grupo 921" transform="translate(-106.268 -75.604)">
    <path id="Trazado_101" data-name="Trazado 101" d="M123.186,98.976h-3.351a1.635,1.635,0,0,1-1.339-.557,1.675,1.675,0,0,1-.351-.825.357.357,0,0,1-.012-.075,3.151,3.151,0,0,1,.051-1.011,10.512,10.512,0,0,1,2.036-4.574,1.126,1.126,0,0,1-.231-.1,1.29,1.29,0,0,1-.585-1.391,3.622,3.622,0,0,1,.936-1.59,4.379,4.379,0,0,1,3.079-1.427,3.939,3.939,0,0,1,3.728,2.252,20.717,20.717,0,0,1,2.075,7.043l.014.089a2.044,2.044,0,0,1-.033.829.358.358,0,0,1-.023.074,1.529,1.529,0,0,1-.338.591,2.211,2.211,0,0,1-1.318.629,3.827,3.827,0,0,1-.591.047c-.067,0-.112,0-.137,0H124.19v4.737H139.14a26.143,26.143,0,0,0-1.223-7.993,21.7,21.7,0,0,0-3.33-6.509,15.983,15.983,0,0,0-4.916-4.369,12.035,12.035,0,0,0-11.968,0,15.957,15.957,0,0,0-4.914,4.369,21.665,21.665,0,0,0-3.33,6.509,26.09,26.09,0,0,0-1.223,7.993h14.949Z" transform="translate(1.481 5.753)" fill="#72b9ea"/>
    <path id="Trazado_102" data-name="Trazado 102" d="M108.237,94.926a26.509,26.509,0,0,0,.706,6.135c6.686-.761,10.676-1.547,11.861-2.34a3.778,3.778,0,0,1,2.382-.9V94.926Z" transform="translate(1.481 14.54)" fill="#fff"/>
    <path id="Trazado_103" data-name="Trazado 103" d="M117.34,97.935a5.457,5.457,0,0,1,1.526.515l.151-.005a6.558,6.558,0,0,1,2.592.587c.275.1.587.212.931.328a43.865,43.865,0,0,0,9.024,1.788,26.464,26.464,0,0,0,.727-6.221H117.34Z" transform="translate(8.331 14.54)" fill="#fff"/>
    <path id="Trazado_104" data-name="Trazado 104" d="M116.489,81.759h0Z" transform="translate(7.691 4.632)" fill="#262324"/>
    <path id="Trazado_105" data-name="Trazado 105" d="M114.711,82.021h0" transform="translate(6.353 4.829)" fill="#262324"/>
    <path id="Trazado_106" data-name="Trazado 106" d="M128.916,100.37a1.31,1.31,0,0,1-.275.386,1.482,1.482,0,0,1-1,.391,1.606,1.606,0,0,1-.249.393,1.56,1.56,0,0,1-1.309.51,1.646,1.646,0,0,1-.266.356,1.381,1.381,0,0,1-1.271.386,2.026,2.026,0,0,1-.515.3,2.1,2.1,0,0,1-1.2.1v3.966a.5.5,0,0,1-1,0v-3.8a1.878,1.878,0,0,1-.647.124,1.334,1.334,0,0,1-.263-.025,1.223,1.223,0,0,1-.71-.433,1.945,1.945,0,0,1-1.337-.193,1,1,0,0,1-.373-.47,2.451,2.451,0,0,1-.473-.1,1.319,1.319,0,0,1-.878-.738,2.932,2.932,0,0,1-.345-.032,1.253,1.253,0,0,1-1.015-.634.994.994,0,0,1-.079-.277c-2.129,1.1-4.562,2.192-5.654,2.674a19.722,19.722,0,0,0,1.377,2.075,15.977,15.977,0,0,0,4.914,4.369,12.788,12.788,0,0,0,2.643,1.113,1.15,1.15,0,0,1,.391-.426c.859-.559,2.489-.152,2.949-.021.461-.131,2.092-.538,2.951.021a1.179,1.179,0,0,1,.391.426,12.707,12.707,0,0,0,2.644-1.113,15.958,15.958,0,0,0,4.914-4.369,19.688,19.688,0,0,0,1.3-1.945,27.305,27.305,0,0,1-5.61-3.014" transform="translate(2.845 18.636)" fill="#fff"/>
    <path id="Trazado_107" data-name="Trazado 107" d="M120.408,109.764a1.4,1.4,0,0,0,.044-.343,1.437,1.437,0,0,0-.037-.315,3.165,3.165,0,0,0,1.774-.9,1.46,1.46,0,0,0,.326-1.127,1.166,1.166,0,0,0-.527-.875c-.859-.561-2.49-.152-2.951-.019-.461-.133-2.091-.542-2.949.019a1.167,1.167,0,0,0-.529.875,1.461,1.461,0,0,0,.328,1.127,3.171,3.171,0,0,0,1.784.9,1.339,1.339,0,0,0,.005.645,5.7,5.7,0,0,1-3.256,1.586v0a2.471,2.471,0,0,0,.5.6A6.375,6.375,0,0,0,118,110.365a1.266,1.266,0,0,0,.158.149,2.941,2.941,0,0,1-2.411,1.958,4.113,4.113,0,0,0,1.113.319,3.294,3.294,0,0,0,1.907-1.989,1.314,1.314,0,0,0,.277.026,1.35,1.35,0,0,0,.268-.025,3.3,3.3,0,0,0,1.9,1.987,4.094,4.094,0,0,0,1.113-.319,2.932,2.932,0,0,1-2.408-1.949,1.653,1.653,0,0,0,.161-.151,6.384,6.384,0,0,0,3.076,1.567,2.39,2.39,0,0,0,.5-.6,5.727,5.727,0,0,1-3.246-1.575" transform="translate(6.133 22.813)" fill="#72b9ea"/>
    <path id="Trazado_108" data-name="Trazado 108" d="M119.076,106.479a.494.494,0,0,1,.231.391.813.813,0,0,1-.179.631,1.943,1.943,0,0,1-.859.522,1.233,1.233,0,0,0,.065-.992,1.507,1.507,0,0,0-.533-.706,2.155,2.155,0,0,1,1.274.154" transform="translate(8.679 23.1)" fill="#fff"/>
    <path id="Trazado_109" data-name="Trazado 109" d="M116.37,107.141c.249-.669,1.183-.68,1.221-.678a1.939,1.939,0,0,1,.536.088,1,1,0,0,1,.685.591.849.849,0,0,1-.282.815,1.411,1.411,0,0,0-1.873.007.855.855,0,0,1-.287-.822" transform="translate(7.577 23.221)" fill="#fff"/>
    <path id="Trazado_110" data-name="Trazado 110" d="M116.488,108.025a1.924,1.924,0,0,1-.859-.522.8.8,0,0,1-.181-.631.5.5,0,0,1,.231-.393,1.6,1.6,0,0,1,.841-.177c.14,0,.286.009.431.023a1.53,1.53,0,0,0-.533.706,1.23,1.23,0,0,0,.068.994" transform="translate(6.903 23.1)" fill="#fff"/>
    <path id="Trazado_111" data-name="Trazado 111" d="M116.632,108.238a.744.744,0,1,1,.743.743.745.745,0,0,1-.743-.743" transform="translate(7.799 23.996)" fill="#fff"/>
    <path id="Trazado_112" data-name="Trazado 112" d="M120.8,110.027a6.368,6.368,0,0,1-3.077-1.567,1.478,1.478,0,0,1-.161.152,2.935,2.935,0,0,0,2.408,1.951,3.272,3.272,0,0,0,.831-.536" transform="translate(8.495 24.724)" fill="#fff"/>
    <path id="Trazado_113" data-name="Trazado 113" d="M117.785,108.457a6.361,6.361,0,0,1-3.083,1.572,3.193,3.193,0,0,0,.831.535,2.937,2.937,0,0,0,2.41-1.958,1.4,1.4,0,0,1-.158-.149" transform="translate(6.346 24.722)" fill="#fff"/>
    <path id="Trazado_114" data-name="Trazado 114" d="M143.876,113.447a.324.324,0,0,0-.112-.286.317.317,0,0,0-.223-.074c.065-.135.123-.275.177-.421a6.477,6.477,0,0,0,.363-2.175.317.317,0,0,0-.142-.27.326.326,0,0,0-.219-.053q.071-.2.126-.41a6.531,6.531,0,0,0,.147-2.2.32.32,0,0,0-.4-.282c.04-.158.075-.321.1-.485a6.563,6.563,0,0,0-.068-2.2.323.323,0,0,0-.193-.237.316.316,0,0,0-.17-.021c.021-.114.037-.228.049-.34a6.531,6.531,0,0,0-.174-2.2.319.319,0,0,0-.2-.228.325.325,0,0,0-.3.044v0a4.914,4.914,0,0,0,.012-.535,6.48,6.48,0,0,0-.473-2.156.323.323,0,0,0-.231-.2.315.315,0,0,0-.247.049c-.005-.163-.019-.328-.04-.492a6.532,6.532,0,0,0-.7-2.1.321.321,0,0,0-.251-.172.326.326,0,0,0-.24.074,4.179,4.179,0,0,0-.095-.454,6.555,6.555,0,0,0-.936-2,.328.328,0,0,0-.27-.142.318.318,0,0,0-.261.138,4.452,4.452,0,0,0-.2-.526,6.557,6.557,0,0,0-1.248-1.828.322.322,0,0,0-.3-.095.33.33,0,0,0-.193.128,5.031,5.031,0,0,0-.289-.517,6.53,6.53,0,0,0-1.493-1.591.326.326,0,0,0-.3-.049.317.317,0,0,0-.186.163,3.691,3.691,0,0,0-1.756-1.244c.131.012.265.025.4.033a4.813,4.813,0,0,0,1.54-.142.406.406,0,0,0-.1-.794,3.427,3.427,0,0,1-1.795-.5c-.089-.047-.179-.1-.275-.145L135,86.177a.406.406,0,0,0,0-.8l-2.259-.324c.261-.068.566-.158.88-.266a4.74,4.74,0,0,0,1.367-.722.405.405,0,0,0-.394-.694,3.434,3.434,0,0,1-1.849.228c-.1-.009-.2-.019-.307-.028l1.968-1.181a.405.405,0,0,0-.308-.74l-2.217.564c.216-.166.464-.368.713-.589a4.84,4.84,0,0,0,.988-1.19.406.406,0,0,0-.633-.491,3.438,3.438,0,0,1-1.619.92c-.095.028-.189.056-.291.089l1.365-1.84a.406.406,0,0,0-.57-.566l-1.838,1.374c.137-.238.291-.52.438-.824a4.8,4.8,0,0,0,.456-1.477.407.407,0,0,0-.773-.21,3.42,3.42,0,0,1-1.143,1.47c-.074.061-.151.123-.23.191l.557-2.217a.405.405,0,0,0-.741-.307l-1.179,1.979c.035-.272.07-.6.089-.934a4.7,4.7,0,0,0-.147-1.539.4.4,0,0,0-.792.1,3.448,3.448,0,0,1-.491,1.8c-.047.084-.091.168-.138.259l-.331-2.257a.406.406,0,0,0-.4-.347h0a.41.41,0,0,0-.4.349l-.317,2.247c-.068-.259-.156-.561-.263-.867a4.788,4.788,0,0,0-.72-1.369.406.406,0,0,0-.7.4A3.415,3.415,0,0,1,123,78.208c-.011.1-.021.2-.03.314l-1.19-1.977a.405.405,0,0,0-.74.312l.566,2.2c-.165-.212-.363-.457-.58-.7a4.736,4.736,0,0,0-1.19-.987.405.405,0,0,0-.491.631,3.438,3.438,0,0,1,.92,1.619c.028.1.056.195.089.3l-1.851-1.37a.408.408,0,0,0-.529.04.4.4,0,0,0-.035.529l1.37,1.83c-.235-.135-.513-.287-.811-.431a4.772,4.772,0,0,0-1.479-.457.406.406,0,0,0-.21.771,3.437,3.437,0,0,1,1.47,1.144c.061.075.124.154.193.235l-2.227-.559a.406.406,0,0,0-.3.743l1.973,1.172c-.27-.035-.589-.07-.924-.089a4.8,4.8,0,0,0-1.539.145.406.406,0,0,0,.1.794,3.419,3.419,0,0,1,1.8.492c.086.046.172.093.265.14l-2.268.333a.405.405,0,0,0,0,.8l2.284.331c-.265.072-.577.165-.9.275a4.787,4.787,0,0,0-1.367.724.409.409,0,0,0-.093.515.4.4,0,0,0,.489.179,3.877,3.877,0,0,1,1.2-.268,9.27,9.27,0,0,0-1.015.988c-.089.116-.175.235-.254.354a.31.31,0,0,0-.17-.135.322.322,0,0,0-.3.049,6.581,6.581,0,0,0-1.525,1.611,4.707,4.707,0,0,0-.287.508.316.316,0,0,0-.214-.14.32.32,0,0,0-.289.1,6.556,6.556,0,0,0-1.248,1.828,5.088,5.088,0,0,0-.188.5.326.326,0,0,0-.205-.088.32.32,0,0,0-.275.13,6.533,6.533,0,0,0-1.02,1.959,4.938,4.938,0,0,0-.124.512.322.322,0,0,0-.524.065,6.505,6.505,0,0,0-.713,2.087,4.442,4.442,0,0,0-.046.5.321.321,0,0,0-.273-.065.324.324,0,0,0-.23.2,6.48,6.48,0,0,0-.443,2.161,4.557,4.557,0,0,0,.016.491.311.311,0,0,0-.27-.025.318.318,0,0,0-.2.228,6.472,6.472,0,0,0-.172,2.2c.014.126.032.252.054.377a.3.3,0,0,0-.14.023.323.323,0,0,0-.193.237,6.563,6.563,0,0,0-.068,2.2,4.621,4.621,0,0,0,.107.5.373.373,0,0,0-.13.033.322.322,0,0,0-.177.249,6.53,6.53,0,0,0,.07,2.2c.033.142.07.284.114.422a.323.323,0,0,0-.361.314,6.507,6.507,0,0,0,.3,2.184,4.758,4.758,0,0,0,.219.54l-.04-.011a.322.322,0,0,0-.4.361,6.557,6.557,0,0,0,.68,2.1c.063.116.13.226.2.335a.3.3,0,0,0-.149.088.32.32,0,0,0-.081.294,6.518,6.518,0,0,0,.836,2.045c.088.135.18.265.279.387a.325.325,0,0,0-.219.126.32.32,0,0,0-.046.3,6.617,6.617,0,0,0,1.067,1.937c.095.114.195.224.3.328a.309.309,0,0,0-.186.145.321.321,0,0,0-.011.308,6.6,6.6,0,0,0,1.288,1.8q.155.15.321.284a.312.312,0,0,0-.163.161.315.315,0,0,0,.023.3,6.6,6.6,0,0,0,1.47,1.658,4.688,4.688,0,0,0,.5.342l-.068.021a.323.323,0,0,0-.205.23.319.319,0,0,0,.082.3,7.672,7.672,0,0,0,1.71,1.369,4.572,4.572,0,0,0,1.409.533,3.115,3.115,0,0,0,1.137.014.268.268,0,0,0,.065-.014,16.955,16.955,0,0,0,3.146,1.752,15.626,15.626,0,0,0,2.785.88c.2.042.384.077.563.109a2.5,2.5,0,0,1-1.069-.7,1.357,1.357,0,0,1-.126-.182,15.063,15.063,0,0,1-1.919-.662,16.3,16.3,0,0,1-3.009-1.674l.007-.035a3.183,3.183,0,0,0-.107-.974,14.306,14.306,0,0,0,1.98,1.388,13.418,13.418,0,0,0,2.837,1.181,1.4,1.4,0,0,1,.011-.168,1.22,1.22,0,0,1,.137-.449,12.788,12.788,0,0,1-2.643-1.113,15.935,15.935,0,0,1-4.914-4.369,19.723,19.723,0,0,1-1.377-2.075c1.092-.484,3.524-1.579,5.654-2.674a1.053,1.053,0,0,0,.077.277,1.258,1.258,0,0,0,1.016.634,2.928,2.928,0,0,0,.345.032,1.313,1.313,0,0,0,.878.736,2.456,2.456,0,0,0,.473.1,1.008,1.008,0,0,0,.373.468,1.945,1.945,0,0,0,1.337.193,1.219,1.219,0,0,0,.708.433,1.351,1.351,0,0,0,.265.025,1.919,1.919,0,0,0,.647-.124v3.8a.5.5,0,0,0,1,0v-3.966a2.094,2.094,0,0,0,1.2-.1,1.98,1.98,0,0,0,.517-.3,1.384,1.384,0,0,0,1.272-.386,1.692,1.692,0,0,0,.265-.356,1.519,1.519,0,0,0,1.558-.9,1.486,1.486,0,0,0,1-.389,1.307,1.307,0,0,0,.275-.387,27.2,27.2,0,0,0,5.61,3.013,19.513,19.513,0,0,1-1.3,1.947,15.96,15.96,0,0,1-4.916,4.369,12.615,12.615,0,0,1-2.643,1.113,1.22,1.22,0,0,1,.137.449c.007.058.009.114.011.17a13.44,13.44,0,0,0,2.839-1.183,14.41,14.41,0,0,0,2-1.4,3.1,3.1,0,0,0-.114.985.39.39,0,0,0,.005.047,13.432,13.432,0,0,1-2.208,1.341,14.5,14.5,0,0,1-2.636.988l-.112.028c-.035.053-.07.1-.11.154a2.523,2.523,0,0,1-1.094.708,14.21,14.21,0,0,0,1.483-.312,15.3,15.3,0,0,0,2.751-1.034,13.856,13.856,0,0,0,2.306-1.407l.049.018a3.077,3.077,0,0,0,1.144-.014,4.581,4.581,0,0,0,1.411-.533,7.672,7.672,0,0,0,1.71-1.369.32.32,0,0,0-.124-.526l-.049-.016a4.763,4.763,0,0,0,.51-.347,6.6,6.6,0,0,0,1.47-1.658.315.315,0,0,0,.023-.3.312.312,0,0,0-.163-.161c.109-.089.217-.184.321-.284a6.6,6.6,0,0,0,1.288-1.8.326.326,0,0,0-.009-.308.331.331,0,0,0-.231-.156c.11-.11.221-.23.324-.354a6.574,6.574,0,0,0,1.066-1.936.321.321,0,0,0-.289-.431h0c.093-.116.184-.24.268-.366a6.487,6.487,0,0,0,.869-2.031.322.322,0,0,0-.333-.4,4.97,4.97,0,0,0,.245-.435,6.522,6.522,0,0,0,.608-2.121m-.38-2.515.009.018a5.565,5.565,0,0,1-.3,1.5,3.771,3.771,0,0,1-.666,1.176,2.9,2.9,0,0,1-.8.662l-.007,0-.016-.007a3.5,3.5,0,0,1-.645-2.2,4.538,4.538,0,0,1,.088-.825l.012-.012.018.005a4.212,4.212,0,0,1,.617,1.134.24.24,0,0,0,.443.026,3.835,3.835,0,0,1,1.232-1.483l.019,0m-.061-2.874.018,0,.011.016a5.627,5.627,0,0,1-.152,1.526,3.749,3.749,0,0,1-.549,1.234,2.877,2.877,0,0,1-.729.736l-.005,0-.016-.005a4.272,4.272,0,0,1-.831-2.9l.011-.016.018.005a4.976,4.976,0,0,1,.706,1.023.239.239,0,0,0,.44-.025,3.813,3.813,0,0,1,1.08-1.593m-.31-2.921.016,0,.012.014a5.6,5.6,0,0,1,0,1.533,3.777,3.777,0,0,1-.424,1.283,2.86,2.86,0,0,1-.664.815l-.007,0-.014,0a4.39,4.39,0,0,1-1.078-2.8l.01-.018.018,0a5.1,5.1,0,0,1,.78.929.239.239,0,0,0,.435-.067,3.818,3.818,0,0,1,.92-1.695m-.459-2.774.016-.005.012.014a5.615,5.615,0,0,1,.07,1.533,3.748,3.748,0,0,1-.365,1.3,2.848,2.848,0,0,1-.613.836l-.007,0-.016,0a3.72,3.72,0,0,1-1.1-1.942,6.064,6.064,0,0,1-.142-.813.019.019,0,0,1,.011-.018l.018,0a5.191,5.191,0,0,1,.85.915.238.238,0,0,0,.431-.086,3.794,3.794,0,0,1,.839-1.735m-22.167.179c.005-.037.011-.074.019-.112a9.868,9.868,0,0,1,1.689-3.969,6.451,6.451,0,0,1,.992-1.081c.06-.044.121-.093.179-.142a.455.455,0,0,0-.554-.72c-.019.012-.088.063-.193.149-.424.3-.668.2-.731.165a.445.445,0,0,1-.158-.489,2.842,2.842,0,0,1,.71-1.139l.021-.026a3.555,3.555,0,0,1,2.448-1.129l.042,0a2.939,2.939,0,0,1,1.053.154,3.137,3.137,0,0,1,1.838,1.628,17.676,17.676,0,0,1,1.367,3.537,5.8,5.8,0,0,1-1.5-.843.455.455,0,0,0-.64.061.45.45,0,0,0-.1.333.455.455,0,0,0,.163.307,6.228,6.228,0,0,0,2.324,1.158c.089.419.17.855.251,1.369a6.538,6.538,0,0,0-1.255-.431,6.072,6.072,0,0,1-.7-.212,7.327,7.327,0,0,1-1.588-.917.455.455,0,1,0-.566.713,8.261,8.261,0,0,0,1.814,1.048,7.1,7.1,0,0,0,.813.249c1.08.286,1.57.5,1.593,1.043a.694.694,0,0,1-.137.223,1.96,1.96,0,0,1-1.365.4l-.032,0h-1.016a4.329,4.329,0,0,1-2.136-.624c-2.3-1.484-3.347-1.253-4.637-.694m3.922,1.318h-3.1a.811.811,0,0,1-.668-.238.71.71,0,0,1-.075-.117c1.3-.591,1.984-.8,3.847.356m1.251,5.606v-4.737h2.606c.025,0,.07,0,.137,0a3.828,3.828,0,0,0,.591-.047,2.212,2.212,0,0,0,1.318-.629,1.529,1.529,0,0,0,.338-.591.357.357,0,0,0,.023-.074,2.044,2.044,0,0,0,.033-.829l-.014-.089a20.748,20.748,0,0,0-2.073-7.043,3.943,3.943,0,0,0-3.729-2.252,4.379,4.379,0,0,0-3.079,1.427,3.622,3.622,0,0,0-.936,1.59,1.237,1.237,0,0,0,.817,1.493,10.513,10.513,0,0,0-2.038,4.572,3.152,3.152,0,0,0-.047,1.013.267.267,0,0,0,.011.074,1.69,1.69,0,0,0,.349.825,1.645,1.645,0,0,0,1.341.557h3.351v7.63a3.768,3.768,0,0,0-2.382.9c-1.185.792-5.175,1.577-11.861,2.34a26.5,26.5,0,0,1-.708-6.135,26.144,26.144,0,0,1,1.225-7.993,21.665,21.665,0,0,1,3.33-6.509,15.957,15.957,0,0,1,4.914-4.369,12.035,12.035,0,0,1,11.968,0,15.983,15.983,0,0,1,4.916,4.369,21.7,21.7,0,0,1,3.33,6.509,26.143,26.143,0,0,1,1.223,7.993,26.465,26.465,0,0,1-.727,6.221,43.923,43.923,0,0,1-9.025-1.788c-.34-.116-.654-.228-.929-.328a6.621,6.621,0,0,0-2.594-.587l-.147.005a5.488,5.488,0,0,0-1.528-.515Zm6.321-21.4a5.9,5.9,0,0,1-1.064.308,4.153,4.153,0,0,1-.782.077,2.528,2.528,0,0,1-1.493-.433L128.647,88l.007-.014a3.4,3.4,0,0,1,.88-.347A3.232,3.232,0,0,1,130.8,87.6a3.779,3.779,0,0,1,1.188.431l.009.016-.009.014m.584,1.647,0,.016-.01.012a2.688,2.688,0,0,1-.768.144c-.04,0-.077,0-.116,0a3.263,3.263,0,0,1-2.017-.757l-.005-.016.011-.014a3.578,3.578,0,0,1,.871-.163,2.459,2.459,0,0,1,2.031.775m-3.2-2.564a4.813,4.813,0,0,1-1.453.382.241.241,0,0,0-.107.436,4.9,4.9,0,0,1,.952.883l0,.019-.014.007h0a3.794,3.794,0,0,1-2.811-1.281l0-.023a2.226,2.226,0,0,1,.768-.47,4.372,4.372,0,0,1,2.66.016l.012.014-.009.016m-2.99-.489a4.116,4.116,0,0,1-1.363.662.24.24,0,0,0-.012.454,4.214,4.214,0,0,1,1.078.629.018.018,0,0,1-.011.032c-.166.014-.37.028-.594.028a3.986,3.986,0,0,1-2.392-.683.016.016,0,0,1,0-.023,2.258,2.258,0,0,1,.654-.61,4.4,4.4,0,0,1,2.636-.519.022.022,0,0,1,.016.012l-.007.018m-3.069.051a3.284,3.284,0,0,1-1.232.939.239.239,0,0,0,.063.45,5.194,5.194,0,0,1,1.19.4l.009.016a.014.014,0,0,1-.012.014,5.624,5.624,0,0,1-.79.2,4.781,4.781,0,0,1-.825.074,3.4,3.4,0,0,1-1.432-.293.015.015,0,0,1-.007-.021,2.194,2.194,0,0,1,.5-.734,4.4,4.4,0,0,1,2.518-1.073l.016.007v.019m-3.954,1.884a.236.236,0,0,0-.067.265.24.24,0,0,0,.223.156h0a5,5,0,0,1,.613.044,4.214,4.214,0,0,1,.641.133l.012.014-.009.018a5.978,5.978,0,0,1-.762.322,4.4,4.4,0,0,1-1.442.261,3.108,3.108,0,0,1-.848-.114.016.016,0,0,1-.012-.019c.1-.5.57-1.752,2.709-2.478l.018.005c.005,0,.005.011,0,.018a3.911,3.911,0,0,1-1.081,1.376m21.826,12.79a3.783,3.783,0,0,1,.592-1.83l.016-.009.014.012a5.672,5.672,0,0,1,.28,1.509,3.809,3.809,0,0,1-.182,1.337,2.9,2.9,0,0,1-.492.911l-.014.005-.009,0a3.571,3.571,0,0,1-1.388-1.789,5.665,5.665,0,0,1-.238-.78l.007-.016.019,0a4.969,4.969,0,0,1,.98.8.241.241,0,0,0,.256.063.236.236,0,0,0,.159-.21m-.953-2.648a3.77,3.77,0,0,1,.4-1.88.012.012,0,0,1,.014-.011l.016.011a5.585,5.585,0,0,1,.435,1.474,3.8,3.8,0,0,1-.04,1.349,2.872,2.872,0,0,1-.4.955l-.012.005h-.009A3.589,3.589,0,0,1,139.076,99a5.29,5.29,0,0,1-.317-.75l.005-.018.018,0a5.169,5.169,0,0,1,1.059.694.239.239,0,0,0,.4-.188M138.9,96.487h0a.241.241,0,0,0,.117-.244,3.769,3.769,0,0,1,.173-1.91.015.015,0,0,1,.014-.012l.016.009a5.616,5.616,0,0,1,.606,1.416,3.8,3.8,0,0,1,.119,1.344,2.846,2.846,0,0,1-.282.992l-.014.009h0a3.52,3.52,0,0,1-1.8-1.463,4.766,4.766,0,0,1-.393-.736l0-.018.018-.005a3.809,3.809,0,0,1,1.155.6.238.238,0,0,0,.27.019m-1.793-2.3a.24.24,0,0,0,.279,0,.235.235,0,0,0,.086-.263,4.193,4.193,0,0,1-.119-1.894.015.015,0,0,1,.012-.014l.018.005a5.708,5.708,0,0,1,.81,1.278,3.818,3.818,0,0,1,.333,1.309,2.768,2.768,0,0,1-.117,1.022.017.017,0,0,1-.014.012h0a3.627,3.627,0,0,1-1.963-1.155,5.546,5.546,0,0,1-.549-.687l0-.018.016-.009a2.71,2.71,0,0,1,1.214.417m-1.791-2.049a.238.238,0,0,0,.3-.331,3.8,3.8,0,0,1-.442-1.865l.011-.016.018,0a5.635,5.635,0,0,1,1,1.134,3.924,3.924,0,0,1,.542,1.246,3.024,3.024,0,0,1,.068,1.051.017.017,0,0,1-.018.014l-.04,0a3.472,3.472,0,0,1-2.01-.8,6.285,6.285,0,0,1-.691-.619l0-.018a.015.015,0,0,1,.014-.012h.089a3.765,3.765,0,0,1,1.165.214m-.71-1.861a3.192,3.192,0,0,1,.209,1.167.016.016,0,0,1-.018.016c-.04,0-.084,0-.126,0A5.678,5.678,0,0,1,131.94,90.4l-.007-.018a.015.015,0,0,1,.012-.014,3.3,3.3,0,0,1,1.221.019.241.241,0,0,0,.244-.384,4.907,4.907,0,0,1-.762-1.43l0-.018.018,0a2.946,2.946,0,0,1,1.942,1.724m-17.833-2.9q.071-.029.142-.053a13.1,13.1,0,0,1,1.405-.4,3.773,3.773,0,0,0,1.106-.436.164.164,0,0,0,.074-.172.166.166,0,0,0-.137-.128l-2.834-.414,2.832-.415a.164.164,0,0,0,.14-.161.16.16,0,0,0-.14-.161,5.519,5.519,0,0,1-1.25-.382c-.189-.086-.354-.174-.5-.254a4.468,4.468,0,0,0-.811-.368c.051,0,.1,0,.151.007a12.993,12.993,0,0,1,1.451.172,3.825,3.825,0,0,0,1.188.021.163.163,0,0,0,.056-.3l-2.46-1.462,2.778.7a.165.165,0,0,0,.193-.1.163.163,0,0,0-.068-.2,5.407,5.407,0,0,1-1.011-.834c-.137-.145-.251-.284-.361-.424a4.431,4.431,0,0,0-.61-.652l.137.065a12.768,12.768,0,0,1,1.274.715,3.8,3.8,0,0,0,1.09.475.165.165,0,0,0,.173-.07.166.166,0,0,0-.005-.188l-1.716-2.287,2.3,1.7a.163.163,0,0,0,.212-.018.165.165,0,0,0,.016-.212,5.376,5.376,0,0,1-.613-1.155c-.072-.191-.123-.365-.173-.535a4.476,4.476,0,0,0-.312-.834c.035.037.068.074.1.112a12.927,12.927,0,0,1,.9,1.148,3.777,3.777,0,0,0,.825.857.163.163,0,0,0,.252-.173l-.712-2.767,1.479,2.453a.162.162,0,0,0,.2.067.164.164,0,0,0,.1-.191,5.412,5.412,0,0,1-.124-1.3c.007-.2.026-.382.046-.556a4.456,4.456,0,0,0,.032-.892c.018.047.033.095.051.142a13.325,13.325,0,0,1,.394,1.407,3.785,3.785,0,0,0,.433,1.108.166.166,0,0,0,.172.074.162.162,0,0,0,.128-.138l.4-2.807.41,2.809a.166.166,0,0,0,.163.14.162.162,0,0,0,.161-.14,5.313,5.313,0,0,1,.382-1.253c.082-.184.168-.342.251-.5a4.309,4.309,0,0,0,.368-.813c0,.049,0,.1-.005.151a13.532,13.532,0,0,1-.17,1.449,3.838,3.838,0,0,0-.021,1.19.163.163,0,0,0,.3.056l1.463-2.457-.7,2.774a.165.165,0,0,0,.1.191.163.163,0,0,0,.2-.067,5.328,5.328,0,0,1,.831-1.011c.145-.138.286-.249.424-.365a4.327,4.327,0,0,0,.652-.608c-.021.046-.042.091-.065.135a13.183,13.183,0,0,1-.711,1.276,3.856,3.856,0,0,0-.475,1.09.164.164,0,0,0,.07.175.167.167,0,0,0,.186-.007l2.292-1.71-1.705,2.3a.163.163,0,0,0,.016.214.165.165,0,0,0,.212.016,5.5,5.5,0,0,1,1.155-.615c.191-.072.361-.123.533-.172a4.488,4.488,0,0,0,.834-.314c-.037.035-.074.068-.11.1a13.732,13.732,0,0,1-1.148.9,3.8,3.8,0,0,0-.857.824.164.164,0,0,0,.173.254l2.769-.7-2.453,1.47a.166.166,0,0,0-.067.2.161.161,0,0,0,.191.095,5.452,5.452,0,0,1,1.3-.123c.205.005.384.025.557.044a4.571,4.571,0,0,0,.89.032l-.14.051a13.127,13.127,0,0,1-1.407.394,3.907,3.907,0,0,0-1.108.433.166.166,0,0,0-.072.173.158.158,0,0,0,.137.126l2.827.407-2.83.424a.162.162,0,0,0-.138.159.167.167,0,0,0,.138.165,5.311,5.311,0,0,1,1.251.382c.184.084.342.17.5.256a4.284,4.284,0,0,0,.81.37c-.051,0-.1,0-.151-.007a12.8,12.8,0,0,1-1.451-.175l-.075-.012A4.041,4.041,0,0,0,130.3,87l0-.014a.328.328,0,0,0-.21-.233,6.748,6.748,0,0,0-2.147-.41,4.583,4.583,0,0,0-.689.049.319.319,0,0,0-.028-.088.336.336,0,0,0-.249-.177,6.788,6.788,0,0,0-2.185.03,4.571,4.571,0,0,0-.724.209.308.308,0,0,0-.084-.186.329.329,0,0,0-.265-.105,6.756,6.756,0,0,0-2.128.494,4.463,4.463,0,0,0-.457.231.33.33,0,0,0-.116-.217.327.327,0,0,0-.293-.061,6.535,6.535,0,0,0-2.022.9l-.035.023c-.151.011-.3.012-.44.009-.119,0-.513-.039-.556-.044a4.226,4.226,0,0,0-.892-.028m.764.822.018,0,.009.016a3.8,3.8,0,0,1-.624,1.817.239.239,0,0,0,.247.365,5.134,5.134,0,0,1,1.234-.075l.014.012-.005.018a4.683,4.683,0,0,1-2.7,1.12c-.04,0-.079,0-.119,0-.009,0-.016-.007-.016-.016-.03-.536.1-1.931,1.94-3.253m-3.9,4.127a3.8,3.8,0,0,1,.54-1.241,5.717,5.717,0,0,1,1.029-1.157l.018,0,.009.016a3.777,3.777,0,0,1-.443,1.868.238.238,0,0,0,.289.336,4.681,4.681,0,0,1,1.2-.217l.016.011,0,.018a7.131,7.131,0,0,1-.706.62,3.409,3.409,0,0,1-1.893.813c-.026,0-.054,0-.082,0a.017.017,0,0,1-.016-.014,2.843,2.843,0,0,1,.046-1.046M113.017,92l.018-.005.012.012a3.77,3.77,0,0,1-.14,1.915.24.24,0,0,0,.363.273,2.747,2.747,0,0,1,1.2-.415l.016.009V93.8a4.321,4.321,0,0,1-2.49,1.844h0l-.018-.012c-.168-.513-.4-1.894,1.046-3.638m-2.5,3.74a5.692,5.692,0,0,1,.666-1.388l.018-.009.014.012a3.779,3.779,0,0,1,.093,1.921.239.239,0,0,0,.4.216,2.317,2.317,0,0,1,1.165-.57l.018.007v.018a5.373,5.373,0,0,1-.468.782,3.47,3.47,0,0,1-1.821,1.365h0l-.016-.009a2.875,2.875,0,0,1-.242-1.008,3.785,3.785,0,0,1,.174-1.337m-1.348,2.581a5.626,5.626,0,0,1,.45-1.47l.009-.011h.007l.014.009a3.792,3.792,0,0,1,.382,1.887.239.239,0,0,0,.394.193,4.927,4.927,0,0,1,1.122-.71l.018,0,.005.016a3.671,3.671,0,0,1-1.965,2.392l-.007,0-.014-.007a2.887,2.887,0,0,1-.386-.955,3.768,3.768,0,0,1-.03-1.349m-.729,1.211.014-.012a.014.014,0,0,1,.016.007,3.8,3.8,0,0,1,.617,1.824.239.239,0,0,0,.422.133,4.22,4.22,0,0,1,1.02-.846h.018l.009.018a3.853,3.853,0,0,1-.165.75,3.439,3.439,0,0,1-1.483,1.884l-.005,0-.016-.005a2.887,2.887,0,0,1-.506-.9,3.747,3.747,0,0,1-.2-1.335,5.592,5.592,0,0,1,.259-1.514m-.825,2.806a.017.017,0,0,1,.012-.014l.018.005a3.832,3.832,0,0,1,.838,1.733.238.238,0,0,0,.186.188.242.242,0,0,0,.245-.1,4.967,4.967,0,0,1,.883-.943l.019,0,.009.016a4.3,4.3,0,0,1-.1.747A3.8,3.8,0,0,1,108.543,106l-.007,0-.016,0a2.9,2.9,0,0,1-.61-.831,3.8,3.8,0,0,1-.363-1.3,5.6,5.6,0,0,1,.07-1.532m-.424,2.813.012-.014.018,0a3.835,3.835,0,0,1,.918,1.695.244.244,0,0,0,.209.179.238.238,0,0,0,.238-.135,3.6,3.6,0,0,1,.747-.983l.019,0,.009.016a5.564,5.564,0,0,1-.068.843,3.42,3.42,0,0,1-1,2.019l-.011.005-.011,0a2.94,2.94,0,0,1-.654-.806,3.778,3.778,0,0,1-.424-1.283,5.672,5.672,0,0,1,0-1.533m-.233,2.955.011-.014.018,0c.061.056.121.116.179.177a3.923,3.923,0,0,1,.845,1.458.239.239,0,0,0,.245.165.242.242,0,0,0,.219-.2,2.069,2.069,0,0,1,.61-1.062l.018,0,.011.012a4.371,4.371,0,0,1,0,1.4,2.852,2.852,0,0,1-.822,1.621l-.009,0-.012,0a3.813,3.813,0,0,1-1.314-3.556m-.116,2.869h.018c.068.051.133.1.2.159a3.914,3.914,0,0,1,.994,1.363.24.24,0,0,0,.217.142h.005a.24.24,0,0,0,.217-.149,4.928,4.928,0,0,1,.682-1.13l.018-.005a.017.017,0,0,1,.012.012,3.687,3.687,0,0,1-.676,3.009l-.014.007-.009,0a3.833,3.833,0,0,1-1.67-3.391l.009-.016m.149,2.984.005-.018.019,0a3.844,3.844,0,0,1,1.439,1.3.239.239,0,0,0,.431-.084l.018,0-.018,0a5,5,0,0,1,.487-1.251l.016-.009.014.009a3.374,3.374,0,0,1,.259.762,3.207,3.207,0,0,1-.4,2.348l-.014.007h-.005a2.982,2.982,0,0,1-.9-.547,3.83,3.83,0,0,1-.834-1.069,5.7,5.7,0,0,1-.52-1.444m.676,2.771.005-.018.018,0c.077.032.152.067.228.105a3.984,3.984,0,0,1,1.3,1.081.24.24,0,0,0,.251.082.234.234,0,0,0,.174-.2,5.056,5.056,0,0,1,.368-1.236l.016-.011a.02.02,0,0,1,.016.011,3.734,3.734,0,0,1,.112,3.06l-.016.011-.005,0a3.858,3.858,0,0,1-2.469-2.885m1.668,4.1a5.727,5.727,0,0,1-.785-1.32l0-.018.018-.005c.079.023.159.049.238.079a3.935,3.935,0,0,1,1.421.925.235.235,0,0,0,.258.053.238.238,0,0,0,.151-.216,4.9,4.9,0,0,1,.217-1.253l.007-.009c.014,0,.019,0,.023.005a5.1,5.1,0,0,1,.345.736,3.505,3.505,0,0,1,.124,2.276l-.016.011h0a2.939,2.939,0,0,1-.978-.368,3.926,3.926,0,0,1-1.023-.9m.407,1.314,0-.018a.018.018,0,0,1,.016-.009,3.9,3.9,0,0,1,1.765.808.236.236,0,0,0,.266.021.238.238,0,0,0,.121-.235,4.3,4.3,0,0,1,.063-1.241l.012-.012a.017.017,0,0,1,.018.007,5.71,5.71,0,0,1,.421.713,3.688,3.688,0,0,1,.4,2.2.017.017,0,0,1-.016.014h0a2.923,2.923,0,0,1-1.011-.254,3.862,3.862,0,0,1-1.123-.773,5.7,5.7,0,0,1-.936-1.22m5.508,4.791a4.577,4.577,0,0,1-.294-1.213l.009-.016.019,0a3.554,3.554,0,0,1,1.427,2.729c0,.007-.007.016-.014.016a2.167,2.167,0,0,1-.375.03,2.9,2.9,0,0,1-.568-.058,5.187,5.187,0,0,1-2.448-1.4L113,127l.014-.01a3.9,3.9,0,0,1,1.928.256.235.235,0,0,0,.258-.054.24.24,0,0,0,.051-.259m-2.171-1.723a.239.239,0,0,0,.359-.261,3.978,3.978,0,0,1-.077-1.229l.012-.014.018.005a4.363,4.363,0,0,1,1.139,2.807.018.018,0,0,1-.016.016l-.112,0a3.052,3.052,0,0,1-.922-.151,3.889,3.889,0,0,1-1.2-.654,5.733,5.733,0,0,1-1.059-1.116l0-.018c0-.007.007-.01.016-.009a3.9,3.9,0,0,1,1.84.62m9.353-6.274-.221.151a2.275,2.275,0,0,0-.945,1.13,1.4,1.4,0,0,1-.188-.047c-.393-.13-.41-.328-.417-.4-.012-.2.093-.384.391-.669a1.416,1.416,0,0,1,.892-.5.554.554,0,0,1,.258.063.413.413,0,0,1,.224.2.167.167,0,0,1,.005.074m.491,1.972a1.322,1.322,0,0,1-.789-.07.282.282,0,0,1-.119-.228c-.035-.331.4-.687.655-.869a1.888,1.888,0,0,1,.913-.445.461.461,0,0,1,.314.126c.082.07.124.137.121.189a.676.676,0,0,1-.263.361,2.31,2.31,0,0,0-.832.936m2.029.068a1.645,1.645,0,0,1-1.05.37.428.428,0,0,1-.24-.135,2.1,2.1,0,0,1,.9-.8c.45-.261.645-.11.65-.105.133.126.126.2.123.226-.016.159-.244.356-.349.422l-.03.021m-4.266-2.622c-.06.053-.121.107-.186.17a2,2,0,0,0-.591.871,1.5,1.5,0,0,1-.166-.019c-.258-.042-.4-.123-.428-.186-.016-.039-.067-.156.084-.352a1.49,1.49,0,0,1,1.027-.515.507.507,0,0,1,.091.007l.033,0a.923.923,0,0,1,.135.021m10.268.494a.772.772,0,0,1-.531.177,7.035,7.035,0,0,0-2.3-2.043.4.4,0,0,0-.552.487.4.4,0,0,0,.2.23,6.283,6.283,0,0,1,2,1.8.806.806,0,0,1-.119.181.823.823,0,0,1-.654.254,3.529,3.529,0,0,0-.533-.769,7.222,7.222,0,0,0-1.052-.894.4.4,0,0,0-.3-.067.386.386,0,0,0-.258.163.4.4,0,0,0,.1.556,6.5,6.5,0,0,1,.908.764,2.557,2.557,0,0,1,.414.587.87.87,0,0,1-.18.251.615.615,0,0,1-.529.168,4.479,4.479,0,0,0-.727-1.1.4.4,0,1,0-.6.529,3.648,3.648,0,0,1,.547.8,1.265,1.265,0,0,1-.207.1,1.308,1.308,0,0,1-.645.081,1.1,1.1,0,0,0,.179-.482,1.051,1.051,0,0,0-.356-.882,1.1,1.1,0,0,0-.96-.259,1.072,1.072,0,0,0-.387-.659,1.25,1.25,0,0,0-1.255-.258,1.178,1.178,0,0,0-.606-.612,1.4,1.4,0,0,0-1.067-.074,1.633,1.633,0,0,0-.873-.338,2.208,2.208,0,0,0-1.667.61c-2.276,1.216-5.2,2.536-6.393,3.062a23.062,23.062,0,0,1-1.582-3.766c-.116-.363-.226-.734-.328-1.108,3.345-.384,6.039-.776,8-1.169a12.6,12.6,0,0,0,4.066-1.286,2.955,2.955,0,0,1,2.066-.759c.177.016.336.033.487.054a2.086,2.086,0,0,0-.408.228c-.315.221-.508.379-.678.517a5.545,5.545,0,0,1-.526.393,5.849,5.849,0,0,1-.552.294c-.464.226-.832.408-.952.726a.964.964,0,0,0,.158.969,1.448,1.448,0,0,0,1.4.442,3.972,3.972,0,0,0,1.623-.489c.166-.1.314-.193.443-.28a1.823,1.823,0,0,1,.494-.27l.023-.007a2.21,2.21,0,0,1,1.395.142,7.906,7.906,0,0,1,1.4.764,9.339,9.339,0,0,1,2.047,1.88.652.652,0,0,1-.18.365m1.446-.307a4.018,4.018,0,0,1-.694-.62l0,0-.014-.016-.058-.072a9.965,9.965,0,0,0-2.11-1.9c-.734-.478-2.1-1.367-3.426-1.009a2.349,2.349,0,0,0-.757.386c-.126.082-.256.17-.4.252a3.112,3.112,0,0,1-1.269.384c-.377.021-.612.025-.708-.109s-.081-.163-.068-.2a3.741,3.741,0,0,1,.566-.315,6.025,6.025,0,0,0,.634-.342,5.954,5.954,0,0,0,.594-.442c.161-.13.342-.277.634-.484a2.506,2.506,0,0,1,1.49-.3h.012c.1,0,.2,0,.31-.007.081,0,.161-.005.247-.009a6,6,0,0,1,2.3.545c.279.1.6.214.953.335.054.019,1.351.426,3.112.845a37.579,37.579,0,0,0,5.909.967c-.093.343-.195.683-.3,1.013a22.68,22.68,0,0,1-1.651,3.894,27.671,27.671,0,0,1-5.3-2.8m4.942,8.479a5.146,5.146,0,0,1-2.446,1.4,2.926,2.926,0,0,1-.57.06,2.167,2.167,0,0,1-.373-.032.017.017,0,0,1-.014-.016,3.008,3.008,0,0,1,.827-2.117,5.056,5.056,0,0,1,.612-.6l.019,0,.009.018a4.89,4.89,0,0,1-.307,1.2.238.238,0,0,0,.308.314,3.946,3.946,0,0,1,1.926-.256l.014.012-.005.018m1.809-2.4a5.72,5.72,0,0,1-1.059,1.115,3.889,3.889,0,0,1-1.2.654,3.042,3.042,0,0,1-.92.151l-.116,0a.024.024,0,0,1-.016-.016,3.538,3.538,0,0,1,.633-2.163,5.464,5.464,0,0,1,.5-.657l.018-.005.012.014a4.9,4.9,0,0,1-.068,1.253.235.235,0,0,0,.1.244.232.232,0,0,0,.263.005,3.91,3.91,0,0,1,1.84-.62l.014.009v.019m.547-1.257a3.839,3.839,0,0,1-1.123.773,2.93,2.93,0,0,1-1.013.254h0a.014.014,0,0,1-.016-.014,3.523,3.523,0,0,1,.4-2.215,5.115,5.115,0,0,1,.424-.7l.016-.007a.017.017,0,0,1,.014.014,5,5,0,0,1,.065,1.253.239.239,0,0,0,.387.209,3.89,3.89,0,0,1,1.763-.8l.018.005v.019a5.685,5.685,0,0,1-.934,1.218m1.323-2.571a3.852,3.852,0,0,1-1.022.9,2.949,2.949,0,0,1-.974.37h0a.017.017,0,0,1-.016-.012,3.588,3.588,0,0,1,.131-2.28,5.043,5.043,0,0,1,.329-.715.022.022,0,0,1,.018-.009l.014.012a5.555,5.555,0,0,1,.223,1.243.235.235,0,0,0,.156.212.243.243,0,0,0,.259-.061,3.461,3.461,0,0,1,1.413-.962c.084-.028.17-.053.256-.074l.016.005,0,.018a5.719,5.719,0,0,1-.8,1.358m1.013-2.69a3.854,3.854,0,0,1-.929.992,2.967,2.967,0,0,1-.934.463h0a.015.015,0,0,1-.016-.011,3.779,3.779,0,0,1-.1-2.291,5.8,5.8,0,0,1,.258-.8l.014-.011.016.011a5.405,5.405,0,0,1,.347,1.276.239.239,0,0,0,.422.121,3.892,3.892,0,0,1,1.549-1.162l.019,0,0,.018a5.656,5.656,0,0,1-.648,1.39m.743-2.806a3.794,3.794,0,0,1-.8,1.1,2.886,2.886,0,0,1-.866.573h-.007l-.016-.009a3.7,3.7,0,0,1-.391-2.3,5.248,5.248,0,0,1,.161-.81l.016-.012.016.009a5.459,5.459,0,0,1,.5,1.25.236.236,0,0,0,.195.179.242.242,0,0,0,.24-.109,3.85,3.85,0,0,1,1.393-1.341h.018l.007.018a5.7,5.7,0,0,1-.47,1.458" transform="translate(0 0)" fill="#262324"/>
    <path id="Trazado_115" data-name="Trazado 115" d="M125.89,86.329a4.007,4.007,0,0,1,1.563.343l.075.012a12.855,12.855,0,0,0,1.451.175c.049,0,.1.005.151.007a4.285,4.285,0,0,1-.81-.37c-.158-.086-.315-.172-.5-.256a5.456,5.456,0,0,0-1.251-.384.163.163,0,0,1,0-.322l2.83-.424-2.827-.4a.164.164,0,0,1-.137-.128.162.162,0,0,1,.072-.172,3.74,3.74,0,0,1,1.108-.435,13.128,13.128,0,0,0,1.407-.394c.047-.016.095-.033.14-.051a4.57,4.57,0,0,1-.89-.032c-.173-.019-.352-.037-.557-.044a5.451,5.451,0,0,0-1.3.123.161.161,0,0,1-.191-.095.165.165,0,0,1,.068-.2l2.452-1.47-2.769.7a.164.164,0,0,1-.173-.254,3.805,3.805,0,0,1,.857-.824,13.733,13.733,0,0,0,1.148-.9l.11-.1a4.534,4.534,0,0,1-.836.314c-.17.051-.342.1-.529.172a5.487,5.487,0,0,0-1.157.615.167.167,0,0,1-.214-.016.165.165,0,0,1-.014-.214l1.7-2.3-2.291,1.71a.163.163,0,0,1-.256-.168,3.8,3.8,0,0,1,.475-1.09,13.282,13.282,0,0,0,.713-1.276c.023-.044.042-.089.063-.135a4.329,4.329,0,0,1-.652.608c-.14.116-.279.226-.424.363a5.313,5.313,0,0,0-.831,1.013.167.167,0,0,1-.2.067.165.165,0,0,1-.1-.191l.7-2.774L122.6,79.585a.164.164,0,0,1-.17.077.162.162,0,0,1-.131-.133,3.828,3.828,0,0,1,.021-1.188,13.637,13.637,0,0,0,.17-1.451c0-.051.005-.1.005-.151a4.35,4.35,0,0,1-.368.811c-.082.154-.168.314-.252.5a5.561,5.561,0,0,0-.38,1.253.163.163,0,0,1-.322,0l-.412-2.809-.394,2.807a.168.168,0,0,1-.13.138.166.166,0,0,1-.172-.074,3.785,3.785,0,0,1-.433-1.108,13.32,13.32,0,0,0-.394-1.407c-.018-.047-.033-.095-.051-.142a4.45,4.45,0,0,1-.032.892c-.019.173-.039.354-.046.557a5.51,5.51,0,0,0,.124,1.3.163.163,0,0,1-.3.124l-1.479-2.453.712,2.767a.163.163,0,0,1-.065.175.166.166,0,0,1-.188,0,3.867,3.867,0,0,1-.825-.857,12.972,12.972,0,0,0-.9-1.15c-.033-.039-.067-.075-.1-.112a4.476,4.476,0,0,1,.312.834c.051.17.1.343.173.533a5.362,5.362,0,0,0,.613,1.157.164.164,0,0,1-.23.228l-2.3-1.7,1.714,2.287a.163.163,0,0,1-.166.258,3.8,3.8,0,0,1-1.09-.475,13.133,13.133,0,0,0-1.274-.715c-.044-.023-.091-.044-.137-.063a4.43,4.43,0,0,1,.61.65c.11.138.224.279.363.426a5.482,5.482,0,0,0,1.009.832.16.16,0,0,1,.067.2.162.162,0,0,1-.191.1l-2.778-.7,2.46,1.462a.163.163,0,0,1-.056.3A3.825,3.825,0,0,1,114,83.548a12.978,12.978,0,0,0-1.453-.172c-.049,0-.1-.005-.149-.007a4.467,4.467,0,0,1,.811.368c.145.079.31.168.5.254a5.493,5.493,0,0,0,1.251.382.163.163,0,0,1,0,.322l-2.832.415,2.834.414a.163.163,0,0,1,.063.3,3.718,3.718,0,0,1-1.106.436,13.1,13.1,0,0,0-1.405.4q-.071.024-.142.053a4.342,4.342,0,0,1,.892.028c.042,0,.436.04.556.044.142,0,.291,0,.44-.009l.035-.025a6.651,6.651,0,0,1,2.024-.9.326.326,0,0,1,.407.28,4.32,4.32,0,0,1,.459-.231,6.686,6.686,0,0,1,2.126-.492.321.321,0,0,1,.349.289,4.392,4.392,0,0,1,.724-.207,6.69,6.69,0,0,1,2.185-.03.33.33,0,0,1,.249.175.315.315,0,0,1,.026.088,4.622,4.622,0,0,1,.69-.049,6.748,6.748,0,0,1,2.147.41.322.322,0,0,1,.209.233l0,.016" transform="translate(4.408 0.668)" fill="#e5bc38"/>
    <path id="Trazado_116" data-name="Trazado 116" d="M117.722,80.428c2.753-.438,3.056.356,3.056.356a.242.242,0,0,0,.3.126s.188-.021.093-.244c0,0-.3-.9-1.767-1.057a5.821,5.821,0,0,0-1.581.046c-.245.042-.314.582-.314.582-.035.242.216.191.216.191" transform="translate(8.454 2.989)" fill="#262324"/>
    <path id="Trazado_117" data-name="Trazado 117" d="M117.449,80.42a3.4,3.4,0,0,0-1.1-.121,1.662,1.662,0,0,0-1.572.813c-.109.259.109.284.109.284a.282.282,0,0,0,.345-.145s.07-.221.584-.347a.625.625,0,0,0-.046.237.637.637,0,0,0,1.274,0,.653.653,0,0,0-.051-.251.812.812,0,0,1,.456.412c.044.089.14.13.377.13.254,0,.193-.166.193-.166a1.215,1.215,0,0,0-.566-.845" transform="translate(6.378 3.531)" fill="#262324"/>
    <path id="Trazado_118" data-name="Trazado 118" d="M117.68,81.431c.238,0,.333-.04.377-.131a.816.816,0,0,1,.457-.41.623.623,0,0,0-.053.251.638.638,0,0,0,1.276,0,.661.661,0,0,0-.046-.237c.512.126.582.347.582.347a.283.283,0,0,0,.347.145s.217-.023.107-.284a1.657,1.657,0,0,0-1.57-.811,3.375,3.375,0,0,0-1.1.119,1.209,1.209,0,0,0-.566.845s-.063.166.191.166" transform="translate(8.438 3.532)" fill="#262324"/>
    <path id="Trazado_119" data-name="Trazado 119" d="M114.608,80.908a.24.24,0,0,0,.3-.124s.3-.794,3.056-.356c0,0,.249.053.214-.191,0,0-.068-.54-.312-.584a5.875,5.875,0,0,0-1.582-.044c-1.463.156-1.767,1.057-1.767,1.057-.095.223.095.242.095.242" transform="translate(6.184 2.989)" fill="#262324"/>
    <path id="Trazado_120" data-name="Trazado 120" d="M125.455,105.473a3.946,3.946,0,0,0-1.926.256.239.239,0,0,1-.308-.314,4.89,4.89,0,0,0,.307-1.2l-.009-.018-.018,0a4.948,4.948,0,0,0-.613.6,3.007,3.007,0,0,0-.827,2.117.019.019,0,0,0,.014.016,2.166,2.166,0,0,0,.373.032,2.926,2.926,0,0,0,.57-.06,5.146,5.146,0,0,0,2.446-1.4l.005-.018-.014-.012" transform="translate(11.881 21.52)" fill="#729f4f"/>
    <path id="Trazado_121" data-name="Trazado 121" d="M112.095,104.195l-.019,0-.009.016a4.656,4.656,0,0,0,.294,1.213.24.24,0,0,1-.051.259.232.232,0,0,1-.258.054,3.9,3.9,0,0,0-1.928-.256l-.014.011.005.018a5.172,5.172,0,0,0,2.448,1.4,2.9,2.9,0,0,0,.568.058,2.166,2.166,0,0,0,.375-.03.017.017,0,0,0,.014-.016,3.554,3.554,0,0,0-1.427-2.729" transform="translate(2.892 21.513)" fill="#729f4f"/>
    <path id="Trazado_122" data-name="Trazado 122" d="M126.442,103.943a3.89,3.89,0,0,0-1.84.619.24.24,0,0,1-.363-.249,4.9,4.9,0,0,0,.068-1.253l-.012-.014-.018.005a5.47,5.47,0,0,0-.5.657,3.543,3.543,0,0,0-.633,2.163.021.021,0,0,0,.018.016c.032,0,.07,0,.112,0a3.044,3.044,0,0,0,.922-.151,3.853,3.853,0,0,0,1.2-.654,5.72,5.72,0,0,0,1.059-1.115v-.018l-.014-.009" transform="translate(12.697 20.65)" fill="#729f4f"/>
    <path id="Trazado_123" data-name="Trazado 123" d="M127.2,102.435a3.89,3.89,0,0,0-1.763.8.237.237,0,0,1-.263.023.24.24,0,0,1-.124-.233,4.912,4.912,0,0,0-.065-1.253l-.012-.012a.014.014,0,0,0-.018.007,5.293,5.293,0,0,0-.424.7,3.523,3.523,0,0,0-.4,2.215.015.015,0,0,0,.016.014h0a2.954,2.954,0,0,0,1.015-.254,3.847,3.847,0,0,0,1.122-.771,5.741,5.741,0,0,0,.934-1.22v-.018l-.018-.007" transform="translate(13.412 19.685)" fill="#729f4f"/>
    <path id="Trazado_124" data-name="Trazado 124" d="M127.8,100.759a2.66,2.66,0,0,0-.256.074,3.461,3.461,0,0,0-1.413.962.243.243,0,0,1-.259.063.239.239,0,0,1-.156-.216,5.547,5.547,0,0,0-.223-1.241l-.014-.011a.015.015,0,0,0-.018.009,5.027,5.027,0,0,0-.329.713,3.588,3.588,0,0,0-.131,2.28l.016.012,0,0a2.907,2.907,0,0,0,.974-.368,3.886,3.886,0,0,0,1.023-.9,5.8,5.8,0,0,0,.8-1.356l0-.019-.016-.005" transform="translate(14.003 18.652)" fill="#729f4f"/>
    <path id="Trazado_125" data-name="Trazado 125" d="M128.212,99.154a3.884,3.884,0,0,0-1.551,1.162.238.238,0,0,1-.251.079.244.244,0,0,1-.172-.2,5.5,5.5,0,0,0-.347-1.276l-.016-.011a.017.017,0,0,0-.016.011,5.718,5.718,0,0,0-.256.8,3.779,3.779,0,0,0,.1,2.291l.014.011h.005a2.967,2.967,0,0,0,.934-.463,3.854,3.854,0,0,0,.929-.992,5.657,5.657,0,0,0,.648-1.39l0-.018-.018,0" transform="translate(14.451 17.537)" fill="#729f4f"/>
    <path id="Trazado_126" data-name="Trazado 126" d="M128.455,97.411a3.851,3.851,0,0,0-1.393,1.341.242.242,0,0,1-.24.109.238.238,0,0,1-.195-.179,5.459,5.459,0,0,0-.5-1.25.015.015,0,0,0-.016-.009l-.014.012a5.5,5.5,0,0,0-.165.808,3.721,3.721,0,0,0,.394,2.3l.007.009h.014a2.91,2.91,0,0,0,.867-.573,3.822,3.822,0,0,0,.8-1.1,5.629,5.629,0,0,0,.47-1.458l-.007-.018h-.018" transform="translate(14.769 16.41)" fill="#729f4f"/>
    <path id="Trazado_127" data-name="Trazado 127" d="M127.3,97.247a.24.24,0,0,1-.443-.028,4.185,4.185,0,0,0-.617-1.132l-.018-.007a.015.015,0,0,0-.012.014,4.714,4.714,0,0,0-.088.825,3.5,3.5,0,0,0,.645,2.2l.014.007.007,0a2.872,2.872,0,0,0,.8-.662,3.825,3.825,0,0,0,.668-1.176,5.65,5.65,0,0,0,.3-1.5l-.009-.018-.019,0a3.835,3.835,0,0,0-1.232,1.483" transform="translate(14.942 15.169)" fill="#729f4f"/>
    <path id="Trazado_128" data-name="Trazado 128" d="M127.154,95.875a.239.239,0,0,1-.228-.133,4.962,4.962,0,0,0-.706-1.025c0-.005-.011-.005-.018,0l-.01.016a4.263,4.263,0,0,0,.831,2.9l.012.007.011,0a2.906,2.906,0,0,0,.729-.736,3.782,3.782,0,0,0,.547-1.234,5.632,5.632,0,0,0,.152-1.528l-.01-.014-.018,0a3.821,3.821,0,0,0-1.08,1.595.238.238,0,0,1-.212.158" transform="translate(14.989 13.934)" fill="#729f4f"/>
    <path id="Trazado_129" data-name="Trazado 129" d="M127.113,94.329a.24.24,0,0,1-.24-.11,5.1,5.1,0,0,0-.78-.929l-.018,0-.01.018a4.4,4.4,0,0,0,1.078,2.8l.01,0,.011,0a2.888,2.888,0,0,0,.664-.815A3.74,3.74,0,0,0,128.252,94a5.6,5.6,0,0,0,0-1.533l-.012-.014-.016,0a3.808,3.808,0,0,0-.92,1.695.239.239,0,0,1-.195.177" transform="translate(14.897 12.679)" fill="#729f4f"/>
    <path id="Trazado_130" data-name="Trazado 130" d="M126.934,92.8a.239.239,0,0,1-.245-.1,5.1,5.1,0,0,0-.85-.917l-.018,0a.019.019,0,0,0-.011.018,6.134,6.134,0,0,0,.142.815,3.722,3.722,0,0,0,1.1,1.94l.012,0,.011,0a2.858,2.858,0,0,0,.613-.834,3.769,3.769,0,0,0,.365-1.3,5.617,5.617,0,0,0-.07-1.533l-.012-.014-.016.005a3.794,3.794,0,0,0-.839,1.735.238.238,0,0,1-.186.186" transform="translate(14.706 11.488)" fill="#729f4f"/>
    <path id="Trazado_131" data-name="Trazado 131" d="M126.647,91.314a.241.241,0,0,1-.256-.063,5.017,5.017,0,0,0-.981-.8h-.018l-.007.018a5.3,5.3,0,0,0,.238.78,3.574,3.574,0,0,0,1.388,1.788l.007,0,.016-.005a2.917,2.917,0,0,0,.492-.911,3.809,3.809,0,0,0,.182-1.337,5.683,5.683,0,0,0-.28-1.509l-.014-.012-.016.007a3.8,3.8,0,0,0-.592,1.833.236.236,0,0,1-.159.209" transform="translate(14.385 10.28)" fill="#729f4f"/>
    <path id="Trazado_132" data-name="Trazado 132" d="M125.889,89.8a5.226,5.226,0,0,0-1.059-.694l-.018,0-.005.018a5.5,5.5,0,0,0,.317.75,3.576,3.576,0,0,0,1.567,1.637l.007,0,.014-.007a2.84,2.84,0,0,0,.4-.953,3.8,3.8,0,0,0,.04-1.349,5.671,5.671,0,0,0-.435-1.474l-.016-.011c-.009,0-.012,0-.016.011a3.792,3.792,0,0,0-.4,1.88.238.238,0,0,1-.137.224.235.235,0,0,1-.261-.037" transform="translate(13.951 9.12)" fill="#729f4f"/>
    <path id="Trazado_133" data-name="Trazado 133" d="M124.07,87.837l0,.018a4.765,4.765,0,0,0,.393.736,3.523,3.523,0,0,0,1.8,1.463l.005,0,.014-.011a2.846,2.846,0,0,0,.282-.99,3.767,3.767,0,0,0-.119-1.346,5.615,5.615,0,0,0-.606-1.416l-.009-.009c-.014,0-.019.005-.021.012a3.768,3.768,0,0,0-.173,1.91.24.24,0,0,1-.387.224,3.809,3.809,0,0,0-1.155-.6l-.018.005" transform="translate(13.393 8.037)" fill="#729f4f"/>
    <path id="Trazado_134" data-name="Trazado 134" d="M123.167,86.734v.019a5.386,5.386,0,0,0,.549.687,3.616,3.616,0,0,0,1.963,1.155h0a.019.019,0,0,0,.018-.012,2.817,2.817,0,0,0,.116-1.022,3.782,3.782,0,0,0-.335-1.309,5.736,5.736,0,0,0-.808-1.278l-.018-.005-.012.014a4.189,4.189,0,0,0,.121,1.893.239.239,0,0,1-.366.268,2.735,2.735,0,0,0-1.214-.419l-.014.009" transform="translate(12.716 7.047)" fill="#729f4f"/>
    <path id="Trazado_135" data-name="Trazado 135" d="M123.657,85.929a.244.244,0,0,1-.266.063,3.67,3.67,0,0,0-1.165-.217c-.03,0-.06,0-.089,0l-.014.011,0,.018a5.983,5.983,0,0,0,.69.62,3.461,3.461,0,0,0,2.012.8h.039c.009,0,.016-.007.016-.016a2.992,2.992,0,0,0-.065-1.051,3.97,3.97,0,0,0-.543-1.246,5.642,5.642,0,0,0-1-1.134l-.019,0-.009.016a3.79,3.79,0,0,0,.442,1.863.242.242,0,0,1-.033.272" transform="translate(11.93 6.152)" fill="#729f4f"/>
    <path id="Trazado_136" data-name="Trazado 136" d="M112.276,105.883a1.092,1.092,0,0,0,.112,0,.016.016,0,0,0,.016-.016,4.362,4.362,0,0,0-1.139-2.806l-.018-.005-.012.014a3.9,3.9,0,0,0,.079,1.229.239.239,0,0,1-.093.252.235.235,0,0,1-.268.009,3.912,3.912,0,0,0-1.84-.622.016.016,0,0,0-.016.009l0,.019a5.683,5.683,0,0,0,1.059,1.116,3.877,3.877,0,0,0,1.2.654,3.027,3.027,0,0,0,.92.151" transform="translate(2.129 20.655)" fill="#729f4f"/>
    <path id="Trazado_137" data-name="Trazado 137" d="M111.322,104.7h0a.015.015,0,0,0,.016-.014,3.688,3.688,0,0,0-.4-2.2,5.708,5.708,0,0,0-.421-.713.014.014,0,0,0-.018-.007l-.012.012a4.285,4.285,0,0,0-.063,1.239.239.239,0,0,1-.387.216,3.9,3.9,0,0,0-1.765-.808.022.022,0,0,0-.016.007v.019a5.647,5.647,0,0,0,.936,1.221,3.825,3.825,0,0,0,1.122.771,2.923,2.923,0,0,0,1.011.254" transform="translate(1.493 19.689)" fill="#729f4f"/>
    <path id="Trazado_138" data-name="Trazado 138" d="M110.358,103.433h0a.016.016,0,0,0,.018-.012,3.5,3.5,0,0,0-.124-2.275,4.9,4.9,0,0,0-.345-.734.018.018,0,0,0-.016-.009l-.014.011a4.9,4.9,0,0,0-.217,1.253.238.238,0,0,1-.151.216.235.235,0,0,1-.258-.053,3.945,3.945,0,0,0-1.42-.925c-.081-.03-.161-.058-.238-.079l-.019.005,0,.016a5.7,5.7,0,0,0,.785,1.321,3.824,3.824,0,0,0,1.023.9,3,3,0,0,0,.978.37" transform="translate(0.981 18.661)" fill="#729f4f"/>
    <path id="Trazado_139" data-name="Trazado 139" d="M109.537,102.037h.005l.016-.009a3.735,3.735,0,0,0-.112-3.06.02.02,0,0,0-.016-.01h0l-.016.01a5.056,5.056,0,0,0-.368,1.236.239.239,0,0,1-.424.114,3.967,3.967,0,0,0-1.3-1.081c-.075-.039-.151-.074-.228-.105l-.018,0-.005.018a3.858,3.858,0,0,0,2.469,2.885" transform="translate(0.602 17.574)" fill="#729f4f"/>
    <path id="Trazado_140" data-name="Trazado 140" d="M108.037,100.03a2.982,2.982,0,0,0,.9.547h0l.016-.007a3.207,3.207,0,0,0,.4-2.348,3.418,3.418,0,0,0-.259-.761l-.014-.011-.016.009a4.812,4.812,0,0,0-.485,1.251l.014,0-.016,0a.239.239,0,0,1-.431.084,3.844,3.844,0,0,0-1.439-1.3l-.019,0-.005.018a5.7,5.7,0,0,0,.52,1.444,3.8,3.8,0,0,0,.834,1.069" transform="translate(0.311 16.439)" fill="#729f4f"/>
    <path id="Trazado_141" data-name="Trazado 141" d="M108.262,99.192l.005,0,.018-.007a3.68,3.68,0,0,0,.676-3.009l-.012-.012-.016.005a4.936,4.936,0,0,0-.683,1.13.243.243,0,0,1-.217.149h0a.241.241,0,0,1-.219-.142,3.914,3.914,0,0,0-.994-1.363c-.065-.056-.13-.109-.2-.159H106.6a.016.016,0,0,0-.009.016,3.833,3.833,0,0,0,1.67,3.391" transform="translate(0.244 15.186)" fill="#729f4f"/>
    <path id="Trazado_142" data-name="Trazado 142" d="M107.983,97.71l.009,0,.012,0a2.847,2.847,0,0,0,.822-1.621,4.371,4.371,0,0,0,0-1.4l-.011-.012-.018,0a2.069,2.069,0,0,0-.61,1.062.24.24,0,0,1-.464.035,3.875,3.875,0,0,0-.845-1.456q-.087-.095-.179-.179l-.018,0-.011.014a3.809,3.809,0,0,0,1.314,3.556" transform="translate(0.291 13.948)" fill="#729f4f"/>
    <path id="Trazado_143" data-name="Trazado 143" d="M107.245,95.284a2.911,2.911,0,0,0,.654.806l.007,0,.014,0a3.43,3.43,0,0,0,1-2.019,5.606,5.606,0,0,0,.068-.845l-.009-.016-.018,0a3.471,3.471,0,0,0-.747.981.24.24,0,0,1-.449-.044,3.825,3.825,0,0,0-.918-1.695l-.018,0-.011.014a5.537,5.537,0,0,0,0,1.533,3.778,3.778,0,0,0,.424,1.283" transform="translate(0.375 12.679)" fill="#729f4f"/>
    <path id="Trazado_144" data-name="Trazado 144" d="M107.373,93.7a2.866,2.866,0,0,0,.608.831l.011,0,.011,0a3.792,3.792,0,0,0,1.183-2.033,4.3,4.3,0,0,0,.1-.747l-.009-.016-.019,0a5.034,5.034,0,0,0-.883.943.238.238,0,0,1-.431-.088,3.831,3.831,0,0,0-.838-1.733l-.018-.005-.012.014a5.6,5.6,0,0,0-.07,1.532,3.758,3.758,0,0,0,.365,1.3" transform="translate(0.539 11.472)" fill="#729f4f"/>
    <path id="Trazado_145" data-name="Trazado 145" d="M108.068,93.015l.012.005.009,0a3.439,3.439,0,0,0,1.483-1.884,3.724,3.724,0,0,0,.163-.75l-.007-.018h-.016a4.249,4.249,0,0,0-1.022.846.24.24,0,0,1-.258.075.237.237,0,0,1-.165-.209,3.781,3.781,0,0,0-.617-1.824.014.014,0,0,0-.016-.007l-.014.012a5.593,5.593,0,0,0-.259,1.516,3.759,3.759,0,0,0,.2,1.335,2.908,2.908,0,0,0,.506.9" transform="translate(0.822 10.268)" fill="#729f4f"/>
    <path id="Trazado_146" data-name="Trazado 146" d="M108.36,91.505l.009.007.012,0a3.671,3.671,0,0,0,1.965-2.392l-.005-.018-.018,0a4.975,4.975,0,0,0-1.122.71.241.241,0,0,1-.261.035.245.245,0,0,1-.135-.228,3.775,3.775,0,0,0-.38-1.887l-.009-.009h-.005a.014.014,0,0,0-.016.011,5.626,5.626,0,0,0-.45,1.47,3.808,3.808,0,0,0,.03,1.349,2.848,2.848,0,0,0,.386.955" transform="translate(1.227 9.117)" fill="#729f4f"/>
    <path id="Trazado_147" data-name="Trazado 147" d="M108.839,90.037l.014.011.005,0a3.451,3.451,0,0,0,1.819-1.365,5.024,5.024,0,0,0,.47-.782l0-.018-.016-.007a2.327,2.327,0,0,0-1.165.57.239.239,0,0,1-.4-.217,3.753,3.753,0,0,0-.095-1.919l-.012-.012-.016.009a5.637,5.637,0,0,0-.668,1.388,3.826,3.826,0,0,0-.173,1.337,2.875,2.875,0,0,0,.242,1.008" transform="translate(1.748 8.045)" fill="#729f4f"/>
    <path id="Trazado_148" data-name="Trazado 148" d="M109.593,88.611h0a4.314,4.314,0,0,0,2.49-1.844v-.019l-.016-.007a2.747,2.747,0,0,0-1.2.415.24.24,0,0,1-.363-.273,3.77,3.77,0,0,0,.14-1.915l-.012-.012-.018.005c-1.449,1.744-1.214,3.125-1.044,3.638a.017.017,0,0,0,.016.012" transform="translate(2.394 7.037)" fill="#729f4f"/>
    <path id="Trazado_149" data-name="Trazado 149" d="M110.48,87.238c.028,0,.056,0,.082,0a3.412,3.412,0,0,0,1.893-.811,7.134,7.134,0,0,0,.706-.62l0-.018-.016-.011a4.681,4.681,0,0,0-1.2.217.239.239,0,0,1-.289-.336,3.8,3.8,0,0,0,.443-1.87c0-.007,0-.011-.011-.014l-.016,0a5.716,5.716,0,0,0-1.029,1.157,3.8,3.8,0,0,0-.54,1.239,2.893,2.893,0,0,0-.046,1.048.019.019,0,0,0,.016.014" transform="translate(3.136 6.15)" fill="#729f4f"/>
    <path id="Trazado_150" data-name="Trazado 150" d="M114.419,84.913a5.1,5.1,0,0,0-1.232.075.244.244,0,0,1-.245-.1.238.238,0,0,1,0-.265,3.81,3.81,0,0,0,.624-1.817l-.009-.016h-.019c-1.838,1.325-1.968,2.716-1.938,3.254a.016.016,0,0,0,.016.016c.04,0,.081,0,.121,0a4.671,4.671,0,0,0,2.7-1.12l.007-.018-.016-.012" transform="translate(4.006 5.408)" fill="#729f4f"/>
    <path id="Trazado_151" data-name="Trazado 151" d="M115.863,84.214a4.17,4.17,0,0,0-.641-.133,4.965,4.965,0,0,0-.61-.044h0a.24.24,0,0,1-.158-.421,3.874,3.874,0,0,0,1.081-1.376.016.016,0,0,0,0-.018l-.018-.005c-2.14.726-2.608,1.975-2.709,2.478a.016.016,0,0,0,.012.019,3.1,3.1,0,0,0,.848.114,4.39,4.39,0,0,0,1.442-.261,5.978,5.978,0,0,0,.762-.322l.009-.016a.019.019,0,0,0-.012-.016" transform="translate(4.916 4.977)" fill="#729f4f"/>
    <path id="Trazado_152" data-name="Trazado 152" d="M117.324,83.742a5.2,5.2,0,0,0-1.19-.4.239.239,0,0,1-.063-.45,3.284,3.284,0,0,0,1.232-.939v-.019l-.016-.007A4.409,4.409,0,0,0,114.767,83a2.249,2.249,0,0,0-.5.734.017.017,0,0,0,.009.021,3.392,3.392,0,0,0,1.432.293,4.946,4.946,0,0,0,.825-.074,5.709,5.709,0,0,0,.792-.2l.011-.014a.015.015,0,0,0-.009-.016" transform="translate(6.016 4.757)" fill="#729f4f"/>
    <path id="Trazado_153" data-name="Trazado 153" d="M117.791,83.048a.24.24,0,0,1,.012-.454,4.168,4.168,0,0,0,1.365-.662l0-.018a.014.014,0,0,0-.014-.012,4.4,4.4,0,0,0-2.636.519,2.258,2.258,0,0,0-.654.61.016.016,0,0,0,0,.023,3.986,3.986,0,0,0,2.392.683c.224,0,.428-.014.6-.028l.014-.012a.02.02,0,0,0-.005-.019,4.214,4.214,0,0,0-1.078-.629" transform="translate(7.222 4.727)" fill="#729f4f"/>
    <path id="Trazado_154" data-name="Trazado 154" d="M119.369,83.114a.243.243,0,0,1-.1-.254.239.239,0,0,1,.2-.18,4.867,4.867,0,0,0,1.453-.382l.009-.018-.012-.014a4.4,4.4,0,0,0-2.66-.016,2.293,2.293,0,0,0-.768.468l0,.025a3.781,3.781,0,0,0,2.811,1.281h0l.014-.009,0-.018a4.909,4.909,0,0,0-.952-.883" transform="translate(8.449 4.852)" fill="#729f4f"/>
    <path id="Trazado_155" data-name="Trazado 155" d="M123.782,85.9a.017.017,0,0,0,.018-.016,3.192,3.192,0,0,0-.209-1.167A2.946,2.946,0,0,0,121.649,83l-.018,0,0,.018a4.907,4.907,0,0,0,.762,1.43.24.24,0,0,1-.244.384,3.294,3.294,0,0,0-1.221-.019l-.012.014.007.018a5.677,5.677,0,0,0,2.736,1.064c.042,0,.086,0,.126,0" transform="translate(11.02 5.562)" fill="#729f4f"/>
    <path id="Trazado_156" data-name="Trazado 156" d="M122.534,84.005l0-.016a2.459,2.459,0,0,0-2.031-.775,3.578,3.578,0,0,0-.871.163l-.011.014.005.018a3.271,3.271,0,0,0,2.017.755l.116,0a2.74,2.74,0,0,0,.768-.145l.01-.012" transform="translate(10.046 5.722)" fill="#729f4f"/>
    <path id="Trazado_157" data-name="Trazado 157" d="M119.038,82.87l.007.014a2.528,2.528,0,0,0,1.493.433,4.3,4.3,0,0,0,.782-.075,5.954,5.954,0,0,0,1.062-.31l.011-.016-.009-.014a3.779,3.779,0,0,0-1.188-.431,3.158,3.158,0,0,0-1.269.04,3.335,3.335,0,0,0-.882.345l-.007.014" transform="translate(9.609 5.133)" fill="#729f4f"/>
    <path id="Trazado_158" data-name="Trazado 158" d="M114.506,91.847a.811.811,0,0,0,.668.238h3.1c-1.863-1.155-2.546-.946-3.847-.356a.643.643,0,0,0,.075.117" transform="translate(6.142 11.774)" fill="#c2452d"/>
    <path id="Trazado_159" data-name="Trazado 159" d="M122.119,94.283a7.1,7.1,0,0,1-.813-.249,8.262,8.262,0,0,1-1.814-1.048.455.455,0,0,1,.566-.713,7.327,7.327,0,0,0,1.588.917,6.814,6.814,0,0,0,.7.214,6.451,6.451,0,0,1,1.255.429c-.082-.513-.161-.95-.251-1.369a6.245,6.245,0,0,1-2.324-1.158.455.455,0,0,1,.58-.7,5.8,5.8,0,0,0,1.5.843,17.677,17.677,0,0,0-1.367-3.537,3.146,3.146,0,0,0-1.838-1.63,2.972,2.972,0,0,0-1.05-.154l-.046,0a3.561,3.561,0,0,0-2.448,1.13l-.021.023a2.85,2.85,0,0,0-.71,1.141.445.445,0,0,0,.158.489c.065.037.307.131.731-.165.105-.088.173-.135.191-.149a.455.455,0,0,1,.556.72c-.058.051-.119.1-.179.142a6.49,6.49,0,0,0-.992,1.08,9.878,9.878,0,0,0-1.689,3.971c-.007.039-.014.075-.021.112,1.292-.559,2.338-.79,4.639.694a4.334,4.334,0,0,0,2.136.624h1.016l.032,0a1.975,1.975,0,0,0,1.367-.4.709.709,0,0,0,.135-.224c-.023-.536-.512-.755-1.593-1.041" transform="translate(6.109 7.916)" fill="#c2452d"/>
    <path id="Trazado_160" data-name="Trazado 160" d="M117,101.212a.676.676,0,0,0,.263-.361c0-.053-.039-.119-.121-.189a.462.462,0,0,0-.315-.126,1.891,1.891,0,0,0-.911.445c-.261.182-.69.536-.655.869a.281.281,0,0,0,.117.228,1.328,1.328,0,0,0,.79.07,2.31,2.31,0,0,1,.832-.936" transform="translate(6.762 18.761)" fill="#e3b580"/>
    <path id="Trazado_161" data-name="Trazado 161" d="M117.863,101.36c0-.025.011-.1-.123-.226-.005-.005-.2-.156-.65.105a2.1,2.1,0,0,0-.9.8.433.433,0,0,0,.24.137,1.656,1.656,0,0,0,1.05-.372l.03-.021c.105-.067.333-.263.349-.422" transform="translate(7.47 19.175)" fill="#e3b580"/>
    <path id="Trazado_162" data-name="Trazado 162" d="M114.928,99.988a.8.8,0,0,0-.093-.007,1.49,1.49,0,0,0-1.027.515c-.151.2-.1.314-.084.352.028.061.17.144.428.186a1.554,1.554,0,0,0,.166.019,2,2,0,0,1,.591-.871c.065-.063.126-.117.186-.168a.765.765,0,0,0-.135-.023l-.032,0" transform="translate(5.595 18.343)" fill="#e3b580"/>
    <path id="Trazado_163" data-name="Trazado 163" d="M114.483,101.307c.007.074.025.272.415.4a1.545,1.545,0,0,0,.188.047,2.289,2.289,0,0,1,.946-1.13c.07-.049.144-.1.221-.151a.177.177,0,0,0-.005-.075.426.426,0,0,0-.224-.2.574.574,0,0,0-.258-.061,1.424,1.424,0,0,0-.892.5c-.3.286-.4.466-.391.668" transform="translate(6.181 18.463)" fill="#e3b580"/>
    <path id="Trazado_164" data-name="Trazado 164" d="M128.543,102.921a.772.772,0,0,0,.529-.175.643.643,0,0,0,.182-.366,9.3,9.3,0,0,0-2.047-1.88,7.906,7.906,0,0,0-1.4-.764,2.21,2.21,0,0,0-1.395-.142l-.023.007a1.849,1.849,0,0,0-.494.27c-.13.088-.277.184-.445.28a3.975,3.975,0,0,1-1.621.489,1.449,1.449,0,0,1-1.4-.442.97.97,0,0,1-.158-.971c.119-.315.487-.5.952-.724a6.046,6.046,0,0,0,.552-.294,5.262,5.262,0,0,0,.526-.393c.17-.138.363-.294.678-.517a2.139,2.139,0,0,1,.408-.228c-.149-.021-.31-.039-.487-.054a2.955,2.955,0,0,0-2.066.759,12.582,12.582,0,0,1-4.066,1.286c-1.963.393-4.653.785-8,1.169.1.373.21.745.326,1.106a22.953,22.953,0,0,0,1.582,3.768c1.19-.527,4.117-1.845,6.393-3.062a2.211,2.211,0,0,1,1.667-.61,1.647,1.647,0,0,1,.874.338,1.39,1.39,0,0,1,1.067.075,1.179,1.179,0,0,1,.6.61v0a1.25,1.25,0,0,1,1.255.259,1.067,1.067,0,0,1,.387.659,1.1,1.1,0,0,1,.96.259,1.051,1.051,0,0,1,.356.882,1.116,1.116,0,0,1-.177.482,1.3,1.3,0,0,0,.643-.081,1.266,1.266,0,0,0,.207-.1,3.688,3.688,0,0,0-.547-.8.4.4,0,0,1,.6-.529,4.478,4.478,0,0,1,.727,1.1.615.615,0,0,0,.529-.168.937.937,0,0,0,.182-.249,2.647,2.647,0,0,0-.415-.589,6.5,6.5,0,0,0-.908-.764.4.4,0,0,1,.161-.719.394.394,0,0,1,.3.065,7.4,7.4,0,0,1,1.053.9,3.528,3.528,0,0,1,.533.769.817.817,0,0,0,.654-.254.805.805,0,0,0,.119-.181,6.293,6.293,0,0,0-2-1.8.4.4,0,0,1-.2-.23.4.4,0,0,1,.249-.506.388.388,0,0,1,.3.019,7.036,7.036,0,0,1,2.3,2.043" transform="translate(1.883 16.106)" fill="#e3b580"/>
    <path id="Trazado_165" data-name="Trazado 165" d="M118.206,98.938a2.332,2.332,0,0,1,.757-.386c1.325-.358,2.69.531,3.426,1.009a9.918,9.918,0,0,1,2.11,1.9.646.646,0,0,0,.058.072l.012.014.005.005a3.925,3.925,0,0,0,.692.619,27.717,27.717,0,0,0,5.3,2.8,23.143,23.143,0,0,0,1.653-3.9c.105-.328.205-.668.3-1.011a37.614,37.614,0,0,1-5.909-.967c-1.761-.419-3.058-.827-3.112-.845-.357-.121-.675-.235-.955-.336a6.049,6.049,0,0,0-2.3-.543c-.086,0-.166.007-.247.009-.107,0-.21.005-.31.007h-.012a2.506,2.506,0,0,0-1.49.3c-.293.207-.475.354-.634.485a6.252,6.252,0,0,1-.594.44,5.856,5.856,0,0,1-.634.342,3.74,3.74,0,0,0-.566.315c-.012.037-.016.079.068.2s.333.13.708.109a3.1,3.1,0,0,0,1.269-.384c.147-.082.277-.17.4-.252" transform="translate(7.136 16.374)" fill="#e3b580"/>
  </g>
</svg>
