<svg xmlns="http://www.w3.org/2000/svg" width="67" height="20.07" viewBox="0 0 67 20.07">
  <g id="Capa_2" data-name="Capa 2" transform="translate(-13.019 -7.66)">
    <g id="Capa_1" data-name="Capa 1" transform="translate(0.019 -0.003)">
      <path id="Trazado_1138" data-name="Trazado 1138" d="M453.294,222.623a2.751,2.751,0,0,1,2.755,2.752v5.845h-1.407v-5.845a1.347,1.347,0,0,0-2.693,0v5.845h-1.407v-5.845a1.347,1.347,0,0,0-2.694,0v5.845H446.44v-5.845a2.759,2.759,0,0,1,2.756-2.756,2.687,2.687,0,0,1,1.14.247,2.775,2.775,0,0,1,.911.669,2.885,2.885,0,0,1,.916-.669,2.658,2.658,0,0,1,1.131-.243Z" transform="translate(-407.609 -203.493)" fill="#6fc9f1"/>
      <path id="Trazado_1139" data-name="Trazado 1139" d="M563.593,240.678a3.342,3.342,0,0,1,1.743.469,3.535,3.535,0,0,1,1.25,1.25,3.339,3.339,0,0,1,.469,1.743v3.451H563.6a3.341,3.341,0,0,1-1.738-.469,3.519,3.519,0,0,1-1.254-1.254,3.471,3.471,0,0,1,0-3.471,3.539,3.539,0,0,1,1.25-1.25A3.324,3.324,0,0,1,563.593,240.678Zm2.051,5.5v-2.042a2.041,2.041,0,1,0-2.043,2.042Z" transform="translate(-511.291 -219.891)" fill="#6fc9f1"/>
      <path id="Trazado_1140" data-name="Trazado 1140" d="M650.508,225.094v-.75h1.407v.75a3.372,3.372,0,0,1-.375,1.575,3.48,3.48,0,0,1-1.026,1.206,3.608,3.608,0,0,1,1.026,1.281,3.79,3.79,0,0,1,.375,1.677v.563h-1.407v-.563a2.311,2.311,0,0,0-.582-1.595,1.978,1.978,0,0,0-1.455-.689h-2.064v2.843H645V222.81l1.407.7v3.629h2.064a2.046,2.046,0,0,0,1.452-.616A1.97,1.97,0,0,0,650.508,225.094Z" transform="translate(-588.747 -203.666)" fill="#6fc9f1"/>
      <path id="Trazado_1141" data-name="Trazado 1141" d="M733.488,240.678a3.342,3.342,0,0,1,1.743.469,3.545,3.545,0,0,1,1.25,1.25,3.347,3.347,0,0,1,.469,1.743v.7h-5.382a2.1,2.1,0,0,0,.75.963,1.97,1.97,0,0,0,1.179.375h2.183v1.407H733.5a3.343,3.343,0,0,1-1.738-.469,3.519,3.519,0,0,1-1.25-1.253,3.471,3.471,0,0,1,0-3.471,3.54,3.54,0,0,1,1.25-1.25A3.324,3.324,0,0,1,733.488,240.678Zm-1.919,2.755h3.846a2.113,2.113,0,0,0-.744-.973,2.046,2.046,0,0,0-2.359,0A2.113,2.113,0,0,0,731.569,243.433Z" transform="translate(-667.084 -219.89)" fill="#6fc9f1"/>
      <path id="Trazado_1142" data-name="Trazado 1142" d="M840.117,222.47v8.619H838.71V222.47Z" transform="translate(-765.557 -203.357)" fill="#6fc9f1"/>
      <path id="Trazado_1143" data-name="Trazado 1143" d="M868.4,229.254a1.481,1.481,0,0,0,.2-.018.947.947,0,0,0,.234-.061l.492,1.32a2.167,2.167,0,0,1-.5.132,3.216,3.216,0,0,1-.422.036,3.347,3.347,0,0,1-1.739-.469,3.516,3.516,0,0,1-1.254-1.252,3.345,3.345,0,0,1-.469-1.738V222h1.407v1.689h2.209V225.1h-2.2v2.1a2.064,2.064,0,0,0,2.052,2.051Z" transform="translate(-789.325 -202.93)" fill="#6fc9f1"/>
      <path id="Trazado_1144" data-name="Trazado 1144" d="M447.8,100.24v7.191h4.34v1.407H446.39v-8.6Z" transform="translate(-407.416 -91.627)" fill="#6fc9f1"/>
      <path id="Trazado_1145" data-name="Trazado 1145" d="M518.406,118.248a3.339,3.339,0,0,1,1.743.469,3.553,3.553,0,0,1,1.25,1.25,3.349,3.349,0,0,1,.469,1.743v.7h-5.382a2.1,2.1,0,0,0,.75.964,1.97,1.97,0,0,0,1.179.375H520.6v1.407h-2.183a3.355,3.355,0,0,1-1.738-.469,3.519,3.519,0,0,1-1.254-1.255,3.461,3.461,0,0,1,0-3.471,3.543,3.543,0,0,1,1.25-1.25A3.324,3.324,0,0,1,518.406,118.248ZM516.487,121h3.846a2.11,2.11,0,0,0-.744-.972,2.046,2.046,0,0,0-2.359,0A2.11,2.11,0,0,0,516.487,121Z" transform="translate(-470.045 -108.035)" fill="#6fc9f1"/>
      <path id="Trazado_1146" data-name="Trazado 1146" d="M603.311,106.833a1.608,1.608,0,0,0,.2-.017.968.968,0,0,0,.234-.062l.493,1.32a2.122,2.122,0,0,1-.5.132,3.052,3.052,0,0,1-.422.036,3.349,3.349,0,0,1-1.738-.469,3.529,3.529,0,0,1-1.255-1.255,3.349,3.349,0,0,1-.469-1.738v-5.2h1.407v1.689h2.209v1.407h-2.2v2.1a2.056,2.056,0,0,0,2.051,2.051Z" transform="translate(-547.41 -91.026)" fill="#6fc9f1"/>
      <path id="Trazado_1147" data-name="Trazado 1147" d="M694.4,121.031a2.082,2.082,0,1,1,0,4.165h-4.5v-1.407h4.5a.657.657,0,0,0,.48-.2.647.647,0,0,0,.2-.469.675.675,0,0,0-.678-.677h-2.7a2.076,2.076,0,0,1-1.466-3.548,2.008,2.008,0,0,1,1.466-.608h4.5V119.7h-4.5a.65.65,0,0,0-.469.193.668.668,0,0,0,0,.951.65.65,0,0,0,.469.193h2.7Z" transform="translate(-629.468 -108.071)" fill="#6fc9f1"/>
      <path id="Trazado_1148" data-name="Trazado 1148" d="M668.035,103l-2.2,2.575H664.7L666.286,103Z" transform="translate(-606.538 -94.005)" fill="#6fc9f1"/>
      <g id="Grupo_1180" data-name="Grupo 1180" transform="translate(13 7.663)">
        <path id="Trazado_1149" data-name="Trazado 1149" d="M95.641,11c-.289,1.136.166,1.783,1.264,2.257,1.28.553,2.462,1.3,3.7,1.937a2.089,2.089,0,0,1,1.3,1.987q-.03,3.249-.021,6.5a1.892,1.892,0,0,1-1.106,1.751c-1.122.608-2.237,1.231-3.39,1.78a1.765,1.765,0,0,1-1.25.166c-1.469-.68-2.882-1.465-4.467-2.292,1.042-.569,1.919-1.057,2.805-1.532a4.327,4.327,0,0,0,2.547-4.036,33.762,33.762,0,0,1,.027-3.453c.1-1.02-.375-1.5-1.437-1.763,0,1.646-.035,3.252.01,4.857a3.44,3.44,0,0,1-2.135,3.4c-1.551.781-3.06,1.634-4.707,2.519,2.281,1.2,4.423,2.416,6.662,3.448a3.244,3.244,0,0,0,2.276-.039,27.1,27.1,0,0,0,2.953-1.47c.3-.167.757-.431,1.213-.692a2.9,2.9,0,0,0,1.449-2.673q.019-3.29,0-6.581a2.987,2.987,0,0,0-1.584-2.774C99.733,13.175,97.683,12.1,95.641,11Z" transform="translate(-83.873 -10.392)" fill="#6fc9f1"/>
        <path id="Trazado_1150" data-name="Trazado 1150" d="M11.013,19.746C8.344,18.3,5.852,16.874,3.28,15.592A2.914,2.914,0,0,1,1.345,12.5c.125-1.9-.029-3.817.065-5.722a2.224,2.224,0,0,1,.768-1.632C4.22,3.894,6.365,2.786,8.594,1.559a4.919,4.919,0,0,1,.131.731c.008,1.966,0,3.927.006,5.89A2.018,2.018,0,0,1,7.5,10.129c-1.294.664-2.557,1.379-3.834,2.069-1,.543-1.017.665-.151,1.587,1.733-.952,3.5-1.888,5.224-2.885A2.722,2.722,0,0,0,10.09,8.417c.022-2.3.007-4.591.006-6.886a2.758,2.758,0,0,0-.019-.331C9.936.023,9.436-.3,8.331.27,5.977,1.479,3.657,2.748,1.358,4.046A2.457,2.457,0,0,0,.043,6.2Q0,9.97.04,13.744a2.638,2.638,0,0,0,1.487,2.319q3.273,1.82,6.59,3.572A3.232,3.232,0,0,0,11.013,19.746Z" transform="translate(-0.019 0.003)" fill="#6fc9f1"/>
      </g>
    </g>
  </g>
</svg>
