<svg xmlns="http://www.w3.org/2000/svg" xmlns:xlink="http://www.w3.org/1999/xlink" width="80" height="34" viewBox="0 0 80 34">
  <defs>
    <linearGradient id="linear-gradient" y1="0.5" x2="1" y2="0.5" gradientUnits="objectBoundingBox">
      <stop offset="0" stop-color="#6ac8f1"/>
      <stop offset="1" stop-color="#4b529f"/>
    </linearGradient>
    <linearGradient id="linear-gradient-2" x1="0" y1="0.5" x2="1" y2="0.5" xlink:href="#linear-gradient"/>
  </defs>
  <g id="Capa_2" data-name="Capa 2" transform="translate(-0.019 0.003)">
    <g id="Capa_1" data-name="Capa 1" transform="translate(0.019 -0.003)">
      <path id="Trazado_1138" data-name="Trazado 1138" d="M453.294,222.623a2.751,2.751,0,0,1,2.755,2.752v5.845h-1.407v-5.845a1.347,1.347,0,0,0-2.693,0v5.845h-1.407v-5.845a1.347,1.347,0,0,0-2.694,0v5.845H446.44v-5.845a2.759,2.759,0,0,1,2.756-2.756,2.687,2.687,0,0,1,1.14.247,2.775,2.775,0,0,1,.911.669,2.885,2.885,0,0,1,.916-.669,2.658,2.658,0,0,1,1.131-.243Z" transform="translate(-407.609 -203.493)" fill="#243165"/>
      <path id="Trazado_1139" data-name="Trazado 1139" d="M563.593,240.678a3.342,3.342,0,0,1,1.743.469,3.535,3.535,0,0,1,1.25,1.25,3.339,3.339,0,0,1,.469,1.743v3.451H563.6a3.341,3.341,0,0,1-1.738-.469,3.519,3.519,0,0,1-1.254-1.254,3.471,3.471,0,0,1,0-3.471,3.539,3.539,0,0,1,1.25-1.25A3.324,3.324,0,0,1,563.593,240.678Zm2.051,5.5v-2.042a2.041,2.041,0,1,0-2.043,2.042Z" transform="translate(-511.291 -219.891)" fill="#243165"/>
      <path id="Trazado_1140" data-name="Trazado 1140" d="M650.508,225.094v-.75h1.407v.75a3.372,3.372,0,0,1-.375,1.575,3.48,3.48,0,0,1-1.026,1.206,3.608,3.608,0,0,1,1.026,1.281,3.79,3.79,0,0,1,.375,1.677v.563h-1.407v-.563a2.311,2.311,0,0,0-.582-1.595,1.978,1.978,0,0,0-1.455-.689h-2.064v2.843H645V222.81l1.407.7v3.629h2.064a2.046,2.046,0,0,0,1.452-.616A1.97,1.97,0,0,0,650.508,225.094Z" transform="translate(-588.747 -203.666)" fill="#243165"/>
      <path id="Trazado_1141" data-name="Trazado 1141" d="M733.488,240.678a3.342,3.342,0,0,1,1.743.469,3.545,3.545,0,0,1,1.25,1.25,3.347,3.347,0,0,1,.469,1.743v.7h-5.382a2.1,2.1,0,0,0,.75.963,1.97,1.97,0,0,0,1.179.375h2.183v1.407H733.5a3.343,3.343,0,0,1-1.738-.469,3.519,3.519,0,0,1-1.25-1.253,3.471,3.471,0,0,1,0-3.471,3.54,3.54,0,0,1,1.25-1.25A3.324,3.324,0,0,1,733.488,240.678Zm-1.919,2.755h3.846a2.113,2.113,0,0,0-.744-.973,2.046,2.046,0,0,0-2.359,0A2.113,2.113,0,0,0,731.569,243.433Z" transform="translate(-667.084 -219.89)" fill="#243165"/>
      <path id="Trazado_1142" data-name="Trazado 1142" d="M840.117,222.47v8.619H838.71V222.47Z" transform="translate(-765.557 -203.357)" fill="#243165"/>
      <path id="Trazado_1143" data-name="Trazado 1143" d="M868.4,229.254a1.481,1.481,0,0,0,.2-.018.947.947,0,0,0,.234-.061l.492,1.32a2.167,2.167,0,0,1-.5.132,3.216,3.216,0,0,1-.422.036,3.347,3.347,0,0,1-1.739-.469,3.516,3.516,0,0,1-1.254-1.252,3.345,3.345,0,0,1-.469-1.738V222h1.407v1.689h2.209V225.1h-2.2v2.1a2.064,2.064,0,0,0,2.052,2.051Z" transform="translate(-789.325 -202.93)" fill="#243165"/>
      <path id="Trazado_1144" data-name="Trazado 1144" d="M447.8,100.24v7.191h4.34v1.407H446.39v-8.6Z" transform="translate(-407.416 -91.627)" fill="#243165"/>
      <path id="Trazado_1145" data-name="Trazado 1145" d="M518.406,118.248a3.339,3.339,0,0,1,1.743.469,3.553,3.553,0,0,1,1.25,1.25,3.349,3.349,0,0,1,.469,1.743v.7h-5.382a2.1,2.1,0,0,0,.75.964,1.97,1.97,0,0,0,1.179.375H520.6v1.407h-2.183a3.355,3.355,0,0,1-1.738-.469,3.519,3.519,0,0,1-1.254-1.255,3.461,3.461,0,0,1,0-3.471,3.543,3.543,0,0,1,1.25-1.25A3.324,3.324,0,0,1,518.406,118.248ZM516.487,121h3.846a2.11,2.11,0,0,0-.744-.972,2.046,2.046,0,0,0-2.359,0A2.11,2.11,0,0,0,516.487,121Z" transform="translate(-470.045 -108.035)" fill="#243165"/>
      <path id="Trazado_1146" data-name="Trazado 1146" d="M603.311,106.833a1.608,1.608,0,0,0,.2-.017.968.968,0,0,0,.234-.062l.493,1.32a2.122,2.122,0,0,1-.5.132,3.052,3.052,0,0,1-.422.036,3.349,3.349,0,0,1-1.738-.469,3.529,3.529,0,0,1-1.255-1.255,3.349,3.349,0,0,1-.469-1.738v-5.2h1.407v1.689h2.209v1.407h-2.2v2.1a2.056,2.056,0,0,0,2.051,2.051Z" transform="translate(-547.41 -91.026)" fill="#243165"/>
      <path id="Trazado_1147" data-name="Trazado 1147" d="M694.4,121.031a2.082,2.082,0,1,1,0,4.165h-4.5v-1.407h4.5a.657.657,0,0,0,.48-.2.647.647,0,0,0,.2-.469.675.675,0,0,0-.678-.677h-2.7a2.076,2.076,0,0,1-1.466-3.548,2.008,2.008,0,0,1,1.466-.608h4.5V119.7h-4.5a.65.65,0,0,0-.469.193.668.668,0,0,0,0,.951.65.65,0,0,0,.469.193h2.7Z" transform="translate(-629.468 -108.071)" fill="#243165"/>
      <path id="Trazado_1148" data-name="Trazado 1148" d="M668.035,103l-2.2,2.575H664.7L666.286,103Z" transform="translate(-606.538 -94.005)" fill="#243165"/>
      <path id="Trazado_1149" data-name="Trazado 1149" d="M100.422,11c-.491,1.927.281,3.026,2.145,3.83,2.172.938,4.177,2.2,6.28,3.286a3.545,3.545,0,0,1,2.2,3.372Q111,27,111.015,32.515a3.211,3.211,0,0,1-1.876,2.971c-1.9,1.032-3.8,2.089-5.753,3.021a3,3,0,0,1-2.121.282c-2.493-1.154-4.89-2.486-7.581-3.89,1.768-.966,3.257-1.794,4.76-2.6a7.343,7.343,0,0,0,4.323-6.849,57.292,57.292,0,0,1,.046-5.86c.17-1.731-.637-2.543-2.439-2.992,0,2.794-.06,5.519.017,8.241a5.837,5.837,0,0,1-3.623,5.775c-2.632,1.326-5.193,2.773-7.987,4.275,3.871,2.037,7.5,4.1,11.3,5.852a5.505,5.505,0,0,0,3.862-.066,59.885,59.885,0,0,0,7.069-3.669,4.923,4.923,0,0,0,2.459-4.536q.032-5.584,0-11.168a5.07,5.07,0,0,0-2.688-4.708C107.366,14.691,103.888,12.865,100.422,11Z" transform="translate(-80.453 -9.968)" fill="url(#linear-gradient)"/>
      <path id="Trazado_1150" data-name="Trazado 1150" d="M18.674,33.508c-4.529-2.45-8.757-4.873-13.122-7.048-2.382-1.181-3.45-2.673-3.283-5.244.213-3.226-.049-6.478.11-9.709a3.774,3.774,0,0,1,1.3-2.77C7.147,6.609,10.787,4.73,14.57,2.647a8.348,8.348,0,0,1,.222,1.24c.013,3.336-.008,6.664.01,10a3.425,3.425,0,0,1-2.082,3.308c-2.2,1.126-4.34,2.34-6.507,3.511-1.694.922-1.726,1.128-.256,2.692,2.94-1.616,5.937-3.2,8.864-4.9a4.619,4.619,0,0,0,2.286-4.214c.037-3.9.012-7.79.01-11.685a4.679,4.679,0,0,0-.032-.562C16.846.041,16-.5,14.124.46,10.129,2.512,6.192,4.666,2.291,6.868A4.169,4.169,0,0,0,.06,10.517q-.078,6.4-.006,12.807a4.476,4.476,0,0,0,2.523,3.935q5.554,3.089,11.183,6.062A5.484,5.484,0,0,0,18.674,33.508Z" transform="translate(-0.019 0.003)" fill="url(#linear-gradient-2)"/>
    </g>
  </g>
</svg>
