<svg xmlns="http://www.w3.org/2000/svg" width="60.371" height="45" viewBox="0 0 60.371 45">
  <g id="pago" transform="translate(-4.71 -8.21)">
    <path id="Trazado_1215" data-name="Trazado 1215" d="M40.993,28.012A12.392,12.392,0,1,0,28.6,40.4,12.392,12.392,0,0,0,40.993,28.012Zm-8.877,5.621a4.267,4.267,0,0,1-2.394,1.108v1.368a.315.315,0,0,1-.315.315H28.041a.315.315,0,0,1-.315-.315V34.741a4.664,4.664,0,0,1-2.544-1.19,3.939,3.939,0,0,1-1.053-3.077.315.315,0,0,1,0-.109.4.4,0,0,1,.315-.246h2.421a.315.315,0,0,1,.315.315A1.9,1.9,0,0,0,27.6,31.8a1.559,1.559,0,0,0,1.122.41,1.368,1.368,0,0,0,.971-.328,1.19,1.19,0,0,0,.315-.889,1.368,1.368,0,0,0-.315-.916,3.406,3.406,0,0,0-1.245-.725A8.74,8.74,0,0,1,25.5,27.793a3.447,3.447,0,0,1-1.012-2.64A3.529,3.529,0,0,1,25.5,22.568a4.185,4.185,0,0,1,2.394-1.135V19.86a.315.315,0,0,1,.315-.315h1.368a.315.315,0,0,1,.315.315v1.6a3.9,3.9,0,0,1,2.284,1.368,4.308,4.308,0,0,1,.93,2.886.315.315,0,0,1,0,.164.41.41,0,0,1-.3.191H30.325a.315.315,0,0,1-.315-.356,2.229,2.229,0,0,0-.41-1.368,1.039,1.039,0,0,0-.875-.424,1.067,1.067,0,0,0-.862.315,1.368,1.368,0,0,0-.287.916,1.217,1.217,0,0,0,.3.862,3.6,3.6,0,0,0,1.286.739,9.383,9.383,0,0,1,2.954,1.7,3.392,3.392,0,0,1,1.026,2.612,3.488,3.488,0,0,1-1.012,2.571Z" transform="translate(4.229 2.725)" fill="#37bbed"/>
    <path id="Trazado_1216" data-name="Trazado 1216" d="M64.425,39.9l-1.491-1.436-.643-.629-.67.6-.752.67V12.464A4.254,4.254,0,0,0,56.615,8.21H8.964A4.254,4.254,0,0,0,4.71,12.464V48.353a4.254,4.254,0,0,0,4.254,4.254H48.094a9.082,9.082,0,0,1-1.751-2.435H8.964a1.819,1.819,0,0,1-1.819-1.819V12.464a1.819,1.819,0,0,1,1.819-1.805H56.6a1.819,1.819,0,0,1,1.846,1.805V38.013A9.15,9.15,0,0,1,60.5,39.38l-.328.287-.711.629-.424.383a7.142,7.142,0,1,0,2.5,5.539,6.948,6.948,0,0,0-.164-1.463l.4-.451.862-.957,1.819-2.038.629-.7Zm-2.5,2.735-.862.957L54.345,51.02h0l-5.238-6.51,1.846-1.628,3.392,3.337L60.117,41.1l.711-.629,1.463-1.3,1.491,1.436Z" fill="#37bbed"/>
  </g>
</svg>
