<svg xmlns="http://www.w3.org/2000/svg" width="44.952" height="45" viewBox="0 0 44.952 45">
  <g id="telefono-alerta-lineal" transform="translate(-19.231 -0.765)">
    <path id="Trazado_1217" data-name="Trazado 1217" d="M38.173,6.785A4.137,4.137,0,0,0,35.21,5.6a4.405,4.405,0,0,0-2.963,1.185,3.515,3.515,0,0,0-1.037,2.963l2.667,17.04a1.3,1.3,0,0,0,1.334,1.037h.148a1.423,1.423,0,0,0,1.334-1.037L39.359,9.6h0A4.048,4.048,0,0,0,38.173,6.785Z" transform="translate(5.756 2.329)" fill="#37bbed"/>
    <circle id="Elipse_26" data-name="Elipse 26" cx="3.26" cy="3.26" r="3.26" transform="translate(37.855 31.785)" fill="#37bbed"/>
    <path id="Trazado_1221" data-name="Trazado 1221" d="M43.041,3.188A29.67,29.67,0,0,1,46.6,3.78a20.079,20.079,0,0,1-6.075,39.562,29.67,29.67,0,0,1-3.556-.593,23.035,23.035,0,0,1-3.408-1.185h0c-1.185-.593-2.223-1.185-3.408-1.926l-5.186,1.63h-.445a.843.843,0,0,1-.593-1.037l1.334-5.482a4.059,4.059,0,0,1-.593-1.037A19.863,19.863,0,0,1,22.148,18.3,20.284,20.284,0,0,1,43.041,3.188M43.189.817a22.331,22.331,0,0,0-23.263,17.04A21.561,21.561,0,0,0,22.593,34.9c0,.148.148.3.148.445l-1.185,4.445A2.709,2.709,0,0,0,22,42.157a3.793,3.793,0,0,0,1.926,1.482c.148,0,.445.148.593.148a2.889,2.889,0,0,0,1.185-.148l4-1.334a23.973,23.973,0,0,0,2.667,1.482.145.145,0,0,1,.148.148,15.461,15.461,0,0,0,3.7,1.185,18.653,18.653,0,0,0,4,.593,22.331,22.331,0,0,0,23.263-17.04,21.655,21.655,0,0,0-2.667-17.04A22.262,22.262,0,0,0,46.893,1.41a13.851,13.851,0,0,0-3.7-.593Z" transform="translate(0 0)" fill="#37bbed"/>
  </g>
</svg>
