<svg xmlns="http://www.w3.org/2000/svg" width="38.9" height="45" viewBox="0 0 38.9 45">
  <g id="notificaciones_1_" data-name="notificaciones (1)" transform="translate(-9.126 -6.185)">
    <path id="Trazado_1222" data-name="Trazado 1222" d="M44.87,37.019c-2.479-1.889-3.306-7.911-3.9-12.279v-.472a13.081,13.081,0,0,0-9.209-10.98,4.388,4.388,0,0,0-.236-6.022,4.388,4.388,0,0,0-6.022.236,4.21,4.21,0,0,0,0,5.785A12.937,12.937,0,0,0,16.3,24.267v.472c-.59,4.369-1.417,10.39-4.014,12.279a7.282,7.282,0,0,0-2.834,8.147l.472,1.417H21.965a6.82,6.82,0,0,0,8.619,4.25,6.9,6.9,0,0,0,4.25-4.25h12.4l.472-1.417A7.282,7.282,0,0,0,44.87,37.019ZM28.459,8.328a2.243,2.243,0,1,1-2.243,2.243,2.171,2.171,0,0,1,2.243-2.243Zm0,40.734a4.634,4.634,0,0,1-4.132-2.479h8.265a4.772,4.772,0,0,1-4.132,2.479Zm17.356-4.487H11.1a5.2,5.2,0,0,1,2.125-5.785c3.306-2.361,4.132-8.855,4.841-14.05a10.653,10.653,0,0,1,10.154-9.564h.354A10.561,10.561,0,0,1,38.731,24.74c.236,2.007.59,4.132.945,6.258H36.133a1.063,1.063,0,0,0,0,2.125h4.132a13.771,13.771,0,0,0,1.181,3.07H33.89a1.063,1.063,0,0,0,0,2.125h8.973l.708.708a4.806,4.806,0,0,1,2.243,5.549Z" transform="translate(0 0)" fill="#37bbed"/>
    <path id="Trazado_1223" data-name="Trazado 1223" d="M27.5,31.4H27a.9.9,0,0,0,0,1.8h.4a.9.9,0,0,0,.9-.9A.817.817,0,0,0,27.5,31.4Z" transform="translate(3.286 4.782)" fill="#37bbed"/>
  </g>
</svg>
