<svg xmlns="http://www.w3.org/2000/svg" width="47.694" height="45" viewBox="0 0 47.694 45">
  <g id="Grupo_1175" data-name="Grupo 1175" transform="translate(-84.184 -328.498)">
    <g id="Grupo_117" data-name="Grupo 117" transform="translate(84.184 328.498)">
      <g id="Grupo_116" data-name="Grupo 116" transform="translate(0 0)">
        <path id="Trazado_176" data-name="Trazado 176" d="M108.4,324.6a4.621,4.621,0,0,0-5.989,0s-8.539,7.1-8.812,7.511H117.17C116.985,331.7,108.4,324.6,108.4,324.6Z" transform="translate(-72.417 -323.498)" fill="#37bbed"/>
        <path id="Trazado_177" data-name="Trazado 177" d="M94.431,338.734a.622.622,0,0,0,.619-.626v-4.8a.623.623,0,0,0-.619-.626H91.5a1.229,1.229,0,0,0-.844.352l-3.625,3.693a1.266,1.266,0,0,0-.346.844v.563a.623.623,0,0,0,.622.626Z" transform="translate(-81.054 -312.01)" fill="#37bbed"/>
        <path id="Trazado_178" data-name="Trazado 178" d="M92.2,338.112a6.058,6.058,0,1,0,6,6.06h0A6.047,6.047,0,0,0,92.2,338.112Zm0,10.377a4.3,4.3,0,1,1,3.036-1.272,4.319,4.319,0,0,1-3.036,1.272Z" transform="translate(-81.74 -305.228)" fill="#37bbed"/>
        <path id="Trazado_179" data-name="Trazado 179" d="M103.5,338.112a6.058,6.058,0,1,0,6,6.06h0A6.047,6.047,0,0,0,103.5,338.112Zm0,10.377a4.319,4.319,0,1,1,4.279-4.319A4.319,4.319,0,0,1,103.5,348.489Z" transform="translate(-67.616 -305.228)" fill="#37bbed"/>
        <path id="Trazado_180" data-name="Trazado 180" d="M124.362,346.8H98.307a.835.835,0,0,1-.833-.844h0V332.637H90.366a.835.835,0,0,1-.833-.844h0v-2.879a.835.835,0,0,1,.833-.844h33.81a.831.831,0,0,1,.83.826l.187,17.024a.835.835,0,0,1-.818.851h-.014ZM99.19,345.128h24.329l-.11-15.345H91.146v1.252h7.147a.835.835,0,0,1,.833.844h0Z" transform="translate(-77.498 -317.771)" fill="#37bbed"/>
        <path id="Trazado_181" data-name="Trazado 181" d="M95.295,341.723a.845.845,0,0,1-.757-1.2l4.628-10.5a.83.83,0,0,1,1.1-.422.844.844,0,0,1,.422,1.114h0l-4.628,10.5A.834.834,0,0,1,95.295,341.723Z" transform="translate(-71.336 -315.958)" fill="#37bbed"/>
        <path id="Trazado_182" data-name="Trazado 182" d="M101.786,341.715a.834.834,0,0,1-.833-.844.844.844,0,0,1,.075-.352l4.628-10.492a.834.834,0,0,1,1.105-.422.844.844,0,0,1,.422,1.114h0l-4.627,10.488a.835.835,0,0,1-.771.508Z" transform="translate(-63.221 -315.953)" fill="#37bbed"/>
        <path id="Trazado_183" data-name="Trazado 183" d="M97.458,341.723a.845.845,0,0,1-.759-1.2l4.631-10.5a.83.83,0,0,1,1.1-.422.844.844,0,0,1,.422,1.114h0l-4.628,10.5A.834.834,0,0,1,97.458,341.723Z" transform="translate(-68.634 -315.958)" fill="#37bbed"/>
        <path id="Trazado_184" data-name="Trazado 184" d="M99.625,341.8a.845.845,0,0,1-.759-1.2l4.628-10.5a.831.831,0,0,1,1.617.387.8.8,0,0,1-.1.252l-4.627,10.5a.835.835,0,0,1-.755.56Z" transform="translate(-65.925 -316.039)" fill="#37bbed"/>
        <path id="Trazado_185" data-name="Trazado 185" d="M131.022,352.786h-3.211a.844.844,0,0,1,0-1.676h2.381V346.64H101.8a.835.835,0,0,1-.833-.844v-13.36H93.851l-6.278,6.348v9.888a.844.844,0,0,1-.622.814c-.211,0-1.066.4-1.066.863,0,.675.942.776,1.5.776a.844.844,0,0,1,0,1.676c-1.96-.014-3.2-.952-3.2-2.4a2.6,2.6,0,0,1,1.688-2.266v-9.643a.844.844,0,0,1,.25-.588l6.75-6.882a.818.818,0,0,1,.593-.252H101.8a.835.835,0,0,1,.83.844h0v13.3h28.387a.835.835,0,0,1,.833.844v6.259A.835.835,0,0,1,131.022,352.786Z" transform="translate(-84.184 -314.408)" fill="#37bbed"/>
        <path id="Trazado_186" data-name="Trazado 186" d="M102.311,341.484H92.981a.844.844,0,0,1,0-1.676h9.331a.844.844,0,0,1,0,1.676Z" transform="translate(-74.17 -303.108)" fill="#37bbed"/>
      </g>
    </g>
  </g>
</svg>
