<svg xmlns="http://www.w3.org/2000/svg" width="47.195" height="45" viewBox="0 0 47.195 45">
  <g id="Grupo_1174" data-name="Grupo 1174" transform="translate(-83.139 -412.642)">
    <g id="Grupo_127" data-name="Grupo 127" transform="translate(83.139 412.641)">
      <g id="Grupo_126" data-name="Grupo 126" transform="translate(0 0)">
        <path id="Trazado_202" data-name="Trazado 202" d="M103.958,413.165l-1.322-.524a5.162,5.162,0,0,0,0-.85l1.322-.548a.157.157,0,0,0,.1-.2l-.01-.028-.952-2.169a.178.178,0,0,0-.223-.1l-1.275.536a4.433,4.433,0,0,0-.605-.587l.548-1.322a.176.176,0,0,0-.1-.223l-2.182-.9a.181.181,0,0,0-.223.1l-.548,1.309a5.164,5.164,0,0,0-.85,0l-.548-1.309a.166.166,0,0,0-.219-.091h0l-2.179.894a.181.181,0,0,0-.1.223l.548,1.309a5.144,5.144,0,0,0-.587.605l-1.331-.538a.156.156,0,0,0-.223.065l-.013.028-.894,2.169a.169.169,0,0,0,.085.223h0l1.322.536a5.174,5.174,0,0,0,0,.852l-1.322.548a.156.156,0,0,0-.1.2l.01.028.938,2.169a.125.125,0,0,0,.091.089.137.137,0,0,0,.134,0l1.322-.536a4.543,4.543,0,0,0,.6.587l-.548,1.322a.179.179,0,0,0,.1.223l2.237.9a.181.181,0,0,0,.223-.1l.548-1.308a5.131,5.131,0,0,0,.85,0l.548,1.308a.147.147,0,0,0,.1.09.137.137,0,0,0,.134,0l2.169-.894a.181.181,0,0,0,.1-.223l-.548-1.322a4.229,4.229,0,0,0,.587-.587l1.331.538a.156.156,0,0,0,.213-.062l.013-.028.9-2.169a.179.179,0,0,0-.128-.219.158.158,0,0,0-.053-.01Zm-6.892,1.455a2.6,2.6,0,0,1-1.419-3.357,2.626,2.626,0,0,1,3.422-1.419,2.58,2.58,0,0,1,1.419,3.354,2.629,2.629,0,0,1-3.422,1.422Z" transform="translate(-74.168 -402.842)" fill="#37bbed"/>
        <path id="Trazado_203" data-name="Trazado 203" d="M95.647,408.839l-.493-.458a1.449,1.449,0,0,0,.147-.367h.649a.093.093,0,0,0,.078-.091v-1.118a.081.081,0,0,0-.078-.068h-.671a3.324,3.324,0,0,0-.157-.357l.458-.493v-.11l-.8-.749a.078.078,0,0,0-.11,0h0l-.482.458a1.762,1.762,0,0,0-.37-.136v-.67a.084.084,0,0,0-.1-.034H92.594a.09.09,0,0,0-.09.079l.09.761a1.468,1.468,0,0,0-.357.156l-.493-.457a.078.078,0,0,0-.11,0h0l-.761.793a.087.087,0,0,0,0,.123l.491.448a1.581,1.581,0,0,0-.147.38h-.671a.078.078,0,0,0-.079.079v1.118h.727a2,2,0,0,0,.157.358l-.458.48a.092.092,0,0,0,0,.113l.8.761a.093.093,0,0,0,.113,0l.47-.493a1.349,1.349,0,0,0,.37.147v.658a.094.094,0,0,0,0,.068h1.118s.09,0,.079-.078v-.671a1.988,1.988,0,0,0,.358-.157l.491.46a.087.087,0,0,0,.113,0l.761-.794a.076.076,0,0,0,.1-.041.078.078,0,0,0-.023-.1Zm-3.254-.514a1.209,1.209,0,0,1-.015-1.708l.015-.015a1.231,1.231,0,0,1,1.733,0,1.206,1.206,0,0,1,.013,1.708l-.013.015a1.242,1.242,0,0,1-1.733.007Z" transform="translate(-75.645 -404.641)" fill="#37bbed"/>
        <path id="Trazado_204" data-name="Trazado 204" d="M104.147,420.415h-.057a.849.849,0,0,0-.815.09,5.963,5.963,0,0,1-3.2,1.007,6.229,6.229,0,0,1-3.244-1.041.843.843,0,0,0-.827,0c-4.744,2.35-6.713,8.665-6.3,9.9a.9.9,0,0,0,.294.38,19.2,19.2,0,0,0,10.067,3.231,18.064,18.064,0,0,0,10.067-3.254,1.028,1.028,0,0,0,.267-.394C110.859,429.072,108.889,422.765,104.147,420.415Zm-.358,1.545a7.1,7.1,0,0,1,1.253.871l-1.89,2.373-1.89-2.3a7.751,7.751,0,0,0,2.527-.941Zm-2.171,3.062-1.511,1.846h0L98.6,425.022l1.545-1.878Zm-5.258-3.063a8.118,8.118,0,0,0,2.539.938l-1.89,2.3-1.9-2.373a9.106,9.106,0,0,1,1.253-.869Zm-5.19,7.7a12.736,12.736,0,0,1,3.165-6.029l2.237,2.808a.632.632,0,0,0,.414.2.547.547,0,0,0,.414-.191l.424-.524,1.118,1.375-2.79,4.576a16.248,16.248,0,0,1-4.981-2.216Zm8.948,2.74a14.59,14.59,0,0,1-2.79-.325l2.79-4.563,2.808,4.6a15.152,15.152,0,0,1-2.853.294Zm3.915-.537-2.82-4.608,1.119-1.375.424.524a.543.543,0,0,0,.414.191h0a.523.523,0,0,0,.413-.2l2.226-2.764a12.923,12.923,0,0,1,3.165,6.086,15.42,15.42,0,0,1-4.993,2.146Z" transform="translate(-76.834 -388.982)" fill="#37bbed"/>
        <path id="Trazado_205" data-name="Trazado 205" d="M98.353,428.635c3.983,0,7.18-4.8,7.18-8.781a7.181,7.181,0,0,0-14.351,0C91.183,423.835,94.384,428.635,98.353,428.635ZM104,419.854v.347c-1.589-.587-2.237-3.525-2.45-4.993A5.589,5.589,0,0,1,104,419.854Zm-11.288,0a5.548,5.548,0,0,1,7.54-5.28,7.991,7.991,0,0,1-3.892,5.177,5.233,5.233,0,0,1-3.671.6,2.5,2.5,0,0,0,.025-.5Zm.928,1.709a7.176,7.176,0,0,0,3.268-.817,8.8,8.8,0,0,0,3.826-4.112c.413,1.812,1.309,4.162,3.121,4.654-.617,2.851-2.921,5.817-5.481,5.817s-4.733-2.808-5.426-5.594a5.079,5.079,0,0,0,.695.053Z" transform="translate(-75.12 -396.419)" fill="#37bbed"/>
        <path id="Trazado_206" data-name="Trazado 206" d="M100.106,421.249l.078.281a1.856,1.856,0,0,1,.09.47h0a3.149,3.149,0,0,1-.37.648l-.1.147a.623.623,0,0,0,.09.734,4.141,4.141,0,0,0,2.093,1.119h.147a.626.626,0,0,0,.157-1.231,3.67,3.67,0,0,1-1.119-.482,3.491,3.491,0,0,0,.336-.627V422a3.332,3.332,0,0,0-.123-.8l-.09-.294a1.654,1.654,0,0,0-.09-.347v-.1a4.9,4.9,0,0,1-.448-2.046,4.833,4.833,0,1,1,9.185,2.113l-.189.648a2.749,2.749,0,0,0-.134.828,1.2,1.2,0,0,0,0,.3v.09a4.179,4.179,0,0,0,.323.637,2.843,2.843,0,0,1-.827.394.626.626,0,0,0,.367,1.2,3.736,3.736,0,0,0,1.733-1.041.632.632,0,0,0,.079-.734l-.09-.157c-.079-.123-.3-.493-.37-.637h0a1.6,1.6,0,0,1,.079-.47c.057-.213.123-.424.157-.558a6.087,6.087,0,1,0-11.611-2.563,6.385,6.385,0,0,0,.524,2.505.689.689,0,0,1,.122.3Z" transform="translate(-66.888 -396.904)" fill="#37bbed"/>
        <path id="Trazado_207" data-name="Trazado 207" d="M109.785,418.586a.718.718,0,0,0-.681.079,4.92,4.92,0,0,1-2.617.828,5.19,5.19,0,0,1-2.663-.852.626.626,0,0,0-.637-.056h0a10.224,10.224,0,0,0-4.542,5.224,13.877,13.877,0,0,1,.9,1.119,11.032,11.032,0,0,1,2.26-3.726l2.237,2.37a.389.389,0,0,0,.313.147h0a.451.451,0,0,0,.294-.28l1.8-2.594,1.833,2.594a.44.44,0,0,0,.325.191h0a.414.414,0,0,0,.325-.147l2.237-2.37a10.574,10.574,0,0,1,2.643,5.023,13.492,13.492,0,0,1-7.306,2.238,14.868,14.868,0,0,1-5.714-1.364,13.9,13.9,0,0,1,.681,1.615,15.81,15.81,0,0,0,5.033,1,14.767,14.767,0,0,0,8.211-2.6.646.646,0,0,0,.223-.323C115.321,425.678,113.706,420.532,109.785,418.586Zm-5.515,3.949-1.856-1.98a8.471,8.471,0,0,1,.985-.681,6.44,6.44,0,0,0,2.135.781Zm4.473,0-1.3-1.87a6.359,6.359,0,0,0,2.135-.793,6.033,6.033,0,0,1,.985.681Z" transform="translate(-67.802 -391.034)" fill="#37bbed"/>
        <path id="Trazado_208" data-name="Trazado 208" d="M106.418,414.27a.407.407,0,0,0-.424-.213.416.416,0,0,0-.348.325,3.191,3.191,0,0,1-3.478,2.707c-.761.068-1.633.134-1.633.985,0,2.113,1.712,4.663,3.826,4.663s3.818-2.549,3.818-4.663A16.616,16.616,0,0,0,106.418,414.27Zm-2.056,7.629c-1.579,0-2.987-2.135-3-3.818a2.831,2.831,0,0,1,.881-.147,4.047,4.047,0,0,0,3.914-2.394,14.042,14.042,0,0,1,1.119,2.541c.056,1.679-1.342,3.812-2.92,3.812Z" transform="translate(-65.677 -395.109)" fill="#37bbed"/>
        <path id="Trazado_209" data-name="Trazado 209" d="M98.407,424.3a12.6,12.6,0,0,1,.918-1.018,9.986,9.986,0,0,0-4.306-4.686h0a.684.684,0,0,0-.671.079,4.92,4.92,0,0,1-2.617.827,5.113,5.113,0,0,1-2.651-.85.734.734,0,0,0-.695,0c-3.937,1.867-5.547,7.013-5.2,8.064a.706.706,0,0,0,.236.314,15.779,15.779,0,0,0,8.267,2.643,14.407,14.407,0,0,0,4.171-.67,13.791,13.791,0,0,1,.587-1.523,13.922,13.922,0,0,1-3.958.9l2.237-4.473a.449.449,0,0,0-.181-.571l-.881-.514,1.856-2.428a10.079,10.079,0,0,1,2.887,3.91Zm-14.028,1.878a10.294,10.294,0,0,1,3.514-5.8l1.856,2.416-.881.514a.441.441,0,0,0-.181.571l2.182,4.475a14.663,14.663,0,0,1-6.491-2.172Zm6.879.985-1.615-3.312.974-.558a.441.441,0,0,0,.2-.294.41.41,0,0,0-.056-.357L88.6,419.876h0a6.58,6.58,0,0,0,2.594.818c.051,1.993.062,4.867.062,6.468Zm1.355-4.475a.492.492,0,0,0-.079.357.422.422,0,0,0,.213.294l.962.558-1.579,3.357v-6.509a6.149,6.149,0,0,0,2.617-.852h0Z" transform="translate(-83.139 -391.018)" fill="#37bbed"/>
        <path id="Trazado_210" data-name="Trazado 210" d="M85.611,421.6c.458.918,2.08,3.645,4.977,3.645s4.473-2.74,4.977-3.645a2.4,2.4,0,0,0,1.264-1.679,3.018,3.018,0,0,0-.225-2.717,2.711,2.711,0,0,0-.4-.394,5.794,5.794,0,0,0-11.185,0,1.773,1.773,0,0,0-.441.424,2.956,2.956,0,0,0-.234,2.708A2.316,2.316,0,0,0,85.611,421.6Zm0-3.579a.465.465,0,0,1,.357-.213h0a.112.112,0,0,0,.134-.087v-.013a4.473,4.473,0,0,1,8.812,0,.147.147,0,0,0,.157.11.494.494,0,0,1,.37.2c.147.2.267.627,0,1.532-.123.424-.37.928-.771.818a.122.122,0,0,0-.157.076h0c-.671,1.709-2.182,3.444-4.015,3.444s-3.357-1.745-4.017-3.467a.132.132,0,0,0-.12-.079h0c-.4.147-.661-.38-.784-.8-.213-.9-.09-1.332.056-1.521Z" transform="translate(-82.034 -396.751)" fill="#37bbed"/>
      </g>
    </g>
  </g>
</svg>
