<svg xmlns="http://www.w3.org/2000/svg" width="38.623" height="45" viewBox="0 0 38.623 45">
  <g id="factor-pago" transform="translate(-7.06 -4.06)">
    <path id="Trazado_1203" data-name="Trazado 1203" d="M14.35,34.66V33.09h17.3V31.71H14.35V15.17H12.98V31.71H11.52v1.38h1.46v1.57Z" transform="translate(0 1.293)" fill="#37bbed"/>
    <path id="Trazado_1204" data-name="Trazado 1204" d="M17.15,22.86a1.21,1.21,0,0,0-1.21,1.21v6h2.42v-6a1.21,1.21,0,0,0-1.21-1.21Z" transform="translate(0.598 1.424)" fill="#37bbed"/>
    <path id="Trazado_1205" data-name="Trazado 1205" d="M21.29,17.69a1.21,1.21,0,0,0-1.21,1.21V30.06H22.5V18.9a1.21,1.21,0,0,0-1.21-1.21Z" transform="translate(0.876 1.21)" fill="#37bbed"/>
    <path id="Trazado_1206" data-name="Trazado 1206" d="M25.44,13.17a1.21,1.21,0,0,0-1.21,1.21V30.06h2.42V14.38a1.21,1.21,0,0,0-1.21-1.21Z" transform="translate(1.156 0.952)" fill="#37bbed"/>
    <path id="Trazado_1207" data-name="Trazado 1207" d="M29.58,19.17a1.21,1.21,0,0,0-1.21,1.21v9.68h2.42V20.38a1.21,1.21,0,0,0-1.21-1.21Z" transform="translate(1.434 1.278)" fill="#37bbed"/>
    <path id="Trazado_1208" data-name="Trazado 1208" d="M30.921,42.79H11.562a2.506,2.506,0,0,1-2.508-2.5V8.554a2.506,2.506,0,0,1,2.508-2.5H32.346v6.494a1.135,1.135,0,0,0,1.158,1.07h5.628V34.263H39.4a8.591,8.591,0,0,1,1.694.171L41.018,11.9v-.1L33.793,4.135V4.06H11.562a4.5,4.5,0,0,0-4.5,4.494V40.286a4.5,4.5,0,0,0,4.5,4.494H31.156A8.469,8.469,0,0,1,30.91,42.8Zm6.742-31.3H34.619V8.158Z" transform="translate(0)" fill="#37bbed"/>
    <path id="Trazado_1209" data-name="Trazado 1209" d="M37.27,34.14a6.13,6.13,0,1,0,6.13,6.13A6.13,6.13,0,0,0,37.27,34.14Zm2.48,5H38.11V39a1.19,1.19,0,0,0-.2-.77.64.64,0,0,0-.52-.23.66.66,0,0,0-.5.18.71.71,0,0,0-.18.52.67.67,0,0,0,.17.48,2.2,2.2,0,0,0,.73.41,8.89,8.89,0,0,1,.95.44,2.89,2.89,0,0,1,.65.48,1.9,1.9,0,0,1,.41.62,2.12,2.12,0,0,1,.14.81,1.91,1.91,0,0,1-.54,1.41,2.29,2.29,0,0,1-1.35.62v1h-1V44a2.22,2.22,0,0,1-2-2.37v-.14h1.65v.14a1.14,1.14,0,0,0,.23.78.84.84,0,0,0,.67.26.81.81,0,0,0,.57-.18.63.63,0,0,0,.2-.5.73.73,0,0,0-.18-.53,1.86,1.86,0,0,0-.68-.39,8.83,8.83,0,0,1-.91-.39,3,3,0,0,1-.68-.46,1.93,1.93,0,0,1-.45-.63,2.12,2.12,0,0,1-.16-.86,1.92,1.92,0,0,1,.55-1.41,2.27,2.27,0,0,1,1.33-.62v-1h1v1.05a2.1,2.1,0,0,1,1.28.73,2.46,2.46,0,0,1,.51,1.6Z" transform="translate(2.283 2.66)" fill="#37bbed"/>
  </g>
</svg>
