<svg xmlns="http://www.w3.org/2000/svg" width="52.577" height="45" viewBox="0 0 52.577 45">
  <g id="areas-vacantes" transform="translate(-6 -8.75)">
    <path id="Trazado_1196" data-name="Trazado 1196" d="M19.12,22.253H8.485A2.539,2.539,0,0,1,6,19.713V11.289A2.54,2.54,0,0,1,8.485,8.75H19.12a2.539,2.539,0,0,1,2.539,2.539v8.424a2.539,2.539,0,0,1-2.539,2.539ZM8.485,11.044a.246.246,0,0,0-.246.246v8.424a.246.246,0,0,0,.246.246H19.12a.246.246,0,0,0,.246-.246V11.289a.246.246,0,0,0-.246-.246Z" transform="translate(0 0)" fill="#37bbed"/>
    <path id="Trazado_1197" data-name="Trazado 1197" d="M32.658,22.253H22.009a2.539,2.539,0,0,1-2.539-2.539V11.289A2.539,2.539,0,0,1,22.009,8.75H32.645a2.539,2.539,0,0,1,2.567,2.539v8.424a2.539,2.539,0,0,1-2.553,2.539ZM22.023,11.044a.246.246,0,0,0-.246.246v8.424a.246.246,0,0,0,.246.246H32.658a.246.246,0,0,0,.246-.246V11.289a.246.246,0,0,0-.246-.246Z" transform="translate(4.92)" fill="#37bbed"/>
    <path id="Trazado_1198" data-name="Trazado 1198" d="M46.161,22.253H35.526A2.539,2.539,0,0,1,33,19.713V11.289A2.539,2.539,0,0,1,35.539,8.75H46.175a2.539,2.539,0,0,1,2.539,2.539v8.424a2.539,2.539,0,0,1-2.553,2.539ZM35.526,11.044a.246.246,0,0,0-.246.246v8.424a.246.246,0,0,0,.246.246H46.161a.246.246,0,0,0,.246-.246V11.289a.246.246,0,0,0-.246-.246Z" transform="translate(9.862 0)" fill="#37bbed"/>
    <path id="Trazado_1199" data-name="Trazado 1199" d="M32.658,33.8H22.009a2.539,2.539,0,0,1-2.539-2.539V22.819a2.539,2.539,0,0,1,2.539-2.539H32.645a2.539,2.539,0,0,1,2.567,2.539v8.424A2.539,2.539,0,0,1,32.658,33.8ZM22.009,22.628a.246.246,0,0,0-.246.246V31.3a.246.246,0,0,0,.246.246H32.645a.246.246,0,0,0,.246-.246V22.819a.246.246,0,0,0-.246-.246Z" transform="translate(4.92 4.212)" fill="#37bbed"/>
    <path id="Trazado_1200" data-name="Trazado 1200" d="M46.161,33.8H35.526A2.539,2.539,0,0,1,33,31.257V22.819a2.539,2.539,0,0,1,2.539-2.539H46.175a2.539,2.539,0,0,1,2.539,2.539v8.424A2.539,2.539,0,0,1,46.161,33.8ZM35.526,22.628a.246.246,0,0,0-.246.246V31.3a.246.246,0,0,0,.246.246H46.161a.246.246,0,0,0,.246-.246V22.819a.246.246,0,0,0-.246-.246Z" transform="translate(9.862 4.212)" fill="#37bbed"/>
    <path id="Trazado_1201" data-name="Trazado 1201" d="M19.12,45.323H8.485A2.539,2.539,0,0,1,6,42.783V34.359A2.539,2.539,0,0,1,8.539,31.82H19.175a2.539,2.539,0,0,1,2.539,2.539v8.424a2.539,2.539,0,0,1-2.594,2.539ZM8.485,34.114a.246.246,0,0,0-.246.246v8.424a.246.246,0,0,0,.246.246H19.12a.246.246,0,0,0,.246-.246V34.359a.246.246,0,0,0-.246-.246Z" transform="translate(0 8.427)" fill="#37bbed"/>
    <path id="Trazado_1202" data-name="Trazado 1202" d="M46.161,45.323H35.526A2.539,2.539,0,0,1,33,42.783V34.359a2.539,2.539,0,0,1,2.539-2.539H46.175a2.539,2.539,0,0,1,2.539,2.539v8.424a2.539,2.539,0,0,1-2.553,2.539ZM35.526,34.114a.246.246,0,0,0-.246.246v8.424a.246.246,0,0,0,.246.246H46.161a.246.246,0,0,0,.246-.246V34.359a.246.246,0,0,0-.246-.246Z" transform="translate(9.862 8.427)" fill="#37bbed"/>
  </g>
</svg>
