<svg xmlns="http://www.w3.org/2000/svg" width="42.87" height="45" viewBox="0 0 42.87 45">
  <g id="genero_4_" data-name="genero (4)" transform="translate(-4.595 -3.586)">
    <path id="Trazado_1210" data-name="Trazado 1210" d="M16.975,20.768a7.918,7.918,0,0,0,7.887-7.752,6.391,6.391,0,0,0-.353-5.83,3.679,3.679,0,0,0-3.907-1.6,7.274,7.274,0,0,0-7.586-1.528C7.03,6.437,8.807,12.267,9.087,13.1a7.939,7.939,0,0,0,7.887,7.669ZM20,7.8a15.484,15.484,0,0,0,3.117,4.853v.073a1.143,1.143,0,0,1,0,.156,6.131,6.131,0,0,1-12.241.488A16.9,16.9,0,0,0,20,7.8Z" transform="translate(0.158 0)" fill="#37bbed"/>
    <path id="Trazado_1211" data-name="Trazado 1211" d="M38.939,31.412l-.125-.062-.114.083a8.771,8.771,0,0,1-4.718,1.486,9,9,0,0,1-4.676-1.486l-.114-.083-.125.062c-5.83,2.889-8.22,10.8-7.846,11.909v.073h.062a24.285,24.285,0,0,0,12.7,4.1,22.758,22.758,0,0,0,12.73-4.042h.062v-.073C47.169,42.209,44.779,34.3,38.939,31.412Zm6.089,11.057a21.178,21.178,0,0,1-11.046,3.273,23.288,23.288,0,0,1-11.046-3.325c.353-1.777,2.307-6.744,6.162-9.093a10.641,10.641,0,0,0,4.884,1.3,10.277,10.277,0,0,0,4.894-1.289C42.732,35.735,44.675,40.692,45.029,42.469Z" transform="translate(0.65 1.087)" fill="#37bbed"/>
    <path id="Trazado_1212" data-name="Trazado 1212" d="M22.914,30.606,22.53,31l7.066.145a7.877,7.877,0,0,0,8.667,0L45.308,31l-.343-.384a12.709,12.709,0,0,1-2.577-8.968,8.521,8.521,0,0,0-2.172-6.557,7.274,7.274,0,0,0-5.331-2.411,6.235,6.235,0,0,0-4.52,1.725l-.187.166h-.1a4.313,4.313,0,0,0-3.18,1.289c-1.2,1.257-1.673,3.294-1.434,6.069a11.483,11.483,0,0,1-2.546,8.677Zm4.874-6.058a6.152,6.152,0,0,1,3.471-5.518,14.839,14.839,0,0,0,8.8,5.549,6.141,6.141,0,0,1-12.283,0Z" transform="translate(0.702 0.356)" fill="#37bbed"/>
    <path id="Trazado_1213" data-name="Trazado 1213" d="M24.677,34.562a.894.894,0,0,0,.447-1.153.883.883,0,0,0-1.164-.457h-.073a20.69,20.69,0,0,1-6.4,1.112A23.277,23.277,0,0,1,6.4,30.779C6.751,29,8.7,24.035,12.56,21.686a10.672,10.672,0,0,0,4.926,1.3A10.3,10.3,0,0,0,22.38,21.7a8.23,8.23,0,0,1,1.839,1.58.873.873,0,0,0,1.185.083h0a.914.914,0,0,0,.083-1.268,12.9,12.9,0,0,0-3.117-2.349l-.125-.062-.114.083a8.771,8.771,0,0,1-4.645,1.465,9,9,0,0,1-4.718-1.486l-.114-.083-.125.062c-5.871,2.889-8.261,10.807-7.9,11.909V31.7h.062a24.3,24.3,0,0,0,12.792,4.115,23.059,23.059,0,0,0,6.838-1.133q.179-.054.353-.125Z" transform="translate(0 0.629)" fill="#37bbed"/>
  </g>
</svg>
